<?xml version="1.0" encoding="utf-8" standalone="no"?>
<!DOCTYPE svg PUBLIC "-//W3C//DTD SVG 1.1//EN"
  "http://www.w3.org/Graphics/SVG/1.1/DTD/svg11.dtd">
<svg xmlns:xlink="http://www.w3.org/1999/xlink" width="1152pt" height="864pt" viewBox="0 0 1152 864" xmlns="http://www.w3.org/2000/svg" version="1.1">
 <metadata>
  <rdf:RDF xmlns:dc="http://purl.org/dc/elements/1.1/" xmlns:cc="http://creativecommons.org/ns#" xmlns:rdf="http://www.w3.org/1999/02/22-rdf-syntax-ns#">
   <cc:Work>
    <dc:type rdf:resource="http://purl.org/dc/dcmitype/StillImage"/>
    <dc:date>2024-09-11T11:48:43.776198</dc:date>
    <dc:format>image/svg+xml</dc:format>
    <dc:creator>
     <cc:Agent>
      <dc:title>Matplotlib v3.8.4, https://matplotlib.org/</dc:title>
     </cc:Agent>
    </dc:creator>
   </cc:Work>
  </rdf:RDF>
 </metadata>
 <defs>
  <style type="text/css">*{stroke-linejoin: round; stroke-linecap: butt}</style>
 </defs>
 <g id="figure_1">
  <g id="patch_1">
   <path d="M 0 864 
L 1152 864 
L 1152 0 
L 0 0 
z
" style="fill: #ffffff"/>
  </g>
  <g id="axes_1">
   <g id="patch_2">
    <path d="M 144 392.932174 
L 549.818182 392.932174 
L 549.818182 103.68 
L 144 103.68 
z
" style="fill: #ffffff"/>
   </g>
   <g id="PolyCollection_1">
    <defs>
     <path id="ma7da6863c7" d="M 162.446281 -577.869666 
L 162.446281 -515.557109 
L 166.172802 -585.998372 
L 169.899324 -553.073358 
L 173.625845 -569.960555 
L 177.352367 -575.216836 
L 181.078888 -565.153037 
L 184.805409 -549.197361 
L 188.531931 -579.575591 
L 192.258452 -607.050193 
L 195.984974 -587.669881 
L 199.711495 -603.927567 
L 203.438017 -602.092435 
L 207.164538 -567.682908 
L 210.891059 -590.46423 
L 214.617581 -564.362613 
L 218.344102 -567.682908 
L 222.070624 -564.362613 
L 225.797145 -618.350121 
L 229.523666 -622.843254 
L 233.250188 -627.650772 
L 236.976709 -621.310133 
L 240.703231 -625.283357 
L 244.429752 -622.843254 
L 248.156273 -645.679928 
L 251.882795 -656.119804 
L 255.609316 -653.720773 
L 259.335838 -653.720773 
L 263.062359 -641.69725 
L 266.788881 -634.4907 
L 270.515402 -634.4907 
L 274.241923 -648.913254 
L 277.968445 -650.317856 
L 281.694966 -615.66832 
L 285.421488 -627.274696 
L 289.148009 -606.887578 
L 292.87453 -606.887578 
L 296.601052 -606.887578 
L 300.327573 -600.567403 
L 304.054095 -571.881595 
L 307.780616 -587.621821 
L 311.507137 -578.006784 
L 315.233659 -592.04922 
L 318.96018 -599.378013 
L 322.686702 -595.271748 
L 326.413223 -595.271748 
L 330.139745 -604.185531 
L 333.866266 -619.634972 
L 337.592787 -635.723232 
L 341.319309 -630.937544 
L 345.04583 -619.634972 
L 348.772352 -630.353024 
L 352.498873 -629.412511 
L 356.225394 -613.800567 
L 359.951916 -644.775578 
L 363.678437 -644.775578 
L 367.404959 -645.347723 
L 371.13148 -622.552119 
L 374.858002 -645.347723 
L 378.584523 -641.188477 
L 382.311044 -630.353024 
L 386.037566 -626.765923 
L 389.764087 -624.116857 
L 393.490609 -624.116857 
L 397.21713 -612.437794 
L 400.943651 -622.552119 
L 404.670173 -619.309339 
L 408.396694 -624.116857 
L 412.123216 -628.223121 
L 415.849737 -629.412511 
L 419.576258 -618.608085 
L 423.30278 -617.636545 
L 427.029301 -613.800567 
L 430.755823 -634.057526 
L 434.482344 -627.125769 
L 438.208866 -635.723232 
L 441.935387 -632.296637 
L 445.661908 -624.116857 
L 449.38843 -632.296637 
L 453.114951 -602.044375 
L 456.841473 -612.437794 
L 460.567994 -612.437794 
L 464.294515 -606.471775 
L 468.021037 -596.528017 
L 471.747558 -602.044375 
L 475.47408 -596.528017 
L 479.200601 -596.528017 
L 482.927122 -596.528017 
L 486.653644 -596.528017 
L 490.380165 -596.528017 
L 494.106687 -606.471775 
L 497.833208 -606.471775 
L 501.55973 -602.044375 
L 505.286251 -602.044375 
L 509.012772 -602.044375 
L 512.739294 -605.860579 
L 516.465815 -628.223121 
L 520.192337 -617.636545 
L 523.918858 -628.223121 
L 527.645379 -628.223121 
L 531.371901 -626.860349 
L 531.371901 -745.402476 
L 531.371901 -745.402476 
L 527.645379 -734.424667 
L 523.918858 -734.424667 
L 520.192337 -735.396208 
L 516.465815 -734.424667 
L 512.739294 -747.172174 
L 509.012772 -731.758305 
L 505.286251 -731.758305 
L 501.55973 -731.758305 
L 497.833208 -727.330906 
L 494.106687 -727.330906 
L 490.380165 -727.659627 
L 486.653644 -727.659627 
L 482.927122 -727.659627 
L 479.200601 -727.659627 
L 475.47408 -727.659627 
L 471.747558 -731.758305 
L 468.021037 -727.659627 
L 464.294515 -727.330906 
L 460.567994 -730.979922 
L 456.841473 -730.979922 
L 453.114951 -731.758305 
L 449.38843 -730.351152 
L 445.661908 -719.300859 
L 441.935387 -730.351152 
L 438.208866 -717.30952 
L 434.482344 -716.291947 
L 430.755823 -718.975226 
L 427.029301 -720.002113 
L 423.30278 -735.396208 
L 419.576258 -724.809631 
L 415.849737 -723.620241 
L 412.123216 -734.424667 
L 408.396694 -719.300859 
L 404.670173 -714.493341 
L 400.943651 -730.480633 
L 397.21713 -730.979922 
L 393.490609 -719.300859 
L 389.764087 -719.300859 
L 386.037566 -697.421721 
L 382.311044 -713.064693 
L 378.584523 -711.844275 
L 374.858002 -717.300066 
L 371.13148 -730.480633 
L 367.404959 -717.300066 
L 363.678437 -727.487247 
L 359.951916 -727.487247 
L 356.225394 -720.002113 
L 352.498873 -723.620241 
L 348.772352 -713.064693 
L 345.04583 -704.552672 
L 341.319309 -693.2501 
L 337.592787 -717.30952 
L 333.866266 -704.552672 
L 330.139745 -710.387077 
L 326.413223 -690.455751 
L 322.686702 -690.455751 
L 318.96018 -705.579559 
L 315.233659 -712.908351 
L 311.507137 -707.720715 
L 307.780616 -717.335751 
L 304.054095 -713.845904 
L 300.327573 -694.775133 
L 296.601052 -678.839921 
L 292.87453 -678.839921 
L 289.148009 -678.839921 
L 285.421488 -668.06784 
L 281.694966 -670.059179 
L 277.968445 -673.869788 
L 274.241923 -684.889426 
L 270.515402 -670.466871 
L 266.788881 -670.466871 
L 263.062359 -682.490394 
L 259.335838 -689.696944 
L 255.609316 -689.696944 
L 251.882795 -696.912948 
L 248.156273 -659.277643 
L 244.429752 -682.114318 
L 240.703231 -679.674215 
L 236.976709 -693.262475 
L 233.250188 -686.921836 
L 229.523666 -682.114318 
L 225.797145 -667.377378 
L 222.070624 -682.904741 
L 218.344102 -698.814519 
L 214.617581 -682.904741 
L 210.891059 -685.648233 
L 207.164538 -698.814519 
L 203.438017 -664.404992 
L 199.711495 -652.954824 
L 195.984974 -649.982437 
L 192.258452 -630.602125 
L 188.531931 -638.846655 
L 184.805409 -621.149704 
L 181.078888 -624.4241 
L 177.352367 -643.205409 
L 173.625845 -629.231619 
L 169.899324 -655.733852 
L 166.172802 -613.193801 
L 162.446281 -577.869666 
z
" style="stroke: #0000ff; stroke-opacity: 0.15"/>
    </defs>
    <g clip-path="url(#p8cf78f7927)">
     <use xlink:href="#ma7da6863c7" x="0" y="864" style="fill: #0000ff; fill-opacity: 0.15; stroke: #0000ff; stroke-opacity: 0.15"/>
    </g>
   </g>
   <g id="matplotlib.axis_1">
    <g id="xtick_1">
     <g id="line2d_1">
      <defs>
       <path id="m4c53ade891" d="M 0 0 
L 0 3.5 
" style="stroke: #000000; stroke-width: 0.8"/>
      </defs>
      <g>
       <use xlink:href="#m4c53ade891" x="162.446281" y="392.932174" style="stroke: #000000; stroke-width: 0.8"/>
      </g>
     </g>
     <g id="text_1">
      <!-- 0 -->
      <g transform="translate(159.265031 407.530611) scale(0.1 -0.1)">
       <defs>
        <path id="DejaVuSans-30" d="M 2034 4250 
Q 1547 4250 1301 3770 
Q 1056 3291 1056 2328 
Q 1056 1369 1301 889 
Q 1547 409 2034 409 
Q 2525 409 2770 889 
Q 3016 1369 3016 2328 
Q 3016 3291 2770 3770 
Q 2525 4250 2034 4250 
z
M 2034 4750 
Q 2819 4750 3233 4129 
Q 3647 3509 3647 2328 
Q 3647 1150 3233 529 
Q 2819 -91 2034 -91 
Q 1250 -91 836 529 
Q 422 1150 422 2328 
Q 422 3509 836 4129 
Q 1250 4750 2034 4750 
z
" transform="scale(0.015625)"/>
       </defs>
       <use xlink:href="#DejaVuSans-30"/>
      </g>
     </g>
    </g>
    <g id="xtick_2">
     <g id="line2d_2">
      <g>
       <use xlink:href="#m4c53ade891" x="236.976709" y="392.932174" style="stroke: #000000; stroke-width: 0.8"/>
      </g>
     </g>
     <g id="text_2">
      <!-- 20 -->
      <g transform="translate(230.614209 407.530611) scale(0.1 -0.1)">
       <defs>
        <path id="DejaVuSans-32" d="M 1228 531 
L 3431 531 
L 3431 0 
L 469 0 
L 469 531 
Q 828 903 1448 1529 
Q 2069 2156 2228 2338 
Q 2531 2678 2651 2914 
Q 2772 3150 2772 3378 
Q 2772 3750 2511 3984 
Q 2250 4219 1831 4219 
Q 1534 4219 1204 4116 
Q 875 4013 500 3803 
L 500 4441 
Q 881 4594 1212 4672 
Q 1544 4750 1819 4750 
Q 2544 4750 2975 4387 
Q 3406 4025 3406 3419 
Q 3406 3131 3298 2873 
Q 3191 2616 2906 2266 
Q 2828 2175 2409 1742 
Q 1991 1309 1228 531 
z
" transform="scale(0.015625)"/>
       </defs>
       <use xlink:href="#DejaVuSans-32"/>
       <use xlink:href="#DejaVuSans-30" x="63.623047"/>
      </g>
     </g>
    </g>
    <g id="xtick_3">
     <g id="line2d_3">
      <g>
       <use xlink:href="#m4c53ade891" x="311.507137" y="392.932174" style="stroke: #000000; stroke-width: 0.8"/>
      </g>
     </g>
     <g id="text_3">
      <!-- 40 -->
      <g transform="translate(305.144637 407.530611) scale(0.1 -0.1)">
       <defs>
        <path id="DejaVuSans-34" d="M 2419 4116 
L 825 1625 
L 2419 1625 
L 2419 4116 
z
M 2253 4666 
L 3047 4666 
L 3047 1625 
L 3713 1625 
L 3713 1100 
L 3047 1100 
L 3047 0 
L 2419 0 
L 2419 1100 
L 313 1100 
L 313 1709 
L 2253 4666 
z
" transform="scale(0.015625)"/>
       </defs>
       <use xlink:href="#DejaVuSans-34"/>
       <use xlink:href="#DejaVuSans-30" x="63.623047"/>
      </g>
     </g>
    </g>
    <g id="xtick_4">
     <g id="line2d_4">
      <g>
       <use xlink:href="#m4c53ade891" x="386.037566" y="392.932174" style="stroke: #000000; stroke-width: 0.8"/>
      </g>
     </g>
     <g id="text_4">
      <!-- 60 -->
      <g transform="translate(379.675066 407.530611) scale(0.1 -0.1)">
       <defs>
        <path id="DejaVuSans-36" d="M 2113 2584 
Q 1688 2584 1439 2293 
Q 1191 2003 1191 1497 
Q 1191 994 1439 701 
Q 1688 409 2113 409 
Q 2538 409 2786 701 
Q 3034 994 3034 1497 
Q 3034 2003 2786 2293 
Q 2538 2584 2113 2584 
z
M 3366 4563 
L 3366 3988 
Q 3128 4100 2886 4159 
Q 2644 4219 2406 4219 
Q 1781 4219 1451 3797 
Q 1122 3375 1075 2522 
Q 1259 2794 1537 2939 
Q 1816 3084 2150 3084 
Q 2853 3084 3261 2657 
Q 3669 2231 3669 1497 
Q 3669 778 3244 343 
Q 2819 -91 2113 -91 
Q 1303 -91 875 529 
Q 447 1150 447 2328 
Q 447 3434 972 4092 
Q 1497 4750 2381 4750 
Q 2619 4750 2861 4703 
Q 3103 4656 3366 4563 
z
" transform="scale(0.015625)"/>
       </defs>
       <use xlink:href="#DejaVuSans-36"/>
       <use xlink:href="#DejaVuSans-30" x="63.623047"/>
      </g>
     </g>
    </g>
    <g id="xtick_5">
     <g id="line2d_5">
      <g>
       <use xlink:href="#m4c53ade891" x="460.567994" y="392.932174" style="stroke: #000000; stroke-width: 0.8"/>
      </g>
     </g>
     <g id="text_5">
      <!-- 80 -->
      <g transform="translate(454.205494 407.530611) scale(0.1 -0.1)">
       <defs>
        <path id="DejaVuSans-38" d="M 2034 2216 
Q 1584 2216 1326 1975 
Q 1069 1734 1069 1313 
Q 1069 891 1326 650 
Q 1584 409 2034 409 
Q 2484 409 2743 651 
Q 3003 894 3003 1313 
Q 3003 1734 2745 1975 
Q 2488 2216 2034 2216 
z
M 1403 2484 
Q 997 2584 770 2862 
Q 544 3141 544 3541 
Q 544 4100 942 4425 
Q 1341 4750 2034 4750 
Q 2731 4750 3128 4425 
Q 3525 4100 3525 3541 
Q 3525 3141 3298 2862 
Q 3072 2584 2669 2484 
Q 3125 2378 3379 2068 
Q 3634 1759 3634 1313 
Q 3634 634 3220 271 
Q 2806 -91 2034 -91 
Q 1263 -91 848 271 
Q 434 634 434 1313 
Q 434 1759 690 2068 
Q 947 2378 1403 2484 
z
M 1172 3481 
Q 1172 3119 1398 2916 
Q 1625 2713 2034 2713 
Q 2441 2713 2670 2916 
Q 2900 3119 2900 3481 
Q 2900 3844 2670 4047 
Q 2441 4250 2034 4250 
Q 1625 4250 1398 4047 
Q 1172 3844 1172 3481 
z
" transform="scale(0.015625)"/>
       </defs>
       <use xlink:href="#DejaVuSans-38"/>
       <use xlink:href="#DejaVuSans-30" x="63.623047"/>
      </g>
     </g>
    </g>
    <g id="xtick_6">
     <g id="line2d_6">
      <g>
       <use xlink:href="#m4c53ade891" x="535.098422" y="392.932174" style="stroke: #000000; stroke-width: 0.8"/>
      </g>
     </g>
     <g id="text_6">
      <!-- 100 -->
      <g transform="translate(525.554672 407.530611) scale(0.1 -0.1)">
       <defs>
        <path id="DejaVuSans-31" d="M 794 531 
L 1825 531 
L 1825 4091 
L 703 3866 
L 703 4441 
L 1819 4666 
L 2450 4666 
L 2450 531 
L 3481 531 
L 3481 0 
L 794 0 
L 794 531 
z
" transform="scale(0.015625)"/>
       </defs>
       <use xlink:href="#DejaVuSans-31"/>
       <use xlink:href="#DejaVuSans-30" x="63.623047"/>
       <use xlink:href="#DejaVuSans-30" x="127.246094"/>
      </g>
     </g>
    </g>
   </g>
   <g id="matplotlib.axis_2">
    <g id="ytick_1">
     <g id="line2d_7">
      <defs>
       <path id="m0e74d95b5e" d="M 0 0 
L -3.5 0 
" style="stroke: #000000; stroke-width: 0.8"/>
      </defs>
      <g>
       <use xlink:href="#m0e74d95b5e" x="144" y="338.920444" style="stroke: #000000; stroke-width: 0.8"/>
      </g>
     </g>
     <g id="text_7">
      <!-- 0.50 -->
      <g transform="translate(114.734375 342.719663) scale(0.1 -0.1)">
       <defs>
        <path id="DejaVuSans-2e" d="M 684 794 
L 1344 794 
L 1344 0 
L 684 0 
L 684 794 
z
" transform="scale(0.015625)"/>
        <path id="DejaVuSans-35" d="M 691 4666 
L 3169 4666 
L 3169 4134 
L 1269 4134 
L 1269 2991 
Q 1406 3038 1543 3061 
Q 1681 3084 1819 3084 
Q 2600 3084 3056 2656 
Q 3513 2228 3513 1497 
Q 3513 744 3044 326 
Q 2575 -91 1722 -91 
Q 1428 -91 1123 -41 
Q 819 9 494 109 
L 494 744 
Q 775 591 1075 516 
Q 1375 441 1709 441 
Q 2250 441 2565 725 
Q 2881 1009 2881 1497 
Q 2881 1984 2565 2268 
Q 2250 2553 1709 2553 
Q 1456 2553 1204 2497 
Q 953 2441 691 2322 
L 691 4666 
z
" transform="scale(0.015625)"/>
       </defs>
       <use xlink:href="#DejaVuSans-30"/>
       <use xlink:href="#DejaVuSans-2e" x="63.623047"/>
       <use xlink:href="#DejaVuSans-35" x="95.410156"/>
       <use xlink:href="#DejaVuSans-30" x="159.033203"/>
      </g>
     </g>
    </g>
    <g id="ytick_2">
     <g id="line2d_8">
      <g>
       <use xlink:href="#m0e74d95b5e" x="144" y="284.835865" style="stroke: #000000; stroke-width: 0.8"/>
      </g>
     </g>
     <g id="text_8">
      <!-- 0.55 -->
      <g transform="translate(114.734375 288.635084) scale(0.1 -0.1)">
       <use xlink:href="#DejaVuSans-30"/>
       <use xlink:href="#DejaVuSans-2e" x="63.623047"/>
       <use xlink:href="#DejaVuSans-35" x="95.410156"/>
       <use xlink:href="#DejaVuSans-35" x="159.033203"/>
      </g>
     </g>
    </g>
    <g id="ytick_3">
     <g id="line2d_9">
      <g>
       <use xlink:href="#m0e74d95b5e" x="144" y="230.751287" style="stroke: #000000; stroke-width: 0.8"/>
      </g>
     </g>
     <g id="text_9">
      <!-- 0.60 -->
      <g transform="translate(114.734375 234.550505) scale(0.1 -0.1)">
       <use xlink:href="#DejaVuSans-30"/>
       <use xlink:href="#DejaVuSans-2e" x="63.623047"/>
       <use xlink:href="#DejaVuSans-36" x="95.410156"/>
       <use xlink:href="#DejaVuSans-30" x="159.033203"/>
      </g>
     </g>
    </g>
    <g id="ytick_4">
     <g id="line2d_10">
      <g>
       <use xlink:href="#m0e74d95b5e" x="144" y="176.666708" style="stroke: #000000; stroke-width: 0.8"/>
      </g>
     </g>
     <g id="text_10">
      <!-- 0.65 -->
      <g transform="translate(114.734375 180.465927) scale(0.1 -0.1)">
       <use xlink:href="#DejaVuSans-30"/>
       <use xlink:href="#DejaVuSans-2e" x="63.623047"/>
       <use xlink:href="#DejaVuSans-36" x="95.410156"/>
       <use xlink:href="#DejaVuSans-35" x="159.033203"/>
      </g>
     </g>
    </g>
    <g id="ytick_5">
     <g id="line2d_11">
      <g>
       <use xlink:href="#m0e74d95b5e" x="144" y="122.582129" style="stroke: #000000; stroke-width: 0.8"/>
      </g>
     </g>
     <g id="text_11">
      <!-- 0.70 -->
      <g transform="translate(114.734375 126.381348) scale(0.1 -0.1)">
       <defs>
        <path id="DejaVuSans-37" d="M 525 4666 
L 3525 4666 
L 3525 4397 
L 1831 0 
L 1172 0 
L 2766 4134 
L 525 4134 
L 525 4666 
z
" transform="scale(0.015625)"/>
       </defs>
       <use xlink:href="#DejaVuSans-30"/>
       <use xlink:href="#DejaVuSans-2e" x="63.623047"/>
       <use xlink:href="#DejaVuSans-37" x="95.410156"/>
       <use xlink:href="#DejaVuSans-30" x="159.033203"/>
      </g>
     </g>
    </g>
   </g>
   <g id="line2d_12">
    <path d="M 162.446281 317.286613 
L 166.172802 264.403913 
L 169.899324 259.596395 
L 173.625845 264.403913 
L 177.352367 254.788877 
L 181.078888 269.211431 
L 184.805409 278.826468 
L 188.531931 254.788877 
L 192.258452 245.173841 
L 195.984974 245.173841 
L 199.711495 235.558805 
L 203.438017 230.751287 
L 207.164538 230.751287 
L 210.891059 225.943769 
L 214.617581 240.366323 
L 218.344102 230.751287 
L 222.070624 240.366323 
L 225.797145 221.13625 
L 229.523666 211.521214 
L 233.250188 206.713696 
L 236.976709 206.713696 
L 240.703231 211.521214 
L 244.429752 211.521214 
L 248.156273 211.521214 
L 251.882795 187.483624 
L 255.609316 192.291142 
L 259.335838 192.291142 
L 263.062359 201.906178 
L 266.788881 211.521214 
L 270.515402 211.521214 
L 274.241923 197.09866 
L 277.968445 201.906178 
L 281.694966 221.13625 
L 285.421488 216.328732 
L 289.148009 221.13625 
L 292.87453 221.13625 
L 296.601052 221.13625 
L 300.327573 216.328732 
L 304.054095 221.13625 
L 307.780616 211.521214 
L 311.507137 221.13625 
L 315.233659 211.521214 
L 318.96018 211.521214 
L 322.686702 221.13625 
L 326.413223 221.13625 
L 330.139745 206.713696 
L 333.866266 201.906178 
L 337.592787 187.483624 
L 341.319309 201.906178 
L 345.04583 201.906178 
L 348.772352 192.291142 
L 352.498873 187.483624 
L 356.225394 197.09866 
L 359.951916 177.868588 
L 363.678437 177.868588 
L 367.404959 182.676106 
L 371.13148 187.483624 
L 374.858002 182.676106 
L 378.584523 187.483624 
L 382.311044 192.291142 
L 386.037566 201.906178 
L 389.764087 192.291142 
L 393.490609 192.291142 
L 397.21713 192.291142 
L 400.943651 187.483624 
L 404.670173 197.09866 
L 408.396694 192.291142 
L 412.123216 182.676106 
L 415.849737 187.483624 
L 419.576258 192.291142 
L 423.30278 187.483624 
L 427.029301 197.09866 
L 430.755823 187.483624 
L 434.482344 192.291142 
L 438.208866 187.483624 
L 441.935387 182.676106 
L 445.661908 192.291142 
L 449.38843 182.676106 
L 453.114951 197.09866 
L 456.841473 192.291142 
L 460.567994 192.291142 
L 464.294515 197.09866 
L 468.021037 201.906178 
L 471.747558 197.09866 
L 475.47408 201.906178 
L 479.200601 201.906178 
L 482.927122 201.906178 
L 486.653644 201.906178 
L 490.380165 201.906178 
L 494.106687 197.09866 
L 497.833208 197.09866 
L 501.55973 197.09866 
L 505.286251 197.09866 
L 509.012772 197.09866 
L 512.739294 187.483624 
L 516.465815 182.676106 
L 520.192337 187.483624 
L 523.918858 182.676106 
L 527.645379 182.676106 
L 531.371901 177.868588 
" clip-path="url(#p8cf78f7927)" style="fill: none; stroke: #0000ff; stroke-width: 2; stroke-linecap: square"/>
   </g>
   <g id="line2d_13">
    <path d="M 162.446281 379.784348 
L 166.172802 322.094131 
L 169.899324 259.596395 
L 173.625845 298.05654 
L 177.352367 245.173841 
L 181.078888 326.901649 
L 184.805409 307.671576 
L 188.531931 288.441504 
L 192.258452 269.211431 
L 195.984974 269.211431 
L 199.711495 211.521214 
L 203.438017 245.173841 
L 207.164538 254.788877 
L 210.891059 264.403913 
L 214.617581 235.558805 
L 218.344102 225.943769 
L 222.070624 221.13625 
L 225.797145 221.13625 
L 229.523666 221.13625 
L 233.250188 211.521214 
L 236.976709 201.906178 
L 240.703231 230.751287 
L 244.429752 235.558805 
L 248.156273 245.173841 
L 251.882795 153.830997 
L 255.609316 177.868588 
L 259.335838 173.061069 
L 263.062359 201.906178 
L 266.788881 225.943769 
L 270.515402 206.713696 
L 274.241923 197.09866 
L 277.968445 187.483624 
L 281.694966 206.713696 
L 285.421488 211.521214 
L 289.148009 173.061069 
L 292.87453 177.868588 
L 296.601052 177.868588 
L 300.327573 201.906178 
L 304.054095 201.906178 
L 307.780616 201.906178 
L 311.507137 201.906178 
L 315.233659 197.09866 
L 318.96018 216.328732 
L 322.686702 168.253551 
L 326.413223 168.253551 
L 330.139745 173.061069 
L 333.866266 192.291142 
L 337.592787 153.830997 
L 341.319309 249.981359 
L 345.04583 206.713696 
L 348.772352 192.291142 
L 352.498873 182.676106 
L 356.225394 173.061069 
L 359.951916 192.291142 
L 363.678437 206.713696 
L 367.404959 211.521214 
L 371.13148 163.446033 
L 374.858002 173.061069 
L 378.584523 192.291142 
L 382.311044 177.868588 
L 386.037566 168.253551 
L 389.764087 197.09866 
L 393.490609 201.906178 
L 397.21713 182.676106 
L 400.943651 182.676106 
L 404.670173 197.09866 
L 408.396694 182.676106 
L 412.123216 177.868588 
L 415.849737 187.483624 
L 419.576258 173.061069 
L 423.30278 216.328732 
L 427.029301 192.291142 
L 430.755823 177.868588 
L 434.482344 177.868588 
L 438.208866 201.906178 
L 441.935387 168.253551 
L 445.661908 197.09866 
L 449.38843 201.906178 
L 453.114951 168.253551 
L 456.841473 216.328732 
L 460.567994 177.868588 
L 464.294515 168.253551 
L 468.021037 201.906178 
L 471.747558 211.521214 
L 475.47408 230.751287 
L 479.200601 168.253551 
L 482.927122 173.061069 
L 486.653644 173.061069 
L 490.380165 173.061069 
L 494.106687 182.676106 
L 497.833208 197.09866 
L 501.55973 206.713696 
L 505.286251 149.023479 
L 509.012772 149.023479 
L 512.739294 187.483624 
L 516.465815 144.215961 
L 520.192337 168.253551 
L 523.918858 197.09866 
L 527.645379 177.868588 
L 531.371901 197.09866 
" clip-path="url(#p8cf78f7927)" style="fill: none; stroke: #008000; stroke-width: 1.5; stroke-linecap: square"/>
   </g>
   <g id="patch_3">
    <path d="M 144 392.932174 
L 144 103.68 
" style="fill: none; stroke: #000000; stroke-width: 0.8; stroke-linejoin: miter; stroke-linecap: square"/>
   </g>
   <g id="patch_4">
    <path d="M 549.818182 392.932174 
L 549.818182 103.68 
" style="fill: none; stroke: #000000; stroke-width: 0.8; stroke-linejoin: miter; stroke-linecap: square"/>
   </g>
   <g id="patch_5">
    <path d="M 144 392.932174 
L 549.818182 392.932174 
" style="fill: none; stroke: #000000; stroke-width: 0.8; stroke-linejoin: miter; stroke-linecap: square"/>
   </g>
   <g id="patch_6">
    <path d="M 144 103.68 
L 549.818182 103.68 
" style="fill: none; stroke: #000000; stroke-width: 0.8; stroke-linejoin: miter; stroke-linecap: square"/>
   </g>
   <g id="text_12">
    <!-- vs Random Forest -->
    <g transform="translate(293.174403 97.68) scale(0.12 -0.12)">
     <defs>
      <path id="DejaVuSans-76" d="M 191 3500 
L 800 3500 
L 1894 563 
L 2988 3500 
L 3597 3500 
L 2284 0 
L 1503 0 
L 191 3500 
z
" transform="scale(0.015625)"/>
      <path id="DejaVuSans-73" d="M 2834 3397 
L 2834 2853 
Q 2591 2978 2328 3040 
Q 2066 3103 1784 3103 
Q 1356 3103 1142 2972 
Q 928 2841 928 2578 
Q 928 2378 1081 2264 
Q 1234 2150 1697 2047 
L 1894 2003 
Q 2506 1872 2764 1633 
Q 3022 1394 3022 966 
Q 3022 478 2636 193 
Q 2250 -91 1575 -91 
Q 1294 -91 989 -36 
Q 684 19 347 128 
L 347 722 
Q 666 556 975 473 
Q 1284 391 1588 391 
Q 1994 391 2212 530 
Q 2431 669 2431 922 
Q 2431 1156 2273 1281 
Q 2116 1406 1581 1522 
L 1381 1569 
Q 847 1681 609 1914 
Q 372 2147 372 2553 
Q 372 3047 722 3315 
Q 1072 3584 1716 3584 
Q 2034 3584 2315 3537 
Q 2597 3491 2834 3397 
z
" transform="scale(0.015625)"/>
      <path id="DejaVuSans-20" transform="scale(0.015625)"/>
      <path id="DejaVuSans-52" d="M 2841 2188 
Q 3044 2119 3236 1894 
Q 3428 1669 3622 1275 
L 4263 0 
L 3584 0 
L 2988 1197 
Q 2756 1666 2539 1819 
Q 2322 1972 1947 1972 
L 1259 1972 
L 1259 0 
L 628 0 
L 628 4666 
L 2053 4666 
Q 2853 4666 3247 4331 
Q 3641 3997 3641 3322 
Q 3641 2881 3436 2590 
Q 3231 2300 2841 2188 
z
M 1259 4147 
L 1259 2491 
L 2053 2491 
Q 2509 2491 2742 2702 
Q 2975 2913 2975 3322 
Q 2975 3731 2742 3939 
Q 2509 4147 2053 4147 
L 1259 4147 
z
" transform="scale(0.015625)"/>
      <path id="DejaVuSans-61" d="M 2194 1759 
Q 1497 1759 1228 1600 
Q 959 1441 959 1056 
Q 959 750 1161 570 
Q 1363 391 1709 391 
Q 2188 391 2477 730 
Q 2766 1069 2766 1631 
L 2766 1759 
L 2194 1759 
z
M 3341 1997 
L 3341 0 
L 2766 0 
L 2766 531 
Q 2569 213 2275 61 
Q 1981 -91 1556 -91 
Q 1019 -91 701 211 
Q 384 513 384 1019 
Q 384 1609 779 1909 
Q 1175 2209 1959 2209 
L 2766 2209 
L 2766 2266 
Q 2766 2663 2505 2880 
Q 2244 3097 1772 3097 
Q 1472 3097 1187 3025 
Q 903 2953 641 2809 
L 641 3341 
Q 956 3463 1253 3523 
Q 1550 3584 1831 3584 
Q 2591 3584 2966 3190 
Q 3341 2797 3341 1997 
z
" transform="scale(0.015625)"/>
      <path id="DejaVuSans-6e" d="M 3513 2113 
L 3513 0 
L 2938 0 
L 2938 2094 
Q 2938 2591 2744 2837 
Q 2550 3084 2163 3084 
Q 1697 3084 1428 2787 
Q 1159 2491 1159 1978 
L 1159 0 
L 581 0 
L 581 3500 
L 1159 3500 
L 1159 2956 
Q 1366 3272 1645 3428 
Q 1925 3584 2291 3584 
Q 2894 3584 3203 3211 
Q 3513 2838 3513 2113 
z
" transform="scale(0.015625)"/>
      <path id="DejaVuSans-64" d="M 2906 2969 
L 2906 4863 
L 3481 4863 
L 3481 0 
L 2906 0 
L 2906 525 
Q 2725 213 2448 61 
Q 2172 -91 1784 -91 
Q 1150 -91 751 415 
Q 353 922 353 1747 
Q 353 2572 751 3078 
Q 1150 3584 1784 3584 
Q 2172 3584 2448 3432 
Q 2725 3281 2906 2969 
z
M 947 1747 
Q 947 1113 1208 752 
Q 1469 391 1925 391 
Q 2381 391 2643 752 
Q 2906 1113 2906 1747 
Q 2906 2381 2643 2742 
Q 2381 3103 1925 3103 
Q 1469 3103 1208 2742 
Q 947 2381 947 1747 
z
" transform="scale(0.015625)"/>
      <path id="DejaVuSans-6f" d="M 1959 3097 
Q 1497 3097 1228 2736 
Q 959 2375 959 1747 
Q 959 1119 1226 758 
Q 1494 397 1959 397 
Q 2419 397 2687 759 
Q 2956 1122 2956 1747 
Q 2956 2369 2687 2733 
Q 2419 3097 1959 3097 
z
M 1959 3584 
Q 2709 3584 3137 3096 
Q 3566 2609 3566 1747 
Q 3566 888 3137 398 
Q 2709 -91 1959 -91 
Q 1206 -91 779 398 
Q 353 888 353 1747 
Q 353 2609 779 3096 
Q 1206 3584 1959 3584 
z
" transform="scale(0.015625)"/>
      <path id="DejaVuSans-6d" d="M 3328 2828 
Q 3544 3216 3844 3400 
Q 4144 3584 4550 3584 
Q 5097 3584 5394 3201 
Q 5691 2819 5691 2113 
L 5691 0 
L 5113 0 
L 5113 2094 
Q 5113 2597 4934 2840 
Q 4756 3084 4391 3084 
Q 3944 3084 3684 2787 
Q 3425 2491 3425 1978 
L 3425 0 
L 2847 0 
L 2847 2094 
Q 2847 2600 2669 2842 
Q 2491 3084 2119 3084 
Q 1678 3084 1418 2786 
Q 1159 2488 1159 1978 
L 1159 0 
L 581 0 
L 581 3500 
L 1159 3500 
L 1159 2956 
Q 1356 3278 1631 3431 
Q 1906 3584 2284 3584 
Q 2666 3584 2933 3390 
Q 3200 3197 3328 2828 
z
" transform="scale(0.015625)"/>
      <path id="DejaVuSans-46" d="M 628 4666 
L 3309 4666 
L 3309 4134 
L 1259 4134 
L 1259 2759 
L 3109 2759 
L 3109 2228 
L 1259 2228 
L 1259 0 
L 628 0 
L 628 4666 
z
" transform="scale(0.015625)"/>
      <path id="DejaVuSans-72" d="M 2631 2963 
Q 2534 3019 2420 3045 
Q 2306 3072 2169 3072 
Q 1681 3072 1420 2755 
Q 1159 2438 1159 1844 
L 1159 0 
L 581 0 
L 581 3500 
L 1159 3500 
L 1159 2956 
Q 1341 3275 1631 3429 
Q 1922 3584 2338 3584 
Q 2397 3584 2469 3576 
Q 2541 3569 2628 3553 
L 2631 2963 
z
" transform="scale(0.015625)"/>
      <path id="DejaVuSans-65" d="M 3597 1894 
L 3597 1613 
L 953 1613 
Q 991 1019 1311 708 
Q 1631 397 2203 397 
Q 2534 397 2845 478 
Q 3156 559 3463 722 
L 3463 178 
Q 3153 47 2828 -22 
Q 2503 -91 2169 -91 
Q 1331 -91 842 396 
Q 353 884 353 1716 
Q 353 2575 817 3079 
Q 1281 3584 2069 3584 
Q 2775 3584 3186 3129 
Q 3597 2675 3597 1894 
z
M 3022 2063 
Q 3016 2534 2758 2815 
Q 2500 3097 2075 3097 
Q 1594 3097 1305 2825 
Q 1016 2553 972 2059 
L 3022 2063 
z
" transform="scale(0.015625)"/>
      <path id="DejaVuSans-74" d="M 1172 4494 
L 1172 3500 
L 2356 3500 
L 2356 3053 
L 1172 3053 
L 1172 1153 
Q 1172 725 1289 603 
Q 1406 481 1766 481 
L 2356 481 
L 2356 0 
L 1766 0 
Q 1100 0 847 248 
Q 594 497 594 1153 
L 594 3053 
L 172 3053 
L 172 3500 
L 594 3500 
L 594 4494 
L 1172 4494 
z
" transform="scale(0.015625)"/>
     </defs>
     <use xlink:href="#DejaVuSans-76"/>
     <use xlink:href="#DejaVuSans-73" x="59.179688"/>
     <use xlink:href="#DejaVuSans-20" x="111.279297"/>
     <use xlink:href="#DejaVuSans-52" x="143.066406"/>
     <use xlink:href="#DejaVuSans-61" x="210.298828"/>
     <use xlink:href="#DejaVuSans-6e" x="271.578125"/>
     <use xlink:href="#DejaVuSans-64" x="334.957031"/>
     <use xlink:href="#DejaVuSans-6f" x="398.433594"/>
     <use xlink:href="#DejaVuSans-6d" x="459.615234"/>
     <use xlink:href="#DejaVuSans-20" x="557.027344"/>
     <use xlink:href="#DejaVuSans-46" x="588.814453"/>
     <use xlink:href="#DejaVuSans-6f" x="642.708984"/>
     <use xlink:href="#DejaVuSans-72" x="703.890625"/>
     <use xlink:href="#DejaVuSans-65" x="742.753906"/>
     <use xlink:href="#DejaVuSans-73" x="804.277344"/>
     <use xlink:href="#DejaVuSans-74" x="856.376953"/>
    </g>
   </g>
   <g id="legend_1">
    <g id="patch_7">
     <path d="M 458.416932 133.565 
L 544.218182 133.565 
Q 545.818182 133.565 545.818182 131.965 
L 545.818182 109.28 
Q 545.818182 107.68 544.218182 107.68 
L 458.416932 107.68 
Q 456.816932 107.68 456.816932 109.28 
L 456.816932 131.965 
Q 456.816932 133.565 458.416932 133.565 
z
" style="fill: #ffffff; opacity: 0.8; stroke: #cccccc; stroke-linejoin: miter"/>
    </g>
    <g id="line2d_14">
     <path d="M 460.016932 114.15875 
L 468.016932 114.15875 
L 476.016932 114.15875 
" style="fill: none; stroke: #0000ff; stroke-width: 2; stroke-linecap: square"/>
    </g>
    <g id="text_13">
     <!-- Test -->
     <g transform="translate(482.416932 116.95875) scale(0.08 -0.08)">
      <defs>
       <path id="DejaVuSans-54" d="M -19 4666 
L 3928 4666 
L 3928 4134 
L 2272 4134 
L 2272 0 
L 1638 0 
L 1638 4134 
L -19 4134 
L -19 4666 
z
" transform="scale(0.015625)"/>
      </defs>
      <use xlink:href="#DejaVuSans-54"/>
      <use xlink:href="#DejaVuSans-65" x="44.083984"/>
      <use xlink:href="#DejaVuSans-73" x="105.607422"/>
      <use xlink:href="#DejaVuSans-74" x="157.707031"/>
     </g>
    </g>
    <g id="line2d_15">
     <path d="M 460.016932 125.90125 
L 468.016932 125.90125 
L 476.016932 125.90125 
" style="fill: none; stroke: #008000; stroke-width: 1.5; stroke-linecap: square"/>
    </g>
    <g id="text_14">
     <!-- Random Forest -->
     <g transform="translate(482.416932 128.70125) scale(0.08 -0.08)">
      <use xlink:href="#DejaVuSans-52"/>
      <use xlink:href="#DejaVuSans-61" x="67.232422"/>
      <use xlink:href="#DejaVuSans-6e" x="128.511719"/>
      <use xlink:href="#DejaVuSans-64" x="191.890625"/>
      <use xlink:href="#DejaVuSans-6f" x="255.367188"/>
      <use xlink:href="#DejaVuSans-6d" x="316.548828"/>
      <use xlink:href="#DejaVuSans-20" x="413.960938"/>
      <use xlink:href="#DejaVuSans-46" x="445.748047"/>
      <use xlink:href="#DejaVuSans-6f" x="499.642578"/>
      <use xlink:href="#DejaVuSans-72" x="560.824219"/>
      <use xlink:href="#DejaVuSans-65" x="599.6875"/>
      <use xlink:href="#DejaVuSans-73" x="661.210938"/>
      <use xlink:href="#DejaVuSans-74" x="713.310547"/>
     </g>
    </g>
   </g>
  </g>
  <g id="axes_2">
   <g id="patch_8">
    <path d="M 630.981818 392.932174 
L 1036.8 392.932174 
L 1036.8 103.68 
L 630.981818 103.68 
z
" style="fill: #ffffff"/>
   </g>
   <g id="PolyCollection_2">
    <defs>
     <path id="me9e6dd83f9" d="M 649.428099 -560.836171 
L 649.428099 -492.254359 
L 653.154621 -569.782705 
L 656.881142 -533.545111 
L 660.607663 -552.131326 
L 664.334185 -557.916441 
L 668.060706 -546.840124 
L 671.787228 -529.279151 
L 675.513749 -562.713729 
L 679.24027 -592.952546 
L 682.966792 -571.622384 
L 686.693313 -589.515753 
L 690.419835 -587.495989 
L 694.146356 -549.624525 
L 697.872878 -574.697872 
L 701.599399 -545.970176 
L 705.32592 -549.624525 
L 709.052442 -545.970176 
L 712.778963 -605.389357 
L 716.505485 -610.334544 
L 720.232006 -615.625745 
L 723.958527 -608.647175 
L 727.685049 -613.020145 
L 731.41157 -610.334544 
L 735.138092 -635.468812 
L 738.864613 -646.959042 
L 742.591134 -644.318644 
L 746.317656 -644.318644 
L 750.044177 -631.085437 
L 753.770699 -623.153837 
L 757.49722 -623.153837 
L 761.223742 -639.027442 
L 764.950263 -640.57336 
L 768.676784 -602.437741 
L 772.403306 -615.211832 
L 776.129827 -592.77357 
L 779.856349 -592.77357 
L 783.58287 -592.77357 
L 787.309391 -585.817523 
L 791.035913 -554.245642 
L 794.762434 -571.569488 
L 798.488956 -560.987085 
L 802.215477 -576.442328 
L 805.941998 -584.508469 
L 809.66852 -579.989074 
L 813.395041 -579.989074 
L 817.121563 -589.79967 
L 820.848084 -606.803477 
L 824.574606 -624.510375 
L 828.301127 -619.243199 
L 832.027648 -606.803477 
L 835.75417 -618.59987 
L 839.480691 -617.564733 
L 843.207213 -600.382074 
L 846.933734 -634.473475 
L 850.660255 -634.473475 
L 854.386777 -635.103184 
L 858.113298 -610.014118 
L 861.83982 -635.103184 
L 865.566341 -630.525477 
L 869.292863 -618.59987 
L 873.019384 -614.651872 
L 876.745905 -611.736284 
L 880.472427 -611.736284 
L 884.198948 -598.882193 
L 887.92547 -610.014118 
L 891.651991 -606.445082 
L 895.378512 -611.736284 
L 899.105034 -616.255679 
L 902.831555 -617.564733 
L 906.558077 -605.673275 
L 910.284598 -604.603989 
L 914.011119 -600.382074 
L 917.737641 -622.677082 
L 921.464162 -615.047922 
L 925.190684 -624.510375 
L 928.917205 -620.73903 
L 932.643727 -611.736284 
L 936.370248 -620.73903 
L 940.096769 -587.443093 
L 943.823291 -598.882193 
L 947.549812 -598.882193 
L 951.276334 -592.315933 
L 955.002855 -581.371735 
L 958.729376 -587.443093 
L 962.455898 -581.371735 
L 966.182419 -581.371735 
L 969.908941 -581.371735 
L 973.635462 -581.371735 
L 977.361983 -581.371735 
L 981.088505 -592.315933 
L 984.815026 -592.315933 
L 988.541548 -587.443093 
L 992.268069 -587.443093 
L 995.994591 -587.443093 
L 999.721112 -591.643244 
L 1003.447633 -616.255679 
L 1007.174155 -604.603989 
L 1010.900676 -616.255679 
L 1014.627198 -616.255679 
L 1018.353719 -614.755798 
L 1018.353719 -745.224427 
L 1018.353719 -745.224427 
L 1014.627198 -733.142143 
L 1010.900676 -733.142143 
L 1007.174155 -734.21143 
L 1003.447633 -733.142143 
L 999.721112 -747.172174 
L 995.994591 -730.207519 
L 992.268069 -730.207519 
L 988.541548 -730.207519 
L 984.815026 -725.334679 
L 981.088505 -725.334679 
L 977.361983 -725.696474 
L 973.635462 -725.696474 
L 969.908941 -725.696474 
L 966.182419 -725.696474 
L 962.455898 -725.696474 
L 958.729376 -730.207519 
L 955.002855 -725.696474 
L 951.276334 -725.334679 
L 947.549812 -729.350822 
L 943.823291 -729.350822 
L 940.096769 -730.207519 
L 936.370248 -728.658792 
L 932.643727 -716.496731 
L 928.917205 -728.658792 
L 925.190684 -714.305044 
L 921.464162 -713.185093 
L 917.737641 -716.138337 
L 914.011119 -717.268538 
L 910.284598 -734.21143 
L 906.558077 -722.55974 
L 902.831555 -721.250686 
L 899.105034 -733.142143 
L 895.378512 -716.496731 
L 891.651991 -711.20553 
L 887.92547 -728.8013 
L 884.198948 -729.350822 
L 880.472427 -716.496731 
L 876.745905 -716.496731 
L 873.019384 -692.416337 
L 869.292863 -709.633145 
L 865.566341 -708.289942 
L 861.83982 -714.294638 
L 858.113298 -728.8013 
L 854.386777 -714.294638 
L 850.660255 -725.50675 
L 846.933734 -725.50675 
L 843.207213 -717.268538 
L 839.480691 -721.250686 
L 835.75417 -709.633145 
L 832.027648 -700.264732 
L 828.301127 -687.82501 
L 824.574606 -714.305044 
L 820.848084 -700.264732 
L 817.121563 -706.686135 
L 813.395041 -684.749522 
L 809.66852 -684.749522 
L 805.941998 -701.394933 
L 802.215477 -709.461074 
L 798.488956 -703.75151 
L 794.762434 -714.333914 
L 791.035913 -710.492954 
L 787.309391 -689.503476 
L 783.58287 -671.965025 
L 779.856349 -671.965025 
L 776.129827 -671.965025 
L 772.403306 -660.109167 
L 768.676784 -662.300854 
L 764.950263 -666.494848 
L 761.223742 -678.62317 
L 757.49722 -662.749565 
L 753.770699 -662.749565 
L 750.044177 -675.982772 
L 746.317656 -683.914371 
L 742.591134 -683.914371 
L 738.864613 -691.856377 
L 735.138092 -650.43459 
L 731.41157 -675.568858 
L 727.685049 -672.883257 
L 723.958527 -687.83863 
L 720.232006 -680.86006 
L 716.505485 -675.568858 
L 712.778963 -659.349238 
L 709.052442 -676.438806 
L 705.32592 -693.949264 
L 701.599399 -676.438806 
L 697.872878 -679.45832 
L 694.146356 -693.949264 
L 690.419835 -656.0778 
L 686.693313 -643.475633 
L 682.966792 -640.204195 
L 679.24027 -618.874034 
L 675.513749 -627.948044 
L 671.787228 -608.470606 
L 668.060706 -612.074439 
L 664.334185 -632.745332 
L 660.607663 -617.365641 
L 656.881142 -646.534259 
L 653.154621 -599.714261 
L 649.428099 -560.836171 
z
" style="stroke: #0000ff; stroke-opacity: 0.15"/>
    </defs>
    <g clip-path="url(#p3b9a3c57df)">
     <use xlink:href="#me9e6dd83f9" x="0" y="864" style="fill: #0000ff; fill-opacity: 0.15; stroke: #0000ff; stroke-opacity: 0.15"/>
    </g>
   </g>
   <g id="matplotlib.axis_3">
    <g id="xtick_7">
     <g id="line2d_16">
      <g>
       <use xlink:href="#m4c53ade891" x="649.428099" y="392.932174" style="stroke: #000000; stroke-width: 0.8"/>
      </g>
     </g>
     <g id="text_15">
      <!-- 0 -->
      <g transform="translate(646.246849 407.530611) scale(0.1 -0.1)">
       <use xlink:href="#DejaVuSans-30"/>
      </g>
     </g>
    </g>
    <g id="xtick_8">
     <g id="line2d_17">
      <g>
       <use xlink:href="#m4c53ade891" x="723.958527" y="392.932174" style="stroke: #000000; stroke-width: 0.8"/>
      </g>
     </g>
     <g id="text_16">
      <!-- 20 -->
      <g transform="translate(717.596027 407.530611) scale(0.1 -0.1)">
       <use xlink:href="#DejaVuSans-32"/>
       <use xlink:href="#DejaVuSans-30" x="63.623047"/>
      </g>
     </g>
    </g>
    <g id="xtick_9">
     <g id="line2d_18">
      <g>
       <use xlink:href="#m4c53ade891" x="798.488956" y="392.932174" style="stroke: #000000; stroke-width: 0.8"/>
      </g>
     </g>
     <g id="text_17">
      <!-- 40 -->
      <g transform="translate(792.126456 407.530611) scale(0.1 -0.1)">
       <use xlink:href="#DejaVuSans-34"/>
       <use xlink:href="#DejaVuSans-30" x="63.623047"/>
      </g>
     </g>
    </g>
    <g id="xtick_10">
     <g id="line2d_19">
      <g>
       <use xlink:href="#m4c53ade891" x="873.019384" y="392.932174" style="stroke: #000000; stroke-width: 0.8"/>
      </g>
     </g>
     <g id="text_18">
      <!-- 60 -->
      <g transform="translate(866.656884 407.530611) scale(0.1 -0.1)">
       <use xlink:href="#DejaVuSans-36"/>
       <use xlink:href="#DejaVuSans-30" x="63.623047"/>
      </g>
     </g>
    </g>
    <g id="xtick_11">
     <g id="line2d_20">
      <g>
       <use xlink:href="#m4c53ade891" x="947.549812" y="392.932174" style="stroke: #000000; stroke-width: 0.8"/>
      </g>
     </g>
     <g id="text_19">
      <!-- 80 -->
      <g transform="translate(941.187312 407.530611) scale(0.1 -0.1)">
       <use xlink:href="#DejaVuSans-38"/>
       <use xlink:href="#DejaVuSans-30" x="63.623047"/>
      </g>
     </g>
    </g>
    <g id="xtick_12">
     <g id="line2d_21">
      <g>
       <use xlink:href="#m4c53ade891" x="1022.08024" y="392.932174" style="stroke: #000000; stroke-width: 0.8"/>
      </g>
     </g>
     <g id="text_20">
      <!-- 100 -->
      <g transform="translate(1012.53649 407.530611) scale(0.1 -0.1)">
       <use xlink:href="#DejaVuSans-31"/>
       <use xlink:href="#DejaVuSans-30" x="63.623047"/>
       <use xlink:href="#DejaVuSans-30" x="127.246094"/>
      </g>
     </g>
    </g>
   </g>
   <g id="matplotlib.axis_4">
    <g id="ytick_6">
     <g id="line2d_22">
      <g>
       <use xlink:href="#m0e74d95b5e" x="630.981818" y="361.265142" style="stroke: #000000; stroke-width: 0.8"/>
      </g>
     </g>
     <g id="text_21">
      <!-- 0.50 -->
      <g transform="translate(601.716193 365.064361) scale(0.1 -0.1)">
       <use xlink:href="#DejaVuSans-30"/>
       <use xlink:href="#DejaVuSans-2e" x="63.623047"/>
       <use xlink:href="#DejaVuSans-35" x="95.410156"/>
       <use xlink:href="#DejaVuSans-30" x="159.033203"/>
      </g>
     </g>
    </g>
    <g id="ytick_7">
     <g id="line2d_23">
      <g>
       <use xlink:href="#m0e74d95b5e" x="630.981818" y="301.739124" style="stroke: #000000; stroke-width: 0.8"/>
      </g>
     </g>
     <g id="text_22">
      <!-- 0.55 -->
      <g transform="translate(601.716193 305.538343) scale(0.1 -0.1)">
       <use xlink:href="#DejaVuSans-30"/>
       <use xlink:href="#DejaVuSans-2e" x="63.623047"/>
       <use xlink:href="#DejaVuSans-35" x="95.410156"/>
       <use xlink:href="#DejaVuSans-35" x="159.033203"/>
      </g>
     </g>
    </g>
    <g id="ytick_8">
     <g id="line2d_24">
      <g>
       <use xlink:href="#m0e74d95b5e" x="630.981818" y="242.213105" style="stroke: #000000; stroke-width: 0.8"/>
      </g>
     </g>
     <g id="text_23">
      <!-- 0.60 -->
      <g transform="translate(601.716193 246.012324) scale(0.1 -0.1)">
       <use xlink:href="#DejaVuSans-30"/>
       <use xlink:href="#DejaVuSans-2e" x="63.623047"/>
       <use xlink:href="#DejaVuSans-36" x="95.410156"/>
       <use xlink:href="#DejaVuSans-30" x="159.033203"/>
      </g>
     </g>
    </g>
    <g id="ytick_9">
     <g id="line2d_25">
      <g>
       <use xlink:href="#m0e74d95b5e" x="630.981818" y="182.687087" style="stroke: #000000; stroke-width: 0.8"/>
      </g>
     </g>
     <g id="text_24">
      <!-- 0.65 -->
      <g transform="translate(601.716193 186.486306) scale(0.1 -0.1)">
       <use xlink:href="#DejaVuSans-30"/>
       <use xlink:href="#DejaVuSans-2e" x="63.623047"/>
       <use xlink:href="#DejaVuSans-36" x="95.410156"/>
       <use xlink:href="#DejaVuSans-35" x="159.033203"/>
      </g>
     </g>
    </g>
    <g id="ytick_10">
     <g id="line2d_26">
      <g>
       <use xlink:href="#m0e74d95b5e" x="630.981818" y="123.161069" style="stroke: #000000; stroke-width: 0.8"/>
      </g>
     </g>
     <g id="text_25">
      <!-- 0.70 -->
      <g transform="translate(601.716193 126.960288) scale(0.1 -0.1)">
       <use xlink:href="#DejaVuSans-30"/>
       <use xlink:href="#DejaVuSans-2e" x="63.623047"/>
       <use xlink:href="#DejaVuSans-37" x="95.410156"/>
       <use xlink:href="#DejaVuSans-30" x="159.033203"/>
      </g>
     </g>
    </g>
   </g>
   <g id="line2d_27">
    <path d="M 649.428099 337.454735 
L 653.154621 279.251517 
L 656.881142 273.960315 
L 660.607663 279.251517 
L 664.334185 268.669114 
L 668.060706 284.542718 
L 671.787228 295.125122 
L 675.513749 268.669114 
L 679.24027 258.08671 
L 682.966792 258.08671 
L 686.693313 247.504307 
L 690.419835 242.213105 
L 694.146356 242.213105 
L 697.872878 236.921904 
L 701.599399 252.795509 
L 705.32592 242.213105 
L 709.052442 252.795509 
L 712.778963 231.630702 
L 716.505485 221.048299 
L 720.232006 215.757097 
L 723.958527 215.757097 
L 727.685049 221.048299 
L 731.41157 221.048299 
L 735.138092 221.048299 
L 738.864613 194.592291 
L 742.591134 199.883492 
L 746.317656 199.883492 
L 750.044177 210.465896 
L 753.770699 221.048299 
L 757.49722 221.048299 
L 761.223742 205.174694 
L 764.950263 210.465896 
L 768.676784 231.630702 
L 772.403306 226.339501 
L 776.129827 231.630702 
L 779.856349 231.630702 
L 783.58287 231.630702 
L 787.309391 226.339501 
L 791.035913 231.630702 
L 794.762434 221.048299 
L 798.488956 231.630702 
L 802.215477 221.048299 
L 805.941998 221.048299 
L 809.66852 231.630702 
L 813.395041 231.630702 
L 817.121563 215.757097 
L 820.848084 210.465896 
L 824.574606 194.592291 
L 828.301127 210.465896 
L 832.027648 210.465896 
L 835.75417 199.883492 
L 839.480691 194.592291 
L 843.207213 205.174694 
L 846.933734 184.009888 
L 850.660255 184.009888 
L 854.386777 189.301089 
L 858.113298 194.592291 
L 861.83982 189.301089 
L 865.566341 194.592291 
L 869.292863 199.883492 
L 873.019384 210.465896 
L 876.745905 199.883492 
L 880.472427 199.883492 
L 884.198948 199.883492 
L 887.92547 194.592291 
L 891.651991 205.174694 
L 895.378512 199.883492 
L 899.105034 189.301089 
L 902.831555 194.592291 
L 906.558077 199.883492 
L 910.284598 194.592291 
L 914.011119 205.174694 
L 917.737641 194.592291 
L 921.464162 199.883492 
L 925.190684 194.592291 
L 928.917205 189.301089 
L 932.643727 199.883492 
L 936.370248 189.301089 
L 940.096769 205.174694 
L 943.823291 199.883492 
L 947.549812 199.883492 
L 951.276334 205.174694 
L 955.002855 210.465896 
L 958.729376 205.174694 
L 962.455898 210.465896 
L 966.182419 210.465896 
L 969.908941 210.465896 
L 973.635462 210.465896 
L 977.361983 210.465896 
L 981.088505 205.174694 
L 984.815026 205.174694 
L 988.541548 205.174694 
L 992.268069 205.174694 
L 995.994591 205.174694 
L 999.721112 194.592291 
L 1003.447633 189.301089 
L 1007.174155 194.592291 
L 1010.900676 189.301089 
L 1014.627198 189.301089 
L 1018.353719 184.009888 
" clip-path="url(#p3b9a3c57df)" style="fill: none; stroke: #0000ff; stroke-width: 2; stroke-linecap: square"/>
   </g>
   <g id="line2d_28">
    <path d="M 649.428099 379.784348 
L 653.154621 363.910743 
L 656.881142 348.037138 
L 660.607663 374.493146 
L 664.334185 337.454735 
L 668.060706 379.784348 
L 671.787228 353.32834 
L 675.513749 332.163533 
L 679.24027 353.32834 
L 682.966792 326.872332 
L 686.693313 326.872332 
L 690.419835 321.58113 
L 694.146356 295.125122 
L 697.872878 337.454735 
L 701.599399 321.58113 
L 705.32592 305.707525 
L 709.052442 316.289928 
L 712.778963 369.201945 
L 716.505485 316.289928 
L 720.232006 316.289928 
L 723.958527 321.58113 
L 727.685049 321.58113 
L 731.41157 353.32834 
L 735.138092 284.542718 
L 738.864613 231.630702 
L 742.591134 258.08671 
L 746.317656 247.504307 
L 750.044177 236.921904 
L 753.770699 273.960315 
L 757.49722 273.960315 
L 761.223742 305.707525 
L 764.950263 258.08671 
L 768.676784 273.960315 
L 772.403306 252.795509 
L 776.129827 247.504307 
L 779.856349 310.998727 
L 783.58287 310.998727 
L 787.309391 247.504307 
L 791.035913 247.504307 
L 794.762434 252.795509 
L 798.488956 252.795509 
L 802.215477 258.08671 
L 805.941998 242.213105 
L 809.66852 226.339501 
L 813.395041 226.339501 
L 817.121563 221.048299 
L 820.848084 210.465896 
L 824.574606 194.592291 
L 828.301127 215.757097 
L 832.027648 247.504307 
L 835.75417 242.213105 
L 839.480691 236.921904 
L 843.207213 231.630702 
L 846.933734 258.08671 
L 850.660255 231.630702 
L 854.386777 242.213105 
L 858.113298 205.174694 
L 861.83982 231.630702 
L 865.566341 231.630702 
L 869.292863 215.757097 
L 873.019384 226.339501 
L 876.745905 226.339501 
L 880.472427 231.630702 
L 884.198948 226.339501 
L 887.92547 205.174694 
L 891.651991 231.630702 
L 895.378512 210.465896 
L 899.105034 215.757097 
L 902.831555 199.883492 
L 906.558077 221.048299 
L 910.284598 236.921904 
L 914.011119 215.757097 
L 917.737641 268.669114 
L 921.464162 268.669114 
L 925.190684 242.213105 
L 928.917205 226.339501 
L 932.643727 242.213105 
L 936.370248 258.08671 
L 940.096769 252.795509 
L 943.823291 236.921904 
L 947.549812 231.630702 
L 951.276334 226.339501 
L 955.002855 226.339501 
L 958.729376 236.921904 
L 962.455898 215.757097 
L 966.182419 189.301089 
L 969.908941 189.301089 
L 973.635462 189.301089 
L 977.361983 189.301089 
L 981.088505 189.301089 
L 984.815026 210.465896 
L 988.541548 210.465896 
L 992.268069 194.592291 
L 995.994591 194.592291 
L 999.721112 178.718686 
L 1003.447633 178.718686 
L 1007.174155 168.136283 
L 1010.900676 210.465896 
L 1014.627198 236.921904 
L 1018.353719 236.921904 
" clip-path="url(#p3b9a3c57df)" style="fill: none; stroke: #ff0000; stroke-width: 1.5; stroke-linecap: square"/>
   </g>
   <g id="patch_9">
    <path d="M 630.981818 392.932174 
L 630.981818 103.68 
" style="fill: none; stroke: #000000; stroke-width: 0.8; stroke-linejoin: miter; stroke-linecap: square"/>
   </g>
   <g id="patch_10">
    <path d="M 1036.8 392.932174 
L 1036.8 103.68 
" style="fill: none; stroke: #000000; stroke-width: 0.8; stroke-linejoin: miter; stroke-linecap: square"/>
   </g>
   <g id="patch_11">
    <path d="M 630.981818 392.932174 
L 1036.8 392.932174 
" style="fill: none; stroke: #000000; stroke-width: 0.8; stroke-linejoin: miter; stroke-linecap: square"/>
   </g>
   <g id="patch_12">
    <path d="M 630.981818 103.68 
L 1036.8 103.68 
" style="fill: none; stroke: #000000; stroke-width: 0.8; stroke-linejoin: miter; stroke-linecap: square"/>
   </g>
   <g id="text_26">
    <!-- vs Gradient Boosting -->
    <g transform="translate(771.069972 97.68) scale(0.12 -0.12)">
     <defs>
      <path id="DejaVuSans-47" d="M 3809 666 
L 3809 1919 
L 2778 1919 
L 2778 2438 
L 4434 2438 
L 4434 434 
Q 4069 175 3628 42 
Q 3188 -91 2688 -91 
Q 1594 -91 976 548 
Q 359 1188 359 2328 
Q 359 3472 976 4111 
Q 1594 4750 2688 4750 
Q 3144 4750 3555 4637 
Q 3966 4525 4313 4306 
L 4313 3634 
Q 3963 3931 3569 4081 
Q 3175 4231 2741 4231 
Q 1884 4231 1454 3753 
Q 1025 3275 1025 2328 
Q 1025 1384 1454 906 
Q 1884 428 2741 428 
Q 3075 428 3337 486 
Q 3600 544 3809 666 
z
" transform="scale(0.015625)"/>
      <path id="DejaVuSans-69" d="M 603 3500 
L 1178 3500 
L 1178 0 
L 603 0 
L 603 3500 
z
M 603 4863 
L 1178 4863 
L 1178 4134 
L 603 4134 
L 603 4863 
z
" transform="scale(0.015625)"/>
      <path id="DejaVuSans-42" d="M 1259 2228 
L 1259 519 
L 2272 519 
Q 2781 519 3026 730 
Q 3272 941 3272 1375 
Q 3272 1813 3026 2020 
Q 2781 2228 2272 2228 
L 1259 2228 
z
M 1259 4147 
L 1259 2741 
L 2194 2741 
Q 2656 2741 2882 2914 
Q 3109 3088 3109 3444 
Q 3109 3797 2882 3972 
Q 2656 4147 2194 4147 
L 1259 4147 
z
M 628 4666 
L 2241 4666 
Q 2963 4666 3353 4366 
Q 3744 4066 3744 3513 
Q 3744 3084 3544 2831 
Q 3344 2578 2956 2516 
Q 3422 2416 3680 2098 
Q 3938 1781 3938 1306 
Q 3938 681 3513 340 
Q 3088 0 2303 0 
L 628 0 
L 628 4666 
z
" transform="scale(0.015625)"/>
      <path id="DejaVuSans-67" d="M 2906 1791 
Q 2906 2416 2648 2759 
Q 2391 3103 1925 3103 
Q 1463 3103 1205 2759 
Q 947 2416 947 1791 
Q 947 1169 1205 825 
Q 1463 481 1925 481 
Q 2391 481 2648 825 
Q 2906 1169 2906 1791 
z
M 3481 434 
Q 3481 -459 3084 -895 
Q 2688 -1331 1869 -1331 
Q 1566 -1331 1297 -1286 
Q 1028 -1241 775 -1147 
L 775 -588 
Q 1028 -725 1275 -790 
Q 1522 -856 1778 -856 
Q 2344 -856 2625 -561 
Q 2906 -266 2906 331 
L 2906 616 
Q 2728 306 2450 153 
Q 2172 0 1784 0 
Q 1141 0 747 490 
Q 353 981 353 1791 
Q 353 2603 747 3093 
Q 1141 3584 1784 3584 
Q 2172 3584 2450 3431 
Q 2728 3278 2906 2969 
L 2906 3500 
L 3481 3500 
L 3481 434 
z
" transform="scale(0.015625)"/>
     </defs>
     <use xlink:href="#DejaVuSans-76"/>
     <use xlink:href="#DejaVuSans-73" x="59.179688"/>
     <use xlink:href="#DejaVuSans-20" x="111.279297"/>
     <use xlink:href="#DejaVuSans-47" x="143.066406"/>
     <use xlink:href="#DejaVuSans-72" x="220.556641"/>
     <use xlink:href="#DejaVuSans-61" x="261.669922"/>
     <use xlink:href="#DejaVuSans-64" x="322.949219"/>
     <use xlink:href="#DejaVuSans-69" x="386.425781"/>
     <use xlink:href="#DejaVuSans-65" x="414.208984"/>
     <use xlink:href="#DejaVuSans-6e" x="475.732422"/>
     <use xlink:href="#DejaVuSans-74" x="539.111328"/>
     <use xlink:href="#DejaVuSans-20" x="578.320312"/>
     <use xlink:href="#DejaVuSans-42" x="610.107422"/>
     <use xlink:href="#DejaVuSans-6f" x="678.710938"/>
     <use xlink:href="#DejaVuSans-6f" x="739.892578"/>
     <use xlink:href="#DejaVuSans-73" x="801.074219"/>
     <use xlink:href="#DejaVuSans-74" x="853.173828"/>
     <use xlink:href="#DejaVuSans-69" x="892.382812"/>
     <use xlink:href="#DejaVuSans-6e" x="920.166016"/>
     <use xlink:href="#DejaVuSans-67" x="983.544922"/>
    </g>
   </g>
   <g id="legend_2">
    <g id="patch_13">
     <path d="M 933.28375 133.565 
L 1031.2 133.565 
Q 1032.8 133.565 1032.8 131.965 
L 1032.8 109.28 
Q 1032.8 107.68 1031.2 107.68 
L 933.28375 107.68 
Q 931.68375 107.68 931.68375 109.28 
L 931.68375 131.965 
Q 931.68375 133.565 933.28375 133.565 
z
" style="fill: #ffffff; opacity: 0.8; stroke: #cccccc; stroke-linejoin: miter"/>
    </g>
    <g id="line2d_29">
     <path d="M 934.88375 114.15875 
L 942.88375 114.15875 
L 950.88375 114.15875 
" style="fill: none; stroke: #0000ff; stroke-width: 2; stroke-linecap: square"/>
    </g>
    <g id="text_27">
     <!-- Test -->
     <g transform="translate(957.28375 116.95875) scale(0.08 -0.08)">
      <use xlink:href="#DejaVuSans-54"/>
      <use xlink:href="#DejaVuSans-65" x="44.083984"/>
      <use xlink:href="#DejaVuSans-73" x="105.607422"/>
      <use xlink:href="#DejaVuSans-74" x="157.707031"/>
     </g>
    </g>
    <g id="line2d_30">
     <path d="M 934.88375 125.90125 
L 942.88375 125.90125 
L 950.88375 125.90125 
" style="fill: none; stroke: #ff0000; stroke-width: 1.5; stroke-linecap: square"/>
    </g>
    <g id="text_28">
     <!-- Gradient Boosting -->
     <g transform="translate(957.28375 128.70125) scale(0.08 -0.08)">
      <use xlink:href="#DejaVuSans-47"/>
      <use xlink:href="#DejaVuSans-72" x="77.490234"/>
      <use xlink:href="#DejaVuSans-61" x="118.603516"/>
      <use xlink:href="#DejaVuSans-64" x="179.882812"/>
      <use xlink:href="#DejaVuSans-69" x="243.359375"/>
      <use xlink:href="#DejaVuSans-65" x="271.142578"/>
      <use xlink:href="#DejaVuSans-6e" x="332.666016"/>
      <use xlink:href="#DejaVuSans-74" x="396.044922"/>
      <use xlink:href="#DejaVuSans-20" x="435.253906"/>
      <use xlink:href="#DejaVuSans-42" x="467.041016"/>
      <use xlink:href="#DejaVuSans-6f" x="535.644531"/>
      <use xlink:href="#DejaVuSans-6f" x="596.826172"/>
      <use xlink:href="#DejaVuSans-73" x="658.007812"/>
      <use xlink:href="#DejaVuSans-74" x="710.107422"/>
      <use xlink:href="#DejaVuSans-69" x="749.316406"/>
      <use xlink:href="#DejaVuSans-6e" x="777.099609"/>
      <use xlink:href="#DejaVuSans-67" x="840.478516"/>
     </g>
    </g>
   </g>
  </g>
  <g id="axes_3">
   <g id="patch_14">
    <path d="M 144 768.96 
L 549.818182 768.96 
L 549.818182 479.707826 
L 144 479.707826 
z
" style="fill: #ffffff"/>
   </g>
   <g id="PolyCollection_3">
    <defs>
     <path id="m1b852d477d" d="M 162.446281 -178.932331 
L 162.446281 -108.187826 
L 166.172802 -188.16099 
L 169.899324 -150.780661 
L 173.625845 -169.952983 
L 177.352367 -175.920529 
L 181.078888 -164.494926 
L 184.805409 -146.380176 
L 188.531931 -180.869097 
L 192.258452 -212.06148 
L 195.984974 -190.058682 
L 199.711495 -208.516309 
L 203.438017 -206.432853 
L 207.164538 -167.367132 
L 210.891059 -193.231154 
L 214.617581 -163.597545 
L 218.344102 -167.367132 
L 222.070624 -163.597545 
L 225.797145 -224.89048 
L 229.523666 -229.991611 
L 233.250188 -235.449668 
L 236.976709 -228.251032 
L 240.703231 -232.761901 
L 244.429752 -229.991611 
L 248.156273 -255.918476 
L 251.882795 -267.771044 
L 255.609316 -265.047383 
L 259.335838 -265.047383 
L 263.062359 -251.396873 
L 266.788881 -243.215154 
L 270.515402 -243.215154 
L 274.241923 -259.589326 
L 277.968445 -261.183993 
L 281.694966 -221.845786 
L 285.421488 -235.022702 
L 289.148009 -211.876861 
L 292.87453 -211.876861 
L 296.601052 -211.876861 
L 300.327573 -204.701458 
L 304.054095 -172.133973 
L 307.780616 -190.004118 
L 311.507137 -179.088004 
L 315.233659 -195.03062 
L 318.96018 -203.351123 
L 322.686702 -198.689212 
L 326.413223 -198.689212 
L 330.139745 -208.80918 
L 333.866266 -226.349193 
L 337.592787 -244.614469 
L 341.319309 -239.181195 
L 345.04583 -226.349193 
L 348.772352 -238.51758 
L 352.498873 -237.4498 
L 356.225394 -219.725294 
L 359.951916 -254.891751 
L 363.678437 -254.891751 
L 367.404959 -255.541317 
L 371.13148 -229.661081 
L 374.858002 -255.541317 
L 378.584523 -250.819255 
L 382.311044 -238.51758 
L 386.037566 -234.445084 
L 389.764087 -231.437554 
L 393.490609 -231.437554 
L 397.21713 -218.178115 
L 400.943651 -229.661081 
L 404.670173 -225.979497 
L 408.396694 -231.437554 
L 412.123216 -236.099466 
L 415.849737 -237.4498 
L 419.576258 -225.183351 
L 423.30278 -224.080345 
L 427.029301 -219.725294 
L 430.755823 -242.723364 
L 434.482344 -234.853623 
L 438.208866 -244.614469 
L 441.935387 -240.724197 
L 445.661908 -231.437554 
L 449.38843 -240.724197 
L 453.114951 -206.37829 
L 456.841473 -218.178115 
L 460.567994 -218.178115 
L 464.294515 -211.404792 
L 468.021037 -200.115474 
L 471.747558 -206.37829 
L 475.47408 -200.115474 
L 479.200601 -200.115474 
L 482.927122 -200.115474 
L 486.653644 -200.115474 
L 490.380165 -200.115474 
L 494.106687 -211.404792 
L 497.833208 -211.404792 
L 501.55973 -206.37829 
L 505.286251 -206.37829 
L 509.012772 -206.37829 
L 512.739294 -210.71089 
L 516.465815 -236.099466 
L 520.192337 -224.080345 
L 523.918858 -236.099466 
L 527.645379 -236.099466 
L 531.371901 -234.552287 
L 531.371901 -369.13518 
L 531.371901 -369.13518 
L 527.645379 -356.671887 
L 523.918858 -356.671887 
L 520.192337 -357.774893 
L 516.465815 -356.671887 
L 512.739294 -371.144348 
L 509.012772 -353.64472 
L 505.286251 -353.64472 
L 501.55973 -353.64472 
L 497.833208 -348.618218 
L 494.106687 -348.618218 
L 490.380165 -348.991422 
L 486.653644 -348.991422 
L 482.927122 -348.991422 
L 479.200601 -348.991422 
L 475.47408 -348.991422 
L 471.747558 -353.64472 
L 468.021037 -348.991422 
L 464.294515 -348.618218 
L 460.567994 -352.761009 
L 456.841473 -352.761009 
L 453.114951 -353.64472 
L 449.38843 -352.047155 
L 445.661908 -339.50157 
L 441.935387 -352.047155 
L 438.208866 -337.240769 
L 434.482344 -336.085501 
L 430.755823 -339.131874 
L 427.029301 -340.297716 
L 423.30278 -357.774893 
L 419.576258 -345.755773 
L 415.849737 -344.405438 
L 412.123216 -356.671887 
L 408.396694 -339.50157 
L 404.670173 -334.043513 
L 400.943651 -352.194158 
L 397.21713 -352.761009 
L 393.490609 -339.50157 
L 389.764087 -339.50157 
L 386.037566 -314.661812 
L 382.311044 -332.421544 
L 378.584523 -331.035983 
L 374.858002 -337.230035 
L 371.13148 -352.194158 
L 367.404959 -337.230035 
L 363.678437 -348.795715 
L 359.951916 -348.795715 
L 356.225394 -340.297716 
L 352.498873 -344.405438 
L 348.772352 -332.421544 
L 345.04583 -322.757703 
L 341.319309 -309.9257 
L 337.592787 -337.240769 
L 333.866266 -322.757703 
L 330.139745 -329.381602 
L 326.413223 -306.753228 
L 322.686702 -306.753228 
L 318.96018 -323.923545 
L 315.233659 -332.244047 
L 311.507137 -326.354435 
L 307.780616 -337.270549 
L 304.054095 -333.308466 
L 300.327573 -311.657096 
L 296.601052 -293.565579 
L 292.87453 -293.565579 
L 289.148009 -293.565579 
L 285.421488 -281.335852 
L 281.694966 -283.596653 
L 277.968445 -287.922903 
L 274.241923 -300.433685 
L 270.515402 -284.059513 
L 266.788881 -284.059513 
L 263.062359 -297.710023 
L 259.335838 -305.891742 
L 255.609316 -305.891742 
L 251.882795 -314.084194 
L 248.156273 -271.356192 
L 244.429752 -297.283057 
L 240.703231 -294.512767 
L 236.976709 -309.93975 
L 233.250188 -302.741114 
L 229.523666 -297.283057 
L 225.797145 -280.551959 
L 222.070624 -298.180438 
L 218.344102 -316.24308 
L 214.617581 -298.180438 
L 210.891059 -301.295171 
L 207.164538 -316.24308 
L 203.438017 -277.177358 
L 199.711495 -264.177788 
L 195.984974 -260.803187 
L 192.258452 -238.800389 
L 188.531931 -248.160544 
L 184.805409 -228.068894 
L 181.078888 -231.786373 
L 177.352367 -253.109112 
L 173.625845 -237.24443 
L 169.899324 -267.332866 
L 166.172802 -219.036423 
L 162.446281 -178.932331 
z
" style="stroke: #0000ff; stroke-opacity: 0.15"/>
    </defs>
    <g clip-path="url(#p2336504927)">
     <use xlink:href="#m1b852d477d" x="0" y="864" style="fill: #0000ff; fill-opacity: 0.15; stroke: #0000ff; stroke-opacity: 0.15"/>
    </g>
   </g>
   <g id="matplotlib.axis_5">
    <g id="xtick_13">
     <g id="line2d_31">
      <g>
       <use xlink:href="#m4c53ade891" x="162.446281" y="768.96" style="stroke: #000000; stroke-width: 0.8"/>
      </g>
     </g>
     <g id="text_29">
      <!-- 0 -->
      <g transform="translate(159.265031 783.558437) scale(0.1 -0.1)">
       <use xlink:href="#DejaVuSans-30"/>
      </g>
     </g>
    </g>
    <g id="xtick_14">
     <g id="line2d_32">
      <g>
       <use xlink:href="#m4c53ade891" x="236.976709" y="768.96" style="stroke: #000000; stroke-width: 0.8"/>
      </g>
     </g>
     <g id="text_30">
      <!-- 20 -->
      <g transform="translate(230.614209 783.558437) scale(0.1 -0.1)">
       <use xlink:href="#DejaVuSans-32"/>
       <use xlink:href="#DejaVuSans-30" x="63.623047"/>
      </g>
     </g>
    </g>
    <g id="xtick_15">
     <g id="line2d_33">
      <g>
       <use xlink:href="#m4c53ade891" x="311.507137" y="768.96" style="stroke: #000000; stroke-width: 0.8"/>
      </g>
     </g>
     <g id="text_31">
      <!-- 40 -->
      <g transform="translate(305.144637 783.558437) scale(0.1 -0.1)">
       <use xlink:href="#DejaVuSans-34"/>
       <use xlink:href="#DejaVuSans-30" x="63.623047"/>
      </g>
     </g>
    </g>
    <g id="xtick_16">
     <g id="line2d_34">
      <g>
       <use xlink:href="#m4c53ade891" x="386.037566" y="768.96" style="stroke: #000000; stroke-width: 0.8"/>
      </g>
     </g>
     <g id="text_32">
      <!-- 60 -->
      <g transform="translate(379.675066 783.558437) scale(0.1 -0.1)">
       <use xlink:href="#DejaVuSans-36"/>
       <use xlink:href="#DejaVuSans-30" x="63.623047"/>
      </g>
     </g>
    </g>
    <g id="xtick_17">
     <g id="line2d_35">
      <g>
       <use xlink:href="#m4c53ade891" x="460.567994" y="768.96" style="stroke: #000000; stroke-width: 0.8"/>
      </g>
     </g>
     <g id="text_33">
      <!-- 80 -->
      <g transform="translate(454.205494 783.558437) scale(0.1 -0.1)">
       <use xlink:href="#DejaVuSans-38"/>
       <use xlink:href="#DejaVuSans-30" x="63.623047"/>
      </g>
     </g>
    </g>
    <g id="xtick_18">
     <g id="line2d_36">
      <g>
       <use xlink:href="#m4c53ade891" x="535.098422" y="768.96" style="stroke: #000000; stroke-width: 0.8"/>
      </g>
     </g>
     <g id="text_34">
      <!-- 100 -->
      <g transform="translate(525.554672 783.558437) scale(0.1 -0.1)">
       <use xlink:href="#DejaVuSans-31"/>
       <use xlink:href="#DejaVuSans-30" x="63.623047"/>
       <use xlink:href="#DejaVuSans-30" x="127.246094"/>
      </g>
     </g>
    </g>
   </g>
   <g id="matplotlib.axis_6">
    <g id="ytick_11">
     <g id="line2d_37">
      <g>
       <use xlink:href="#m0e74d95b5e" x="144" y="745.001178" style="stroke: #000000; stroke-width: 0.8"/>
      </g>
     </g>
     <g id="text_35">
      <!-- 0.50 -->
      <g transform="translate(114.734375 748.800397) scale(0.1 -0.1)">
       <use xlink:href="#DejaVuSans-30"/>
       <use xlink:href="#DejaVuSans-2e" x="63.623047"/>
       <use xlink:href="#DejaVuSans-35" x="95.410156"/>
       <use xlink:href="#DejaVuSans-30" x="159.033203"/>
      </g>
     </g>
    </g>
    <g id="ytick_12">
     <g id="line2d_38">
      <g>
       <use xlink:href="#m0e74d95b5e" x="144" y="683.598036" style="stroke: #000000; stroke-width: 0.8"/>
      </g>
     </g>
     <g id="text_36">
      <!-- 0.55 -->
      <g transform="translate(114.734375 687.397255) scale(0.1 -0.1)">
       <use xlink:href="#DejaVuSans-30"/>
       <use xlink:href="#DejaVuSans-2e" x="63.623047"/>
       <use xlink:href="#DejaVuSans-35" x="95.410156"/>
       <use xlink:href="#DejaVuSans-35" x="159.033203"/>
      </g>
     </g>
    </g>
    <g id="ytick_13">
     <g id="line2d_39">
      <g>
       <use xlink:href="#m0e74d95b5e" x="144" y="622.194894" style="stroke: #000000; stroke-width: 0.8"/>
      </g>
     </g>
     <g id="text_37">
      <!-- 0.60 -->
      <g transform="translate(114.734375 625.994113) scale(0.1 -0.1)">
       <use xlink:href="#DejaVuSans-30"/>
       <use xlink:href="#DejaVuSans-2e" x="63.623047"/>
       <use xlink:href="#DejaVuSans-36" x="95.410156"/>
       <use xlink:href="#DejaVuSans-30" x="159.033203"/>
      </g>
     </g>
    </g>
    <g id="ytick_14">
     <g id="line2d_40">
      <g>
       <use xlink:href="#m0e74d95b5e" x="144" y="560.791752" style="stroke: #000000; stroke-width: 0.8"/>
      </g>
     </g>
     <g id="text_38">
      <!-- 0.65 -->
      <g transform="translate(114.734375 564.590971) scale(0.1 -0.1)">
       <use xlink:href="#DejaVuSans-30"/>
       <use xlink:href="#DejaVuSans-2e" x="63.623047"/>
       <use xlink:href="#DejaVuSans-36" x="95.410156"/>
       <use xlink:href="#DejaVuSans-35" x="159.033203"/>
      </g>
     </g>
    </g>
    <g id="ytick_15">
     <g id="line2d_41">
      <g>
       <use xlink:href="#m0e74d95b5e" x="144" y="499.388611" style="stroke: #000000; stroke-width: 0.8"/>
      </g>
     </g>
     <g id="text_39">
      <!-- 0.70 -->
      <g transform="translate(114.734375 503.187829) scale(0.1 -0.1)">
       <use xlink:href="#DejaVuSans-30"/>
       <use xlink:href="#DejaVuSans-2e" x="63.623047"/>
       <use xlink:href="#DejaVuSans-37" x="95.410156"/>
       <use xlink:href="#DejaVuSans-30" x="159.033203"/>
      </g>
     </g>
    </g>
   </g>
   <g id="line2d_42">
    <path d="M 162.446281 720.439921 
L 166.172802 660.401294 
L 169.899324 654.943237 
L 173.625845 660.401294 
L 177.352367 649.48518 
L 181.078888 665.859351 
L 184.805409 676.775465 
L 188.531931 649.48518 
L 192.258452 638.569066 
L 195.984974 638.569066 
L 199.711495 627.652951 
L 203.438017 622.194894 
L 207.164538 622.194894 
L 210.891059 616.736837 
L 214.617581 633.111008 
L 218.344102 622.194894 
L 222.070624 633.111008 
L 225.797145 611.27878 
L 229.523666 600.362666 
L 233.250188 594.904609 
L 236.976709 594.904609 
L 240.703231 600.362666 
L 244.429752 600.362666 
L 248.156273 600.362666 
L 251.882795 573.072381 
L 255.609316 578.530438 
L 259.335838 578.530438 
L 263.062359 589.446552 
L 266.788881 600.362666 
L 270.515402 600.362666 
L 274.241923 583.988495 
L 277.968445 589.446552 
L 281.694966 611.27878 
L 285.421488 605.820723 
L 289.148009 611.27878 
L 292.87453 611.27878 
L 296.601052 611.27878 
L 300.327573 605.820723 
L 304.054095 611.27878 
L 307.780616 600.362666 
L 311.507137 611.27878 
L 315.233659 600.362666 
L 318.96018 600.362666 
L 322.686702 611.27878 
L 326.413223 611.27878 
L 330.139745 594.904609 
L 333.866266 589.446552 
L 337.592787 573.072381 
L 341.319309 589.446552 
L 345.04583 589.446552 
L 348.772352 578.530438 
L 352.498873 573.072381 
L 356.225394 583.988495 
L 359.951916 562.156267 
L 363.678437 562.156267 
L 367.404959 567.614324 
L 371.13148 573.072381 
L 374.858002 567.614324 
L 378.584523 573.072381 
L 382.311044 578.530438 
L 386.037566 589.446552 
L 389.764087 578.530438 
L 393.490609 578.530438 
L 397.21713 578.530438 
L 400.943651 573.072381 
L 404.670173 583.988495 
L 408.396694 578.530438 
L 412.123216 567.614324 
L 415.849737 573.072381 
L 419.576258 578.530438 
L 423.30278 573.072381 
L 427.029301 583.988495 
L 430.755823 573.072381 
L 434.482344 578.530438 
L 438.208866 573.072381 
L 441.935387 567.614324 
L 445.661908 578.530438 
L 449.38843 567.614324 
L 453.114951 583.988495 
L 456.841473 578.530438 
L 460.567994 578.530438 
L 464.294515 583.988495 
L 468.021037 589.446552 
L 471.747558 583.988495 
L 475.47408 589.446552 
L 479.200601 589.446552 
L 482.927122 589.446552 
L 486.653644 589.446552 
L 490.380165 589.446552 
L 494.106687 583.988495 
L 497.833208 583.988495 
L 501.55973 583.988495 
L 505.286251 583.988495 
L 509.012772 583.988495 
L 512.739294 573.072381 
L 516.465815 567.614324 
L 520.192337 573.072381 
L 523.918858 567.614324 
L 527.645379 567.614324 
L 531.371901 562.156267 
" clip-path="url(#p2336504927)" style="fill: none; stroke: #0000ff; stroke-width: 2; stroke-linecap: square"/>
   </g>
   <g id="line2d_43">
    <path d="M 162.446281 665.859351 
L 166.172802 644.027123 
L 169.899324 627.652951 
L 173.625845 633.111008 
L 177.352367 649.48518 
L 181.078888 622.194894 
L 184.805409 693.149636 
L 188.531931 682.233522 
L 192.258452 627.652951 
L 195.984974 654.943237 
L 199.711495 654.943237 
L 203.438017 654.943237 
L 207.164538 605.820723 
L 210.891059 627.652951 
L 214.617581 605.820723 
L 218.344102 627.652951 
L 222.070624 600.362666 
L 225.797145 627.652951 
L 229.523666 611.27878 
L 233.250188 605.820723 
L 236.976709 622.194894 
L 240.703231 627.652951 
L 244.429752 622.194894 
L 248.156273 600.362666 
L 251.882795 583.988495 
L 255.609316 616.736837 
L 259.335838 638.569066 
L 263.062359 638.569066 
L 266.788881 589.446552 
L 270.515402 622.194894 
L 274.241923 600.362666 
L 277.968445 605.820723 
L 281.694966 611.27878 
L 285.421488 605.820723 
L 289.148009 605.820723 
L 292.87453 616.736837 
L 296.601052 616.736837 
L 300.327573 644.027123 
L 304.054095 633.111008 
L 307.780616 616.736837 
L 311.507137 616.736837 
L 315.233659 600.362666 
L 318.96018 600.362666 
L 322.686702 644.027123 
L 326.413223 644.027123 
L 330.139745 633.111008 
L 333.866266 622.194894 
L 337.592787 633.111008 
L 341.319309 622.194894 
L 345.04583 622.194894 
L 348.772352 605.820723 
L 352.498873 600.362666 
L 356.225394 605.820723 
L 359.951916 611.27878 
L 363.678437 594.904609 
L 367.404959 605.820723 
L 371.13148 573.072381 
L 374.858002 578.530438 
L 378.584523 622.194894 
L 382.311044 622.194894 
L 386.037566 616.736837 
L 389.764087 627.652951 
L 393.490609 600.362666 
L 397.21713 616.736837 
L 400.943651 622.194894 
L 404.670173 627.652951 
L 408.396694 616.736837 
L 412.123216 611.27878 
L 415.849737 605.820723 
L 419.576258 583.988495 
L 423.30278 594.904609 
L 427.029301 605.820723 
L 430.755823 633.111008 
L 434.482344 633.111008 
L 438.208866 638.569066 
L 441.935387 649.48518 
L 445.661908 649.48518 
L 449.38843 644.027123 
L 453.114951 654.943237 
L 456.841473 649.48518 
L 460.567994 676.775465 
L 464.294515 671.317408 
L 468.021037 665.859351 
L 471.747558 676.775465 
L 475.47408 709.523807 
L 479.200601 671.317408 
L 482.927122 671.317408 
L 486.653644 671.317408 
L 490.380165 671.317408 
L 494.106687 671.317408 
L 497.833208 649.48518 
L 501.55973 671.317408 
L 505.286251 682.233522 
L 509.012772 682.233522 
L 512.739294 654.943237 
L 516.465815 654.943237 
L 520.192337 665.859351 
L 523.918858 660.401294 
L 527.645379 638.569066 
L 531.371901 644.027123 
" clip-path="url(#p2336504927)" style="fill: none; stroke: #808080; stroke-width: 1.5; stroke-linecap: square"/>
   </g>
   <g id="patch_15">
    <path d="M 144 768.96 
L 144 479.707826 
" style="fill: none; stroke: #000000; stroke-width: 0.8; stroke-linejoin: miter; stroke-linecap: square"/>
   </g>
   <g id="patch_16">
    <path d="M 549.818182 768.96 
L 549.818182 479.707826 
" style="fill: none; stroke: #000000; stroke-width: 0.8; stroke-linejoin: miter; stroke-linecap: square"/>
   </g>
   <g id="patch_17">
    <path d="M 144 768.96 
L 549.818182 768.96 
" style="fill: none; stroke: #000000; stroke-width: 0.8; stroke-linejoin: miter; stroke-linecap: square"/>
   </g>
   <g id="patch_18">
    <path d="M 144 479.707826 
L 549.818182 479.707826 
" style="fill: none; stroke: #000000; stroke-width: 0.8; stroke-linejoin: miter; stroke-linecap: square"/>
   </g>
   <g id="text_40">
    <!-- vs SVM -->
    <g transform="translate(325.235028 473.707826) scale(0.12 -0.12)">
     <defs>
      <path id="DejaVuSans-53" d="M 3425 4513 
L 3425 3897 
Q 3066 4069 2747 4153 
Q 2428 4238 2131 4238 
Q 1616 4238 1336 4038 
Q 1056 3838 1056 3469 
Q 1056 3159 1242 3001 
Q 1428 2844 1947 2747 
L 2328 2669 
Q 3034 2534 3370 2195 
Q 3706 1856 3706 1288 
Q 3706 609 3251 259 
Q 2797 -91 1919 -91 
Q 1588 -91 1214 -16 
Q 841 59 441 206 
L 441 856 
Q 825 641 1194 531 
Q 1563 422 1919 422 
Q 2459 422 2753 634 
Q 3047 847 3047 1241 
Q 3047 1584 2836 1778 
Q 2625 1972 2144 2069 
L 1759 2144 
Q 1053 2284 737 2584 
Q 422 2884 422 3419 
Q 422 4038 858 4394 
Q 1294 4750 2059 4750 
Q 2388 4750 2728 4690 
Q 3069 4631 3425 4513 
z
" transform="scale(0.015625)"/>
      <path id="DejaVuSans-56" d="M 1831 0 
L 50 4666 
L 709 4666 
L 2188 738 
L 3669 4666 
L 4325 4666 
L 2547 0 
L 1831 0 
z
" transform="scale(0.015625)"/>
      <path id="DejaVuSans-4d" d="M 628 4666 
L 1569 4666 
L 2759 1491 
L 3956 4666 
L 4897 4666 
L 4897 0 
L 4281 0 
L 4281 4097 
L 3078 897 
L 2444 897 
L 1241 4097 
L 1241 0 
L 628 0 
L 628 4666 
z
" transform="scale(0.015625)"/>
     </defs>
     <use xlink:href="#DejaVuSans-76"/>
     <use xlink:href="#DejaVuSans-73" x="59.179688"/>
     <use xlink:href="#DejaVuSans-20" x="111.279297"/>
     <use xlink:href="#DejaVuSans-53" x="143.066406"/>
     <use xlink:href="#DejaVuSans-56" x="206.542969"/>
     <use xlink:href="#DejaVuSans-4d" x="274.951172"/>
    </g>
   </g>
   <g id="legend_3">
    <g id="patch_19">
     <path d="M 501.164432 509.592826 
L 544.218182 509.592826 
Q 545.818182 509.592826 545.818182 507.992826 
L 545.818182 485.307826 
Q 545.818182 483.707826 544.218182 483.707826 
L 501.164432 483.707826 
Q 499.564432 483.707826 499.564432 485.307826 
L 499.564432 507.992826 
Q 499.564432 509.592826 501.164432 509.592826 
z
" style="fill: #ffffff; opacity: 0.8; stroke: #cccccc; stroke-linejoin: miter"/>
    </g>
    <g id="line2d_44">
     <path d="M 502.764432 490.186576 
L 510.764432 490.186576 
L 518.764432 490.186576 
" style="fill: none; stroke: #0000ff; stroke-width: 2; stroke-linecap: square"/>
    </g>
    <g id="text_41">
     <!-- Test -->
     <g transform="translate(525.164432 492.986576) scale(0.08 -0.08)">
      <use xlink:href="#DejaVuSans-54"/>
      <use xlink:href="#DejaVuSans-65" x="44.083984"/>
      <use xlink:href="#DejaVuSans-73" x="105.607422"/>
      <use xlink:href="#DejaVuSans-74" x="157.707031"/>
     </g>
    </g>
    <g id="line2d_45">
     <path d="M 502.764432 501.929076 
L 510.764432 501.929076 
L 518.764432 501.929076 
" style="fill: none; stroke: #808080; stroke-width: 1.5; stroke-linecap: square"/>
    </g>
    <g id="text_42">
     <!-- SVM -->
     <g transform="translate(525.164432 504.729076) scale(0.08 -0.08)">
      <use xlink:href="#DejaVuSans-53"/>
      <use xlink:href="#DejaVuSans-56" x="63.476562"/>
      <use xlink:href="#DejaVuSans-4d" x="131.884766"/>
     </g>
    </g>
   </g>
  </g>
  <g id="axes_4">
   <g id="patch_20">
    <path d="M 630.981818 768.96 
L 1036.8 768.96 
L 1036.8 479.707826 
L 630.981818 479.707826 
z
" style="fill: #ffffff"/>
   </g>
   <g id="matplotlib.axis_7">
    <g id="xtick_19">
     <g id="line2d_46">
      <g>
       <use xlink:href="#m4c53ade891" x="630.981818" y="768.96" style="stroke: #000000; stroke-width: 0.8"/>
      </g>
     </g>
     <g id="text_43">
      <!-- 1.0 -->
      <g transform="translate(623.030256 783.558437) scale(0.1 -0.1)">
       <use xlink:href="#DejaVuSans-31"/>
       <use xlink:href="#DejaVuSans-2e" x="63.623047"/>
       <use xlink:href="#DejaVuSans-30" x="95.410156"/>
      </g>
     </g>
    </g>
    <g id="xtick_20">
     <g id="line2d_47">
      <g>
       <use xlink:href="#m4c53ade891" x="698.618182" y="768.96" style="stroke: #000000; stroke-width: 0.8"/>
      </g>
     </g>
     <g id="text_44">
      <!-- 1.5 -->
      <g transform="translate(690.666619 783.558437) scale(0.1 -0.1)">
       <use xlink:href="#DejaVuSans-31"/>
       <use xlink:href="#DejaVuSans-2e" x="63.623047"/>
       <use xlink:href="#DejaVuSans-35" x="95.410156"/>
      </g>
     </g>
    </g>
    <g id="xtick_21">
     <g id="line2d_48">
      <g>
       <use xlink:href="#m4c53ade891" x="766.254545" y="768.96" style="stroke: #000000; stroke-width: 0.8"/>
      </g>
     </g>
     <g id="text_45">
      <!-- 2.0 -->
      <g transform="translate(758.302983 783.558437) scale(0.1 -0.1)">
       <use xlink:href="#DejaVuSans-32"/>
       <use xlink:href="#DejaVuSans-2e" x="63.623047"/>
       <use xlink:href="#DejaVuSans-30" x="95.410156"/>
      </g>
     </g>
    </g>
    <g id="xtick_22">
     <g id="line2d_49">
      <g>
       <use xlink:href="#m4c53ade891" x="833.890909" y="768.96" style="stroke: #000000; stroke-width: 0.8"/>
      </g>
     </g>
     <g id="text_46">
      <!-- 2.5 -->
      <g transform="translate(825.939347 783.558437) scale(0.1 -0.1)">
       <use xlink:href="#DejaVuSans-32"/>
       <use xlink:href="#DejaVuSans-2e" x="63.623047"/>
       <use xlink:href="#DejaVuSans-35" x="95.410156"/>
      </g>
     </g>
    </g>
    <g id="xtick_23">
     <g id="line2d_50">
      <g>
       <use xlink:href="#m4c53ade891" x="901.527273" y="768.96" style="stroke: #000000; stroke-width: 0.8"/>
      </g>
     </g>
     <g id="text_47">
      <!-- 3.0 -->
      <g transform="translate(893.57571 783.558437) scale(0.1 -0.1)">
       <defs>
        <path id="DejaVuSans-33" d="M 2597 2516 
Q 3050 2419 3304 2112 
Q 3559 1806 3559 1356 
Q 3559 666 3084 287 
Q 2609 -91 1734 -91 
Q 1441 -91 1130 -33 
Q 819 25 488 141 
L 488 750 
Q 750 597 1062 519 
Q 1375 441 1716 441 
Q 2309 441 2620 675 
Q 2931 909 2931 1356 
Q 2931 1769 2642 2001 
Q 2353 2234 1838 2234 
L 1294 2234 
L 1294 2753 
L 1863 2753 
Q 2328 2753 2575 2939 
Q 2822 3125 2822 3475 
Q 2822 3834 2567 4026 
Q 2313 4219 1838 4219 
Q 1578 4219 1281 4162 
Q 984 4106 628 3988 
L 628 4550 
Q 988 4650 1302 4700 
Q 1616 4750 1894 4750 
Q 2613 4750 3031 4423 
Q 3450 4097 3450 3541 
Q 3450 3153 3228 2886 
Q 3006 2619 2597 2516 
z
" transform="scale(0.015625)"/>
       </defs>
       <use xlink:href="#DejaVuSans-33"/>
       <use xlink:href="#DejaVuSans-2e" x="63.623047"/>
       <use xlink:href="#DejaVuSans-30" x="95.410156"/>
      </g>
     </g>
    </g>
    <g id="xtick_24">
     <g id="line2d_51">
      <g>
       <use xlink:href="#m4c53ade891" x="969.163636" y="768.96" style="stroke: #000000; stroke-width: 0.8"/>
      </g>
     </g>
     <g id="text_48">
      <!-- 3.5 -->
      <g transform="translate(961.212074 783.558437) scale(0.1 -0.1)">
       <use xlink:href="#DejaVuSans-33"/>
       <use xlink:href="#DejaVuSans-2e" x="63.623047"/>
       <use xlink:href="#DejaVuSans-35" x="95.410156"/>
      </g>
     </g>
    </g>
    <g id="xtick_25">
     <g id="line2d_52">
      <g>
       <use xlink:href="#m4c53ade891" x="1036.8" y="768.96" style="stroke: #000000; stroke-width: 0.8"/>
      </g>
     </g>
     <g id="text_49">
      <!-- 4.0 -->
      <g transform="translate(1028.848438 783.558437) scale(0.1 -0.1)">
       <use xlink:href="#DejaVuSans-34"/>
       <use xlink:href="#DejaVuSans-2e" x="63.623047"/>
       <use xlink:href="#DejaVuSans-30" x="95.410156"/>
      </g>
     </g>
    </g>
    <g id="text_50">
     <!-- Rank -->
     <g transform="translate(821.401065 797.236562) scale(0.1 -0.1)">
      <defs>
       <path id="DejaVuSans-6b" d="M 581 4863 
L 1159 4863 
L 1159 1991 
L 2875 3500 
L 3609 3500 
L 1753 1863 
L 3688 0 
L 2938 0 
L 1159 1709 
L 1159 0 
L 581 0 
L 581 4863 
z
" transform="scale(0.015625)"/>
      </defs>
      <use xlink:href="#DejaVuSans-52"/>
      <use xlink:href="#DejaVuSans-61" x="67.232422"/>
      <use xlink:href="#DejaVuSans-6e" x="128.511719"/>
      <use xlink:href="#DejaVuSans-6b" x="191.890625"/>
     </g>
    </g>
   </g>
   <g id="matplotlib.axis_8">
    <g id="ytick_16">
     <g id="line2d_53">
      <g>
       <use xlink:href="#m0e74d95b5e" x="630.981818" y="729.516522" style="stroke: #000000; stroke-width: 0.8"/>
      </g>
     </g>
     <g id="text_51">
      <!-- 0.04 -->
      <g transform="translate(593.336506 733.31574) scale(0.1 -0.1)">
       <defs>
        <path id="DejaVuSans-2212" d="M 678 2272 
L 4684 2272 
L 4684 1741 
L 678 1741 
L 678 2272 
z
" transform="scale(0.015625)"/>
       </defs>
       <use xlink:href="#DejaVuSans-2212"/>
       <use xlink:href="#DejaVuSans-30" x="83.789062"/>
       <use xlink:href="#DejaVuSans-2e" x="147.412109"/>
       <use xlink:href="#DejaVuSans-30" x="179.199219"/>
       <use xlink:href="#DejaVuSans-34" x="242.822266"/>
      </g>
     </g>
    </g>
    <g id="ytick_17">
     <g id="line2d_54">
      <g>
       <use xlink:href="#m0e74d95b5e" x="630.981818" y="676.925217" style="stroke: #000000; stroke-width: 0.8"/>
      </g>
     </g>
     <g id="text_52">
      <!-- 0.02 -->
      <g transform="translate(593.336506 680.724436) scale(0.1 -0.1)">
       <use xlink:href="#DejaVuSans-2212"/>
       <use xlink:href="#DejaVuSans-30" x="83.789062"/>
       <use xlink:href="#DejaVuSans-2e" x="147.412109"/>
       <use xlink:href="#DejaVuSans-30" x="179.199219"/>
       <use xlink:href="#DejaVuSans-32" x="242.822266"/>
      </g>
     </g>
    </g>
    <g id="ytick_18">
     <g id="line2d_55">
      <g>
       <use xlink:href="#m0e74d95b5e" x="630.981818" y="624.333913" style="stroke: #000000; stroke-width: 0.8"/>
      </g>
     </g>
     <g id="text_53">
      <!-- 0.00 -->
      <g transform="translate(601.716193 628.133132) scale(0.1 -0.1)">
       <use xlink:href="#DejaVuSans-30"/>
       <use xlink:href="#DejaVuSans-2e" x="63.623047"/>
       <use xlink:href="#DejaVuSans-30" x="95.410156"/>
       <use xlink:href="#DejaVuSans-30" x="159.033203"/>
      </g>
     </g>
    </g>
    <g id="ytick_19">
     <g id="line2d_56">
      <g>
       <use xlink:href="#m0e74d95b5e" x="630.981818" y="571.742609" style="stroke: #000000; stroke-width: 0.8"/>
      </g>
     </g>
     <g id="text_54">
      <!-- 0.02 -->
      <g transform="translate(601.716193 575.541827) scale(0.1 -0.1)">
       <use xlink:href="#DejaVuSans-30"/>
       <use xlink:href="#DejaVuSans-2e" x="63.623047"/>
       <use xlink:href="#DejaVuSans-30" x="95.410156"/>
       <use xlink:href="#DejaVuSans-32" x="159.033203"/>
      </g>
     </g>
    </g>
    <g id="ytick_20">
     <g id="line2d_57">
      <g>
       <use xlink:href="#m0e74d95b5e" x="630.981818" y="519.151304" style="stroke: #000000; stroke-width: 0.8"/>
      </g>
     </g>
     <g id="text_55">
      <!-- 0.04 -->
      <g transform="translate(601.716193 522.950523) scale(0.1 -0.1)">
       <use xlink:href="#DejaVuSans-30"/>
       <use xlink:href="#DejaVuSans-2e" x="63.623047"/>
       <use xlink:href="#DejaVuSans-30" x="95.410156"/>
       <use xlink:href="#DejaVuSans-34" x="159.033203"/>
      </g>
     </g>
    </g>
   </g>
   <g id="line2d_58">
    <path d="M 630.981818 624.333913 
L 1036.8 624.333913 
" clip-path="url(#p462f648564)" style="fill: none; stroke: #d3d3d3; stroke-width: 5; stroke-linecap: square"/>
   </g>
   <g id="line2d_59">
    <defs>
     <path id="mb8c5376de7" d="M 0 5 
C 1.326016 5 2.597899 4.473168 3.535534 3.535534 
C 4.473168 2.597899 5 1.326016 5 0 
C 5 -1.326016 4.473168 -2.597899 3.535534 -3.535534 
C 2.597899 -4.473168 1.326016 -5 0 -5 
C -1.326016 -5 -2.597899 -4.473168 -3.535534 -3.535534 
C -4.473168 -2.597899 -5 -1.326016 -5 0 
C -5 1.326016 -4.473168 2.597899 -3.535534 3.535534 
C -2.597899 4.473168 -1.326016 5 0 5 
z
" style="stroke: #1f77b4"/>
    </defs>
    <g clip-path="url(#p462f648564)">
     <use xlink:href="#mb8c5376de7" x="737.847273" y="624.333913" style="fill: #1f77b4; stroke: #1f77b4"/>
    </g>
   </g>
   <g id="line2d_60">
    <defs>
     <path id="m4f985ed681" d="M 0 5 
C 1.326016 5 2.597899 4.473168 3.535534 3.535534 
C 4.473168 2.597899 5 1.326016 5 0 
C 5 -1.326016 4.473168 -2.597899 3.535534 -3.535534 
C 2.597899 -4.473168 1.326016 -5 0 -5 
C -1.326016 -5 -2.597899 -4.473168 -3.535534 -3.535534 
C -4.473168 -2.597899 -5 -1.326016 -5 0 
C -5 1.326016 -4.473168 2.597899 -3.535534 3.535534 
C -2.597899 4.473168 -1.326016 5 0 5 
z
" style="stroke: #ff7f0e"/>
    </defs>
    <g clip-path="url(#p462f648564)">
     <use xlink:href="#m4f985ed681" x="714.850909" y="624.333913" style="fill: #ff7f0e; stroke: #ff7f0e"/>
    </g>
   </g>
   <g id="line2d_61">
    <defs>
     <path id="m54ef293703" d="M 0 5 
C 1.326016 5 2.597899 4.473168 3.535534 3.535534 
C 4.473168 2.597899 5 1.326016 5 0 
C 5 -1.326016 4.473168 -2.597899 3.535534 -3.535534 
C 2.597899 -4.473168 1.326016 -5 0 -5 
C -1.326016 -5 -2.597899 -4.473168 -3.535534 -3.535534 
C -4.473168 -2.597899 -5 -1.326016 -5 0 
C -5 1.326016 -4.473168 2.597899 -3.535534 3.535534 
C -2.597899 4.473168 -1.326016 5 0 5 
z
" style="stroke: #2ca02c"/>
    </defs>
    <g clip-path="url(#p462f648564)">
     <use xlink:href="#m54ef293703" x="913.701818" y="624.333913" style="fill: #2ca02c; stroke: #2ca02c"/>
    </g>
   </g>
   <g id="line2d_62">
    <defs>
     <path id="me6d7a5989a" d="M 0 5 
C 1.326016 5 2.597899 4.473168 3.535534 3.535534 
C 4.473168 2.597899 5 1.326016 5 0 
C 5 -1.326016 4.473168 -2.597899 3.535534 -3.535534 
C 2.597899 -4.473168 1.326016 -5 0 -5 
C -1.326016 -5 -2.597899 -4.473168 -3.535534 -3.535534 
C -4.473168 -2.597899 -5 -1.326016 -5 0 
C -5 1.326016 -4.473168 2.597899 -3.535534 3.535534 
C -2.597899 4.473168 -1.326016 5 0 5 
z
" style="stroke: #d62728"/>
    </defs>
    <g clip-path="url(#p462f648564)">
     <use xlink:href="#me6d7a5989a" x="944.814545" y="624.333913" style="fill: #d62728; stroke: #d62728"/>
    </g>
   </g>
   <g id="patch_21">
    <path d="M 630.981818 768.96 
L 630.981818 479.707826 
" style="fill: none; stroke: #000000; stroke-width: 0.8; stroke-linejoin: miter; stroke-linecap: square"/>
   </g>
   <g id="patch_22">
    <path d="M 1036.8 768.96 
L 1036.8 479.707826 
" style="fill: none; stroke: #000000; stroke-width: 0.8; stroke-linejoin: miter; stroke-linecap: square"/>
   </g>
   <g id="patch_23">
    <path d="M 630.981818 768.96 
L 1036.8 768.96 
" style="fill: none; stroke: #000000; stroke-width: 0.8; stroke-linejoin: miter; stroke-linecap: square"/>
   </g>
   <g id="patch_24">
    <path d="M 630.981818 479.707826 
L 1036.8 479.707826 
" style="fill: none; stroke: #000000; stroke-width: 0.8; stroke-linejoin: miter; stroke-linecap: square"/>
   </g>
   <g id="text_56">
    <!-- 1.79 -->
    <g transform="translate(726.71446 595.958573) scale(0.1 -0.1)">
     <defs>
      <path id="DejaVuSans-39" d="M 703 97 
L 703 672 
Q 941 559 1184 500 
Q 1428 441 1663 441 
Q 2288 441 2617 861 
Q 2947 1281 2994 2138 
Q 2813 1869 2534 1725 
Q 2256 1581 1919 1581 
Q 1219 1581 811 2004 
Q 403 2428 403 3163 
Q 403 3881 828 4315 
Q 1253 4750 1959 4750 
Q 2769 4750 3195 4129 
Q 3622 3509 3622 2328 
Q 3622 1225 3098 567 
Q 2575 -91 1691 -91 
Q 1453 -91 1209 -44 
Q 966 3 703 97 
z
M 1959 2075 
Q 2384 2075 2632 2365 
Q 2881 2656 2881 3163 
Q 2881 3666 2632 3958 
Q 2384 4250 1959 4250 
Q 1534 4250 1286 3958 
Q 1038 3666 1038 3163 
Q 1038 2656 1286 2365 
Q 1534 2075 1959 2075 
z
" transform="scale(0.015625)"/>
     </defs>
     <use xlink:href="#DejaVuSans-31"/>
     <use xlink:href="#DejaVuSans-2e" x="63.623047"/>
     <use xlink:href="#DejaVuSans-37" x="95.410156"/>
     <use xlink:href="#DejaVuSans-39" x="159.033203"/>
    </g>
   </g>
   <g id="text_57">
    <!-- 1.62 -->
    <g transform="translate(703.718097 595.958573) scale(0.1 -0.1)">
     <use xlink:href="#DejaVuSans-31"/>
     <use xlink:href="#DejaVuSans-2e" x="63.623047"/>
     <use xlink:href="#DejaVuSans-36" x="95.410156"/>
     <use xlink:href="#DejaVuSans-32" x="159.033203"/>
    </g>
   </g>
   <g id="text_58">
    <!-- 3.09 -->
    <g transform="translate(902.569006 595.958573) scale(0.1 -0.1)">
     <use xlink:href="#DejaVuSans-33"/>
     <use xlink:href="#DejaVuSans-2e" x="63.623047"/>
     <use xlink:href="#DejaVuSans-30" x="95.410156"/>
     <use xlink:href="#DejaVuSans-39" x="159.033203"/>
    </g>
   </g>
   <g id="text_59">
    <!-- 3.32 -->
    <g transform="translate(933.681733 595.958573) scale(0.1 -0.1)">
     <use xlink:href="#DejaVuSans-33"/>
     <use xlink:href="#DejaVuSans-2e" x="63.623047"/>
     <use xlink:href="#DejaVuSans-33" x="95.410156"/>
     <use xlink:href="#DejaVuSans-32" x="159.033203"/>
    </g>
   </g>
   <g id="text_60">
    <g id="patch_25">
     <path d="M 957.727841 552.65859 
L 1016.509091 552.65859 
Q 1020.109091 552.65859 1020.109091 549.05859 
L 1020.109091 497.132715 
Q 1020.109091 493.532715 1016.509091 493.532715 
L 957.727841 493.532715 
Q 954.127841 493.532715 954.127841 497.132715 
L 954.127841 549.05859 
Q 954.127841 552.65859 957.727841 552.65859 
z
" style="fill: #add8e6; opacity: 0.5; stroke: #000000; stroke-linejoin: miter"/>
    </g>
    <!-- Test: 1.79 -->
    <g transform="translate(958.305341 506.25084) scale(0.12 -0.12)">
     <defs>
      <path id="DejaVuSans-3a" d="M 750 794 
L 1409 794 
L 1409 0 
L 750 0 
L 750 794 
z
M 750 3309 
L 1409 3309 
L 1409 2516 
L 750 2516 
L 750 3309 
z
" transform="scale(0.015625)"/>
     </defs>
     <use xlink:href="#DejaVuSans-54"/>
     <use xlink:href="#DejaVuSans-65" x="44.083984"/>
     <use xlink:href="#DejaVuSans-73" x="105.607422"/>
     <use xlink:href="#DejaVuSans-74" x="157.707031"/>
     <use xlink:href="#DejaVuSans-3a" x="196.916016"/>
     <use xlink:href="#DejaVuSans-20" x="230.607422"/>
     <use xlink:href="#DejaVuSans-31" x="262.394531"/>
     <use xlink:href="#DejaVuSans-2e" x="326.017578"/>
     <use xlink:href="#DejaVuSans-37" x="357.804688"/>
     <use xlink:href="#DejaVuSans-39" x="421.427734"/>
    </g>
    <!-- RF: 1.62 -->
    <g transform="translate(967.624091 519.688215) scale(0.12 -0.12)">
     <use xlink:href="#DejaVuSans-52"/>
     <use xlink:href="#DejaVuSans-46" x="69.482422"/>
     <use xlink:href="#DejaVuSans-3a" x="119.251953"/>
     <use xlink:href="#DejaVuSans-20" x="152.943359"/>
     <use xlink:href="#DejaVuSans-31" x="184.730469"/>
     <use xlink:href="#DejaVuSans-2e" x="248.353516"/>
     <use xlink:href="#DejaVuSans-36" x="280.140625"/>
     <use xlink:href="#DejaVuSans-32" x="343.763672"/>
    </g>
    <!-- SVC: 3.09 -->
    <g transform="translate(957.727841 533.12559) scale(0.12 -0.12)">
     <defs>
      <path id="DejaVuSans-43" d="M 4122 4306 
L 4122 3641 
Q 3803 3938 3442 4084 
Q 3081 4231 2675 4231 
Q 1875 4231 1450 3742 
Q 1025 3253 1025 2328 
Q 1025 1406 1450 917 
Q 1875 428 2675 428 
Q 3081 428 3442 575 
Q 3803 722 4122 1019 
L 4122 359 
Q 3791 134 3420 21 
Q 3050 -91 2638 -91 
Q 1578 -91 968 557 
Q 359 1206 359 2328 
Q 359 3453 968 4101 
Q 1578 4750 2638 4750 
Q 3056 4750 3426 4639 
Q 3797 4528 4122 4306 
z
" transform="scale(0.015625)"/>
     </defs>
     <use xlink:href="#DejaVuSans-53"/>
     <use xlink:href="#DejaVuSans-56" x="63.476562"/>
     <use xlink:href="#DejaVuSans-43" x="131.884766"/>
     <use xlink:href="#DejaVuSans-3a" x="201.708984"/>
     <use xlink:href="#DejaVuSans-20" x="235.400391"/>
     <use xlink:href="#DejaVuSans-33" x="267.1875"/>
     <use xlink:href="#DejaVuSans-2e" x="330.810547"/>
     <use xlink:href="#DejaVuSans-30" x="362.597656"/>
     <use xlink:href="#DejaVuSans-39" x="426.220703"/>
    </g>
    <!-- GB: 3.32 -->
    <g transform="translate(964.402841 546.562965) scale(0.12 -0.12)">
     <use xlink:href="#DejaVuSans-47"/>
     <use xlink:href="#DejaVuSans-42" x="77.490234"/>
     <use xlink:href="#DejaVuSans-3a" x="146.09375"/>
     <use xlink:href="#DejaVuSans-20" x="179.785156"/>
     <use xlink:href="#DejaVuSans-33" x="211.572266"/>
     <use xlink:href="#DejaVuSans-2e" x="275.195312"/>
     <use xlink:href="#DejaVuSans-33" x="306.982422"/>
     <use xlink:href="#DejaVuSans-32" x="370.605469"/>
    </g>
   </g>
   <g id="text_61">
    <!-- Mean Rank -->
    <g transform="translate(800.648097 473.707826) scale(0.12 -0.12)">
     <use xlink:href="#DejaVuSans-4d"/>
     <use xlink:href="#DejaVuSans-65" x="86.279297"/>
     <use xlink:href="#DejaVuSans-61" x="147.802734"/>
     <use xlink:href="#DejaVuSans-6e" x="209.082031"/>
     <use xlink:href="#DejaVuSans-20" x="272.460938"/>
     <use xlink:href="#DejaVuSans-52" x="304.248047"/>
     <use xlink:href="#DejaVuSans-61" x="371.480469"/>
     <use xlink:href="#DejaVuSans-6e" x="432.759766"/>
     <use xlink:href="#DejaVuSans-6b" x="496.138672"/>
    </g>
   </g>
   <g id="legend_4">
    <g id="patch_26">
     <path d="M 639.381818 524.535326 
L 783.216818 524.535326 
Q 785.616818 524.535326 785.616818 522.135326 
L 785.616818 488.107826 
Q 785.616818 485.707826 783.216818 485.707826 
L 639.381818 485.707826 
Q 636.981818 485.707826 636.981818 488.107826 
L 636.981818 522.135326 
Q 636.981818 524.535326 639.381818 524.535326 
z
" style="fill: #ffffff; opacity: 0.8; stroke: #cccccc; stroke-linejoin: miter"/>
    </g>
    <g id="line2d_63">
     <g>
      <use xlink:href="#mb8c5376de7" x="653.781818" y="495.425951" style="fill: #1f77b4; stroke: #1f77b4"/>
     </g>
    </g>
    <g id="text_62">
     <!-- Test -->
     <g transform="translate(675.381818 499.625951) scale(0.12 -0.12)">
      <use xlink:href="#DejaVuSans-54"/>
      <use xlink:href="#DejaVuSans-65" x="44.083984"/>
      <use xlink:href="#DejaVuSans-73" x="105.607422"/>
      <use xlink:href="#DejaVuSans-74" x="157.707031"/>
     </g>
    </g>
    <g id="line2d_64">
     <g>
      <use xlink:href="#m4f985ed681" x="653.781818" y="513.039701" style="fill: #ff7f0e; stroke: #ff7f0e"/>
     </g>
    </g>
    <g id="text_63">
     <!-- RF -->
     <g transform="translate(675.381818 517.239701) scale(0.12 -0.12)">
      <use xlink:href="#DejaVuSans-52"/>
      <use xlink:href="#DejaVuSans-46" x="69.482422"/>
     </g>
    </g>
    <g id="line2d_65">
     <g>
      <use xlink:href="#m54ef293703" x="735.010568" y="495.425951" style="fill: #2ca02c; stroke: #2ca02c"/>
     </g>
    </g>
    <g id="text_64">
     <!-- SVC -->
     <g transform="translate(756.610568 499.625951) scale(0.12 -0.12)">
      <use xlink:href="#DejaVuSans-53"/>
      <use xlink:href="#DejaVuSans-56" x="63.476562"/>
      <use xlink:href="#DejaVuSans-43" x="131.884766"/>
     </g>
    </g>
    <g id="line2d_66">
     <g>
      <use xlink:href="#me6d7a5989a" x="735.010568" y="513.039701" style="fill: #d62728; stroke: #d62728"/>
     </g>
    </g>
    <g id="text_65">
     <!-- GB -->
     <g transform="translate(756.610568 517.239701) scale(0.12 -0.12)">
      <use xlink:href="#DejaVuSans-47"/>
      <use xlink:href="#DejaVuSans-42" x="77.490234"/>
     </g>
    </g>
   </g>
  </g>
 </g>
 <defs>
  <clipPath id="p8cf78f7927">
   <rect x="144" y="103.68" width="405.818182" height="289.252174"/>
  </clipPath>
  <clipPath id="p3b9a3c57df">
   <rect x="630.981818" y="103.68" width="405.818182" height="289.252174"/>
  </clipPath>
  <clipPath id="p2336504927">
   <rect x="144" y="479.707826" width="405.818182" height="289.252174"/>
  </clipPath>
  <clipPath id="p462f648564">
   <rect x="630.981818" y="479.707826" width="405.818182" height="289.252174"/>
  </clipPath>
 </defs>
</svg>
