<?xml version="1.0" encoding="utf-8" standalone="no"?>
<!DOCTYPE svg PUBLIC "-//W3C//DTD SVG 1.1//EN"
  "http://www.w3.org/Graphics/SVG/1.1/DTD/svg11.dtd">
<svg xmlns:xlink="http://www.w3.org/1999/xlink" width="720pt" height="720pt" viewBox="0 0 720 720" xmlns="http://www.w3.org/2000/svg" version="1.1">
 <metadata>
  <rdf:RDF xmlns:dc="http://purl.org/dc/elements/1.1/" xmlns:cc="http://creativecommons.org/ns#" xmlns:rdf="http://www.w3.org/1999/02/22-rdf-syntax-ns#">
   <cc:Work>
    <dc:type rdf:resource="http://purl.org/dc/dcmitype/StillImage"/>
    <dc:date>2024-09-10T15:49:51.925953</dc:date>
    <dc:format>image/svg+xml</dc:format>
    <dc:creator>
     <cc:Agent>
      <dc:title>Matplotlib v3.8.4, https://matplotlib.org/</dc:title>
     </cc:Agent>
    </dc:creator>
   </cc:Work>
  </rdf:RDF>
 </metadata>
 <defs>
  <style type="text/css">*{stroke-linejoin: round; stroke-linecap: butt}</style>
 </defs>
 <g id="figure_1">
  <g id="patch_1">
   <path d="M 0 720 
L 720 720 
L 720 0 
L 0 0 
z
" style="fill: #ffffff"/>
  </g>
  <g id="axes_1">
   <g id="patch_2">
    <path d="M 90 640.8 
L 648 640.8 
L 648 86.4 
L 90 86.4 
z
" style="fill: #ffffff"/>
   </g>
   <g id="LineCollection_1">
    <path d="M 502.666303 312.543637 
L 466.855609 403.257487 
" clip-path="url(#peb33151add)" style="fill: none; stroke: #800080; stroke-opacity: 0.5; stroke-width: 10"/>
    <path d="M 269.334603 232.168303 
L 337.736879 157.041754 
" clip-path="url(#peb33151add)" style="fill: none; stroke: #800080; stroke-opacity: 0.5; stroke-width: 4.02092"/>
    <path d="M 138.421488 502.560258 
L 205.013976 425.79015 
" clip-path="url(#peb33151add)" style="fill: none; stroke: #800080; stroke-opacity: 0.5; stroke-width: 10"/>
    <path d="M 531.176236 592.690909 
L 599.578512 517.565686 
" clip-path="url(#peb33151add)" style="fill: none; stroke: #800080; stroke-opacity: 0.5; stroke-width: 4.02092"/>
    <path d="M 400.25542 480.027595 
L 466.855609 403.257487 
" clip-path="url(#peb33151add)" style="fill: none; stroke: #800080; stroke-opacity: 0.5; stroke-width: 10"/>
    <path d="M 531.176236 209.63564 
L 599.578512 134.509091 
" clip-path="url(#peb33151add)" style="fill: none; stroke: #800080; stroke-opacity: 0.5; stroke-width: 4.02092"/>
    <path d="M 240.82467 335.0763 
L 205.013976 425.79015 
" clip-path="url(#peb33151add)" style="fill: none; stroke: #800080; stroke-opacity: 0.5; stroke-width: 10"/>
   </g>
   <g id="LineCollection_2">
    <path d="M 502.666303 312.543637 
L 466.855609 403.257487 
" clip-path="url(#peb33151add)" style="fill: none; stroke: #ff0000; stroke-opacity: 0.5; stroke-width: 3.093217"/>
    <path d="M 269.334603 232.168303 
L 337.736879 157.041754 
" clip-path="url(#peb33151add)" style="fill: none; stroke: #ff0000; stroke-opacity: 0.5; stroke-width: 10"/>
    <path d="M 138.421488 502.560258 
L 205.013976 425.79015 
" clip-path="url(#peb33151add)" style="fill: none; stroke: #ff0000; stroke-opacity: 0.5; stroke-width: 1.316447"/>
    <path d="M 531.176236 592.690909 
L 599.578512 517.565686 
" clip-path="url(#peb33151add)" style="fill: none; stroke: #ff0000; stroke-opacity: 0.5; stroke-width: 7.916731"/>
    <path d="M 400.25542 480.027595 
L 466.855609 403.257487 
" clip-path="url(#peb33151add)" style="fill: none"/>
    <path d="M 531.176236 209.63564 
L 599.578512 134.509091 
" clip-path="url(#peb33151add)" style="fill: none; stroke: #ff0000; stroke-opacity: 0.5; stroke-width: 7.256808"/>
    <path d="M 240.82467 335.0763 
L 205.013976 425.79015 
" clip-path="url(#peb33151add)" style="fill: none; stroke: #ff0000; stroke-opacity: 0.5; stroke-width: 1.883744"/>
   </g>
   <g id="matplotlib.axis_1">
    <g id="xtick_1"/>
    <g id="xtick_2"/>
    <g id="xtick_3"/>
    <g id="xtick_4"/>
    <g id="xtick_5"/>
    <g id="xtick_6"/>
    <g id="xtick_7"/>
   </g>
   <g id="matplotlib.axis_2">
    <g id="ytick_1"/>
    <g id="ytick_2"/>
    <g id="ytick_3"/>
    <g id="ytick_4"/>
    <g id="ytick_5"/>
    <g id="ytick_6"/>
    <g id="ytick_7"/>
    <g id="ytick_8"/>
   </g>
   <g id="patch_3">
    <path d="M 400.25542 503.222983 
C 410.467363 503.222983 420.262426 500.77897 427.48336 496.429211 
C 434.704294 492.079451 438.761542 486.179083 438.761542 480.027595 
C 438.761542 473.876106 434.704294 467.975738 427.48336 463.625978 
C 420.262426 459.276219 410.467363 456.832206 400.25542 456.832206 
C 390.043477 456.832206 380.248413 459.276219 373.027479 463.625978 
C 365.806545 467.975738 361.749297 473.876106 361.749297 480.027595 
C 361.749297 486.179083 365.806545 492.079451 373.027479 496.429211 
C 380.248413 500.77897 390.043477 503.222983 400.25542 503.222983 
z
" clip-path="url(#peb33151add)" style="fill: #90ee90; stroke: #90ee90; stroke-width: 1.5; stroke-linejoin: miter"/>
   </g>
   <g id="patch_4">
    <path d="M 138.421488 525.755646 
C 148.633431 525.755646 158.428494 523.311633 165.649428 518.961874 
C 172.870362 514.612114 176.92761 508.711746 176.92761 502.560258 
C 176.92761 496.408769 172.870362 490.508401 165.649428 486.158641 
C 158.428494 481.808882 148.633431 479.364869 138.421488 479.364869 
C 128.209545 479.364869 118.414481 481.808882 111.193547 486.158641 
C 103.972613 490.508401 99.915365 496.408769 99.915365 502.560258 
C 99.915365 508.711746 103.972613 514.612114 111.193547 518.961874 
C 118.414481 523.311633 128.209545 525.755646 138.421488 525.755646 
z
" clip-path="url(#peb33151add)" style="fill: #90ee90; stroke: #90ee90; stroke-width: 1.5; stroke-linejoin: miter"/>
   </g>
   <g id="patch_5">
    <path d="M 240.82467 358.271688 
C 251.036613 358.271688 260.831676 355.827676 268.05261 351.477916 
C 275.273544 347.128157 279.330792 341.227789 279.330792 335.0763 
C 279.330792 328.924811 275.273544 323.024443 268.05261 318.674683 
C 260.831676 314.324924 251.036613 311.880911 240.82467 311.880911 
C 230.612727 311.880911 220.817664 314.324924 213.59673 318.674683 
C 206.375795 323.024443 202.318547 328.924811 202.318547 335.0763 
C 202.318547 341.227789 206.375795 347.128157 213.59673 351.477916 
C 220.817664 355.827676 230.612727 358.271688 240.82467 358.271688 
z
" clip-path="url(#peb33151add)" style="fill: #90ee90; stroke: #90ee90; stroke-width: 1.5; stroke-linejoin: miter"/>
   </g>
   <g id="patch_6">
    <path d="M 502.666303 335.739025 
C 512.878246 335.739025 522.673309 333.295013 529.894244 328.945253 
C 537.115178 324.595494 541.172426 318.695126 541.172426 312.543637 
C 541.172426 306.392148 537.115178 300.49178 529.894244 296.14202 
C 522.673309 291.792261 512.878246 289.348249 502.666303 289.348249 
C 492.45436 289.348249 482.659297 291.792261 475.438363 296.14202 
C 468.217429 300.49178 464.160181 306.392148 464.160181 312.543637 
C 464.160181 318.695126 468.217429 324.595494 475.438363 328.945253 
C 482.659297 333.295013 492.45436 335.739025 502.666303 335.739025 
z
" clip-path="url(#peb33151add)" style="fill: #90ee90; stroke: #90ee90; stroke-width: 1.5; stroke-linejoin: miter"/>
   </g>
   <g id="patch_7">
    <path d="M 531.176236 232.831028 
C 541.388179 232.831028 551.183242 230.387016 558.404177 226.037256 
C 565.625111 221.687497 569.682359 215.787129 569.682359 209.63564 
C 569.682359 203.484151 565.625111 197.583783 558.404177 193.234024 
C 551.183242 188.884264 541.388179 186.440252 531.176236 186.440252 
C 520.964293 186.440252 511.16923 188.884264 503.948296 193.234024 
C 496.727362 197.583783 492.670114 203.484151 492.670114 209.63564 
C 492.670114 215.787129 496.727362 221.687497 503.948296 226.037256 
C 511.16923 230.387016 520.964293 232.831028 531.176236 232.831028 
z
" clip-path="url(#peb33151add)" style="fill: #90ee90; stroke: #90ee90; stroke-width: 1.5; stroke-linejoin: miter"/>
   </g>
   <g id="patch_8">
    <path d="M 269.334603 255.363691 
C 279.546546 255.363691 289.341609 252.919679 296.562543 248.569919 
C 303.783478 244.22016 307.840726 238.319792 307.840726 232.168303 
C 307.840726 226.016814 303.783478 220.116446 296.562543 215.766686 
C 289.341609 211.416927 279.546546 208.972915 269.334603 208.972915 
C 259.12266 208.972915 249.327597 211.416927 242.106663 215.766686 
C 234.885728 220.116446 230.82848 226.016814 230.82848 232.168303 
C 230.82848 238.319792 234.885728 244.22016 242.106663 248.569919 
C 249.327597 252.919679 259.12266 255.363691 269.334603 255.363691 
z
" clip-path="url(#peb33151add)" style="fill: #90ee90; stroke: #90ee90; stroke-width: 1.5; stroke-linejoin: miter"/>
   </g>
   <g id="patch_9">
    <path d="M 531.176236 615.886297 
C 541.388179 615.886297 551.183242 613.442285 558.404177 609.092525 
C 565.625111 604.742766 569.682359 598.842398 569.682359 592.690909 
C 569.682359 586.53942 565.625111 580.639052 558.404177 576.289293 
C 551.183242 571.939533 541.388179 569.495521 531.176236 569.495521 
C 520.964293 569.495521 511.16923 571.939533 503.948296 576.289293 
C 496.727362 580.639052 492.670114 586.53942 492.670114 592.690909 
C 492.670114 598.842398 496.727362 604.742766 503.948296 609.092525 
C 511.16923 613.442285 520.964293 615.886297 531.176236 615.886297 
z
" clip-path="url(#peb33151add)" style="fill: #90ee90; stroke: #90ee90; stroke-width: 1.5; stroke-linejoin: miter"/>
   </g>
   <g id="patch_10">
    <path d="M 466.855609 426.452875 
C 477.067552 426.452875 486.862615 424.008863 494.08355 419.659103 
C 501.304484 415.309344 505.361732 409.408976 505.361732 403.257487 
C 505.361732 397.105998 501.304484 391.20563 494.08355 386.85587 
C 486.862615 382.506111 477.067552 380.062098 466.855609 380.062098 
C 456.643666 380.062098 446.848603 382.506111 439.627669 386.85587 
C 432.406735 391.20563 428.349487 397.105998 428.349487 403.257487 
C 428.349487 409.408976 432.406735 415.309344 439.627669 419.659103 
C 446.848603 424.008863 456.643666 426.452875 466.855609 426.452875 
z
" clip-path="url(#peb33151add)" style="fill: #add8e6; stroke: #add8e6; stroke-width: 0.5; stroke-linejoin: miter"/>
   </g>
   <g id="patch_11">
    <path d="M 337.736879 180.237142 
C 347.948822 180.237142 357.743885 177.79313 364.964819 173.44337 
C 372.185754 169.093611 376.243002 163.193243 376.243002 157.041754 
C 376.243002 150.890265 372.185754 144.989897 364.964819 140.640137 
C 357.743885 136.290378 347.948822 133.846366 337.736879 133.846366 
C 327.524936 133.846366 317.729873 136.290378 310.508939 140.640137 
C 303.288005 144.989897 299.230757 150.890265 299.230757 157.041754 
C 299.230757 163.193243 303.288005 169.093611 310.508939 173.44337 
C 317.729873 177.79313 327.524936 180.237142 337.736879 180.237142 
z
" clip-path="url(#peb33151add)" style="fill: #add8e6; stroke: #add8e6; stroke-width: 0.5; stroke-linejoin: miter"/>
   </g>
   <g id="patch_12">
    <path d="M 205.013976 448.985538 
C 215.225919 448.985538 225.020982 446.541525 232.241916 442.191766 
C 239.46285 437.842006 243.520098 431.941638 243.520098 425.79015 
C 243.520098 419.638661 239.46285 413.738293 232.241916 409.388533 
C 225.020982 405.038774 215.225919 402.594761 205.013976 402.594761 
C 194.802033 402.594761 185.00697 405.038774 177.786036 409.388533 
C 170.565101 413.738293 166.507853 419.638661 166.507853 425.79015 
C 166.507853 431.941638 170.565101 437.842006 177.786036 442.191766 
C 185.00697 446.541525 194.802033 448.985538 205.013976 448.985538 
z
" clip-path="url(#peb33151add)" style="fill: #add8e6; stroke: #add8e6; stroke-width: 0.5; stroke-linejoin: miter"/>
   </g>
   <g id="patch_13">
    <path d="M 599.578512 540.761074 
C 609.790455 540.761074 619.585519 538.317061 626.806453 533.967302 
C 634.027387 529.617542 638.084635 523.717174 638.084635 517.565686 
C 638.084635 511.414197 634.027387 505.513829 626.806453 501.164069 
C 619.585519 496.81431 609.790455 494.370297 599.578512 494.370297 
C 589.366569 494.370297 579.571506 496.81431 572.350572 501.164069 
C 565.129638 505.513829 561.07239 511.414197 561.07239 517.565686 
C 561.07239 523.717174 565.129638 529.617542 572.350572 533.967302 
C 579.571506 538.317061 589.366569 540.761074 599.578512 540.761074 
z
" clip-path="url(#peb33151add)" style="fill: #add8e6; stroke: #add8e6; stroke-width: 0.5; stroke-linejoin: miter"/>
   </g>
   <g id="patch_14">
    <path d="M 599.578512 157.704479 
C 609.790455 157.704479 619.585519 155.260467 626.806453 150.910707 
C 634.027387 146.560948 638.084635 140.66058 638.084635 134.509091 
C 638.084635 128.357602 634.027387 122.457234 626.806453 118.107475 
C 619.585519 113.757715 609.790455 111.313703 599.578512 111.313703 
C 589.366569 111.313703 579.571506 113.757715 572.350572 118.107475 
C 565.129638 122.457234 561.07239 128.357602 561.07239 134.509091 
C 561.07239 140.66058 565.129638 146.560948 572.350572 150.910707 
C 579.571506 155.260467 589.366569 157.704479 599.578512 157.704479 
z
" clip-path="url(#peb33151add)" style="fill: #add8e6; stroke: #add8e6; stroke-width: 0.5; stroke-linejoin: miter"/>
   </g>
   <g id="patch_15">
    <path d="M 90 640.8 
L 90 86.4 
" style="fill: none; stroke: #000000; stroke-width: 0.8; stroke-linejoin: miter; stroke-linecap: square"/>
   </g>
   <g id="patch_16">
    <path d="M 648 640.8 
L 648 86.4 
" style="fill: none; stroke: #000000; stroke-width: 0.8; stroke-linejoin: miter; stroke-linecap: square"/>
   </g>
   <g id="patch_17">
    <path d="M 90 640.8 
L 648 640.8 
" style="fill: none; stroke: #000000; stroke-width: 0.8; stroke-linejoin: miter; stroke-linecap: square"/>
   </g>
   <g id="patch_18">
    <path d="M 90 86.4 
L 648 86.4 
" style="fill: none; stroke: #000000; stroke-width: 0.8; stroke-linejoin: miter; stroke-linecap: square"/>
   </g>
   <g id="text_1">
    <!-- hsa-mir-3178 -->
    <g transform="translate(373.722295 482.235095) scale(0.08 -0.08)">
     <defs>
      <path id="DejaVuSans-68" d="M 3513 2113 
L 3513 0 
L 2938 0 
L 2938 2094 
Q 2938 2591 2744 2837 
Q 2550 3084 2163 3084 
Q 1697 3084 1428 2787 
Q 1159 2491 1159 1978 
L 1159 0 
L 581 0 
L 581 4863 
L 1159 4863 
L 1159 2956 
Q 1366 3272 1645 3428 
Q 1925 3584 2291 3584 
Q 2894 3584 3203 3211 
Q 3513 2838 3513 2113 
z
" transform="scale(0.015625)"/>
      <path id="DejaVuSans-73" d="M 2834 3397 
L 2834 2853 
Q 2591 2978 2328 3040 
Q 2066 3103 1784 3103 
Q 1356 3103 1142 2972 
Q 928 2841 928 2578 
Q 928 2378 1081 2264 
Q 1234 2150 1697 2047 
L 1894 2003 
Q 2506 1872 2764 1633 
Q 3022 1394 3022 966 
Q 3022 478 2636 193 
Q 2250 -91 1575 -91 
Q 1294 -91 989 -36 
Q 684 19 347 128 
L 347 722 
Q 666 556 975 473 
Q 1284 391 1588 391 
Q 1994 391 2212 530 
Q 2431 669 2431 922 
Q 2431 1156 2273 1281 
Q 2116 1406 1581 1522 
L 1381 1569 
Q 847 1681 609 1914 
Q 372 2147 372 2553 
Q 372 3047 722 3315 
Q 1072 3584 1716 3584 
Q 2034 3584 2315 3537 
Q 2597 3491 2834 3397 
z
" transform="scale(0.015625)"/>
      <path id="DejaVuSans-61" d="M 2194 1759 
Q 1497 1759 1228 1600 
Q 959 1441 959 1056 
Q 959 750 1161 570 
Q 1363 391 1709 391 
Q 2188 391 2477 730 
Q 2766 1069 2766 1631 
L 2766 1759 
L 2194 1759 
z
M 3341 1997 
L 3341 0 
L 2766 0 
L 2766 531 
Q 2569 213 2275 61 
Q 1981 -91 1556 -91 
Q 1019 -91 701 211 
Q 384 513 384 1019 
Q 384 1609 779 1909 
Q 1175 2209 1959 2209 
L 2766 2209 
L 2766 2266 
Q 2766 2663 2505 2880 
Q 2244 3097 1772 3097 
Q 1472 3097 1187 3025 
Q 903 2953 641 2809 
L 641 3341 
Q 956 3463 1253 3523 
Q 1550 3584 1831 3584 
Q 2591 3584 2966 3190 
Q 3341 2797 3341 1997 
z
" transform="scale(0.015625)"/>
      <path id="DejaVuSans-2d" d="M 313 2009 
L 1997 2009 
L 1997 1497 
L 313 1497 
L 313 2009 
z
" transform="scale(0.015625)"/>
      <path id="DejaVuSans-6d" d="M 3328 2828 
Q 3544 3216 3844 3400 
Q 4144 3584 4550 3584 
Q 5097 3584 5394 3201 
Q 5691 2819 5691 2113 
L 5691 0 
L 5113 0 
L 5113 2094 
Q 5113 2597 4934 2840 
Q 4756 3084 4391 3084 
Q 3944 3084 3684 2787 
Q 3425 2491 3425 1978 
L 3425 0 
L 2847 0 
L 2847 2094 
Q 2847 2600 2669 2842 
Q 2491 3084 2119 3084 
Q 1678 3084 1418 2786 
Q 1159 2488 1159 1978 
L 1159 0 
L 581 0 
L 581 3500 
L 1159 3500 
L 1159 2956 
Q 1356 3278 1631 3431 
Q 1906 3584 2284 3584 
Q 2666 3584 2933 3390 
Q 3200 3197 3328 2828 
z
" transform="scale(0.015625)"/>
      <path id="DejaVuSans-69" d="M 603 3500 
L 1178 3500 
L 1178 0 
L 603 0 
L 603 3500 
z
M 603 4863 
L 1178 4863 
L 1178 4134 
L 603 4134 
L 603 4863 
z
" transform="scale(0.015625)"/>
      <path id="DejaVuSans-72" d="M 2631 2963 
Q 2534 3019 2420 3045 
Q 2306 3072 2169 3072 
Q 1681 3072 1420 2755 
Q 1159 2438 1159 1844 
L 1159 0 
L 581 0 
L 581 3500 
L 1159 3500 
L 1159 2956 
Q 1341 3275 1631 3429 
Q 1922 3584 2338 3584 
Q 2397 3584 2469 3576 
Q 2541 3569 2628 3553 
L 2631 2963 
z
" transform="scale(0.015625)"/>
      <path id="DejaVuSans-33" d="M 2597 2516 
Q 3050 2419 3304 2112 
Q 3559 1806 3559 1356 
Q 3559 666 3084 287 
Q 2609 -91 1734 -91 
Q 1441 -91 1130 -33 
Q 819 25 488 141 
L 488 750 
Q 750 597 1062 519 
Q 1375 441 1716 441 
Q 2309 441 2620 675 
Q 2931 909 2931 1356 
Q 2931 1769 2642 2001 
Q 2353 2234 1838 2234 
L 1294 2234 
L 1294 2753 
L 1863 2753 
Q 2328 2753 2575 2939 
Q 2822 3125 2822 3475 
Q 2822 3834 2567 4026 
Q 2313 4219 1838 4219 
Q 1578 4219 1281 4162 
Q 984 4106 628 3988 
L 628 4550 
Q 988 4650 1302 4700 
Q 1616 4750 1894 4750 
Q 2613 4750 3031 4423 
Q 3450 4097 3450 3541 
Q 3450 3153 3228 2886 
Q 3006 2619 2597 2516 
z
" transform="scale(0.015625)"/>
      <path id="DejaVuSans-31" d="M 794 531 
L 1825 531 
L 1825 4091 
L 703 3866 
L 703 4441 
L 1819 4666 
L 2450 4666 
L 2450 531 
L 3481 531 
L 3481 0 
L 794 0 
L 794 531 
z
" transform="scale(0.015625)"/>
      <path id="DejaVuSans-37" d="M 525 4666 
L 3525 4666 
L 3525 4397 
L 1831 0 
L 1172 0 
L 2766 4134 
L 525 4134 
L 525 4666 
z
" transform="scale(0.015625)"/>
      <path id="DejaVuSans-38" d="M 2034 2216 
Q 1584 2216 1326 1975 
Q 1069 1734 1069 1313 
Q 1069 891 1326 650 
Q 1584 409 2034 409 
Q 2484 409 2743 651 
Q 3003 894 3003 1313 
Q 3003 1734 2745 1975 
Q 2488 2216 2034 2216 
z
M 1403 2484 
Q 997 2584 770 2862 
Q 544 3141 544 3541 
Q 544 4100 942 4425 
Q 1341 4750 2034 4750 
Q 2731 4750 3128 4425 
Q 3525 4100 3525 3541 
Q 3525 3141 3298 2862 
Q 3072 2584 2669 2484 
Q 3125 2378 3379 2068 
Q 3634 1759 3634 1313 
Q 3634 634 3220 271 
Q 2806 -91 2034 -91 
Q 1263 -91 848 271 
Q 434 634 434 1313 
Q 434 1759 690 2068 
Q 947 2378 1403 2484 
z
M 1172 3481 
Q 1172 3119 1398 2916 
Q 1625 2713 2034 2713 
Q 2441 2713 2670 2916 
Q 2900 3119 2900 3481 
Q 2900 3844 2670 4047 
Q 2441 4250 2034 4250 
Q 1625 4250 1398 4047 
Q 1172 3844 1172 3481 
z
" transform="scale(0.015625)"/>
     </defs>
     <use xlink:href="#DejaVuSans-68"/>
     <use xlink:href="#DejaVuSans-73" x="63.378906"/>
     <use xlink:href="#DejaVuSans-61" x="115.478516"/>
     <use xlink:href="#DejaVuSans-2d" x="176.757812"/>
     <use xlink:href="#DejaVuSans-6d" x="212.841797"/>
     <use xlink:href="#DejaVuSans-69" x="310.253906"/>
     <use xlink:href="#DejaVuSans-72" x="338.037109"/>
     <use xlink:href="#DejaVuSans-2d" x="372.775391"/>
     <use xlink:href="#DejaVuSans-33" x="408.859375"/>
     <use xlink:href="#DejaVuSans-31" x="472.482422"/>
     <use xlink:href="#DejaVuSans-37" x="536.105469"/>
     <use xlink:href="#DejaVuSans-38" x="599.728516"/>
    </g>
   </g>
   <g id="text_2">
    <!-- hsa-mir-4479 -->
    <g transform="translate(111.888363 504.767758) scale(0.08 -0.08)">
     <defs>
      <path id="DejaVuSans-34" d="M 2419 4116 
L 825 1625 
L 2419 1625 
L 2419 4116 
z
M 2253 4666 
L 3047 4666 
L 3047 1625 
L 3713 1625 
L 3713 1100 
L 3047 1100 
L 3047 0 
L 2419 0 
L 2419 1100 
L 313 1100 
L 313 1709 
L 2253 4666 
z
" transform="scale(0.015625)"/>
      <path id="DejaVuSans-39" d="M 703 97 
L 703 672 
Q 941 559 1184 500 
Q 1428 441 1663 441 
Q 2288 441 2617 861 
Q 2947 1281 2994 2138 
Q 2813 1869 2534 1725 
Q 2256 1581 1919 1581 
Q 1219 1581 811 2004 
Q 403 2428 403 3163 
Q 403 3881 828 4315 
Q 1253 4750 1959 4750 
Q 2769 4750 3195 4129 
Q 3622 3509 3622 2328 
Q 3622 1225 3098 567 
Q 2575 -91 1691 -91 
Q 1453 -91 1209 -44 
Q 966 3 703 97 
z
M 1959 2075 
Q 2384 2075 2632 2365 
Q 2881 2656 2881 3163 
Q 2881 3666 2632 3958 
Q 2384 4250 1959 4250 
Q 1534 4250 1286 3958 
Q 1038 3666 1038 3163 
Q 1038 2656 1286 2365 
Q 1534 2075 1959 2075 
z
" transform="scale(0.015625)"/>
     </defs>
     <use xlink:href="#DejaVuSans-68"/>
     <use xlink:href="#DejaVuSans-73" x="63.378906"/>
     <use xlink:href="#DejaVuSans-61" x="115.478516"/>
     <use xlink:href="#DejaVuSans-2d" x="176.757812"/>
     <use xlink:href="#DejaVuSans-6d" x="212.841797"/>
     <use xlink:href="#DejaVuSans-69" x="310.253906"/>
     <use xlink:href="#DejaVuSans-72" x="338.037109"/>
     <use xlink:href="#DejaVuSans-2d" x="372.775391"/>
     <use xlink:href="#DejaVuSans-34" x="408.859375"/>
     <use xlink:href="#DejaVuSans-34" x="472.482422"/>
     <use xlink:href="#DejaVuSans-37" x="536.105469"/>
     <use xlink:href="#DejaVuSans-39" x="599.728516"/>
    </g>
   </g>
   <g id="text_3">
    <!-- hsa-mir-8072 -->
    <g transform="translate(214.291545 337.2838) scale(0.08 -0.08)">
     <defs>
      <path id="DejaVuSans-30" d="M 2034 4250 
Q 1547 4250 1301 3770 
Q 1056 3291 1056 2328 
Q 1056 1369 1301 889 
Q 1547 409 2034 409 
Q 2525 409 2770 889 
Q 3016 1369 3016 2328 
Q 3016 3291 2770 3770 
Q 2525 4250 2034 4250 
z
M 2034 4750 
Q 2819 4750 3233 4129 
Q 3647 3509 3647 2328 
Q 3647 1150 3233 529 
Q 2819 -91 2034 -91 
Q 1250 -91 836 529 
Q 422 1150 422 2328 
Q 422 3509 836 4129 
Q 1250 4750 2034 4750 
z
" transform="scale(0.015625)"/>
      <path id="DejaVuSans-32" d="M 1228 531 
L 3431 531 
L 3431 0 
L 469 0 
L 469 531 
Q 828 903 1448 1529 
Q 2069 2156 2228 2338 
Q 2531 2678 2651 2914 
Q 2772 3150 2772 3378 
Q 2772 3750 2511 3984 
Q 2250 4219 1831 4219 
Q 1534 4219 1204 4116 
Q 875 4013 500 3803 
L 500 4441 
Q 881 4594 1212 4672 
Q 1544 4750 1819 4750 
Q 2544 4750 2975 4387 
Q 3406 4025 3406 3419 
Q 3406 3131 3298 2873 
Q 3191 2616 2906 2266 
Q 2828 2175 2409 1742 
Q 1991 1309 1228 531 
z
" transform="scale(0.015625)"/>
     </defs>
     <use xlink:href="#DejaVuSans-68"/>
     <use xlink:href="#DejaVuSans-73" x="63.378906"/>
     <use xlink:href="#DejaVuSans-61" x="115.478516"/>
     <use xlink:href="#DejaVuSans-2d" x="176.757812"/>
     <use xlink:href="#DejaVuSans-6d" x="212.841797"/>
     <use xlink:href="#DejaVuSans-69" x="310.253906"/>
     <use xlink:href="#DejaVuSans-72" x="338.037109"/>
     <use xlink:href="#DejaVuSans-2d" x="372.775391"/>
     <use xlink:href="#DejaVuSans-38" x="408.859375"/>
     <use xlink:href="#DejaVuSans-30" x="472.482422"/>
     <use xlink:href="#DejaVuSans-37" x="536.105469"/>
     <use xlink:href="#DejaVuSans-32" x="599.728516"/>
    </g>
   </g>
   <g id="text_4">
    <!-- hsa-mir-4442 -->
    <g transform="translate(476.133178 314.751137) scale(0.08 -0.08)">
     <use xlink:href="#DejaVuSans-68"/>
     <use xlink:href="#DejaVuSans-73" x="63.378906"/>
     <use xlink:href="#DejaVuSans-61" x="115.478516"/>
     <use xlink:href="#DejaVuSans-2d" x="176.757812"/>
     <use xlink:href="#DejaVuSans-6d" x="212.841797"/>
     <use xlink:href="#DejaVuSans-69" x="310.253906"/>
     <use xlink:href="#DejaVuSans-72" x="338.037109"/>
     <use xlink:href="#DejaVuSans-2d" x="372.775391"/>
     <use xlink:href="#DejaVuSans-34" x="408.859375"/>
     <use xlink:href="#DejaVuSans-34" x="472.482422"/>
     <use xlink:href="#DejaVuSans-34" x="536.105469"/>
     <use xlink:href="#DejaVuSans-32" x="599.728516"/>
    </g>
   </g>
   <g id="text_5">
    <!-- hsa-mir-3154 -->
    <g transform="translate(504.643111 211.84314) scale(0.08 -0.08)">
     <defs>
      <path id="DejaVuSans-35" d="M 691 4666 
L 3169 4666 
L 3169 4134 
L 1269 4134 
L 1269 2991 
Q 1406 3038 1543 3061 
Q 1681 3084 1819 3084 
Q 2600 3084 3056 2656 
Q 3513 2228 3513 1497 
Q 3513 744 3044 326 
Q 2575 -91 1722 -91 
Q 1428 -91 1123 -41 
Q 819 9 494 109 
L 494 744 
Q 775 591 1075 516 
Q 1375 441 1709 441 
Q 2250 441 2565 725 
Q 2881 1009 2881 1497 
Q 2881 1984 2565 2268 
Q 2250 2553 1709 2553 
Q 1456 2553 1204 2497 
Q 953 2441 691 2322 
L 691 4666 
z
" transform="scale(0.015625)"/>
     </defs>
     <use xlink:href="#DejaVuSans-68"/>
     <use xlink:href="#DejaVuSans-73" x="63.378906"/>
     <use xlink:href="#DejaVuSans-61" x="115.478516"/>
     <use xlink:href="#DejaVuSans-2d" x="176.757812"/>
     <use xlink:href="#DejaVuSans-6d" x="212.841797"/>
     <use xlink:href="#DejaVuSans-69" x="310.253906"/>
     <use xlink:href="#DejaVuSans-72" x="338.037109"/>
     <use xlink:href="#DejaVuSans-2d" x="372.775391"/>
     <use xlink:href="#DejaVuSans-33" x="408.859375"/>
     <use xlink:href="#DejaVuSans-31" x="472.482422"/>
     <use xlink:href="#DejaVuSans-35" x="536.105469"/>
     <use xlink:href="#DejaVuSans-34" x="599.728516"/>
    </g>
   </g>
   <g id="text_6">
    <!-- hsa-mir-1270 -->
    <g transform="translate(242.801478 234.375803) scale(0.08 -0.08)">
     <use xlink:href="#DejaVuSans-68"/>
     <use xlink:href="#DejaVuSans-73" x="63.378906"/>
     <use xlink:href="#DejaVuSans-61" x="115.478516"/>
     <use xlink:href="#DejaVuSans-2d" x="176.757812"/>
     <use xlink:href="#DejaVuSans-6d" x="212.841797"/>
     <use xlink:href="#DejaVuSans-69" x="310.253906"/>
     <use xlink:href="#DejaVuSans-72" x="338.037109"/>
     <use xlink:href="#DejaVuSans-2d" x="372.775391"/>
     <use xlink:href="#DejaVuSans-31" x="408.859375"/>
     <use xlink:href="#DejaVuSans-32" x="472.482422"/>
     <use xlink:href="#DejaVuSans-37" x="536.105469"/>
     <use xlink:href="#DejaVuSans-30" x="599.728516"/>
    </g>
   </g>
   <g id="text_7">
    <!-- hsa-mir-4491 -->
    <g transform="translate(504.643111 594.898409) scale(0.08 -0.08)">
     <use xlink:href="#DejaVuSans-68"/>
     <use xlink:href="#DejaVuSans-73" x="63.378906"/>
     <use xlink:href="#DejaVuSans-61" x="115.478516"/>
     <use xlink:href="#DejaVuSans-2d" x="176.757812"/>
     <use xlink:href="#DejaVuSans-6d" x="212.841797"/>
     <use xlink:href="#DejaVuSans-69" x="310.253906"/>
     <use xlink:href="#DejaVuSans-72" x="338.037109"/>
     <use xlink:href="#DejaVuSans-2d" x="372.775391"/>
     <use xlink:href="#DejaVuSans-34" x="408.859375"/>
     <use xlink:href="#DejaVuSans-34" x="472.482422"/>
     <use xlink:href="#DejaVuSans-39" x="536.105469"/>
     <use xlink:href="#DejaVuSans-31" x="599.728516"/>
    </g>
   </g>
   <g id="text_8">
    <!-- AMH -->
    <g transform="translate(457.659984 405.464987) scale(0.08 -0.08)">
     <defs>
      <path id="DejaVuSans-41" d="M 2188 4044 
L 1331 1722 
L 3047 1722 
L 2188 4044 
z
M 1831 4666 
L 2547 4666 
L 4325 0 
L 3669 0 
L 3244 1197 
L 1141 1197 
L 716 0 
L 50 0 
L 1831 4666 
z
" transform="scale(0.015625)"/>
      <path id="DejaVuSans-4d" d="M 628 4666 
L 1569 4666 
L 2759 1491 
L 3956 4666 
L 4897 4666 
L 4897 0 
L 4281 0 
L 4281 4097 
L 3078 897 
L 2444 897 
L 1241 4097 
L 1241 0 
L 628 0 
L 628 4666 
z
" transform="scale(0.015625)"/>
      <path id="DejaVuSans-48" d="M 628 4666 
L 1259 4666 
L 1259 2753 
L 3553 2753 
L 3553 4666 
L 4184 4666 
L 4184 0 
L 3553 0 
L 3553 2222 
L 1259 2222 
L 1259 0 
L 628 0 
L 628 4666 
z
" transform="scale(0.015625)"/>
     </defs>
     <use xlink:href="#DejaVuSans-41"/>
     <use xlink:href="#DejaVuSans-4d" x="68.408203"/>
     <use xlink:href="#DejaVuSans-48" x="154.6875"/>
    </g>
   </g>
   <g id="text_9">
    <!-- ZNF90 -->
    <g transform="translate(324.613754 159.249254) scale(0.08 -0.08)">
     <defs>
      <path id="DejaVuSans-5a" d="M 359 4666 
L 4025 4666 
L 4025 4184 
L 1075 531 
L 4097 531 
L 4097 0 
L 288 0 
L 288 481 
L 3238 4134 
L 359 4134 
L 359 4666 
z
" transform="scale(0.015625)"/>
      <path id="DejaVuSans-4e" d="M 628 4666 
L 1478 4666 
L 3547 763 
L 3547 4666 
L 4159 4666 
L 4159 0 
L 3309 0 
L 1241 3903 
L 1241 0 
L 628 0 
L 628 4666 
z
" transform="scale(0.015625)"/>
      <path id="DejaVuSans-46" d="M 628 4666 
L 3309 4666 
L 3309 4134 
L 1259 4134 
L 1259 2759 
L 3109 2759 
L 3109 2228 
L 1259 2228 
L 1259 0 
L 628 0 
L 628 4666 
z
" transform="scale(0.015625)"/>
     </defs>
     <use xlink:href="#DejaVuSans-5a"/>
     <use xlink:href="#DejaVuSans-4e" x="68.505859"/>
     <use xlink:href="#DejaVuSans-46" x="143.310547"/>
     <use xlink:href="#DejaVuSans-39" x="200.830078"/>
     <use xlink:href="#DejaVuSans-30" x="264.453125"/>
    </g>
   </g>
   <g id="text_10">
    <!-- VGF -->
    <g transform="translate(196.877726 427.99765) scale(0.08 -0.08)">
     <defs>
      <path id="DejaVuSans-56" d="M 1831 0 
L 50 4666 
L 709 4666 
L 2188 738 
L 3669 4666 
L 4325 4666 
L 2547 0 
L 1831 0 
z
" transform="scale(0.015625)"/>
      <path id="DejaVuSans-47" d="M 3809 666 
L 3809 1919 
L 2778 1919 
L 2778 2438 
L 4434 2438 
L 4434 434 
Q 4069 175 3628 42 
Q 3188 -91 2688 -91 
Q 1594 -91 976 548 
Q 359 1188 359 2328 
Q 359 3472 976 4111 
Q 1594 4750 2688 4750 
Q 3144 4750 3555 4637 
Q 3966 4525 4313 4306 
L 4313 3634 
Q 3963 3931 3569 4081 
Q 3175 4231 2741 4231 
Q 1884 4231 1454 3753 
Q 1025 3275 1025 2328 
Q 1025 1384 1454 906 
Q 1884 428 2741 428 
Q 3075 428 3337 486 
Q 3600 544 3809 666 
z
" transform="scale(0.015625)"/>
     </defs>
     <use xlink:href="#DejaVuSans-56"/>
     <use xlink:href="#DejaVuSans-47" x="68.408203"/>
     <use xlink:href="#DejaVuSans-46" x="145.898438"/>
    </g>
   </g>
   <g id="text_11">
    <!-- MS4A1 -->
    <g transform="translate(585.761637 519.773186) scale(0.08 -0.08)">
     <defs>
      <path id="DejaVuSans-53" d="M 3425 4513 
L 3425 3897 
Q 3066 4069 2747 4153 
Q 2428 4238 2131 4238 
Q 1616 4238 1336 4038 
Q 1056 3838 1056 3469 
Q 1056 3159 1242 3001 
Q 1428 2844 1947 2747 
L 2328 2669 
Q 3034 2534 3370 2195 
Q 3706 1856 3706 1288 
Q 3706 609 3251 259 
Q 2797 -91 1919 -91 
Q 1588 -91 1214 -16 
Q 841 59 441 206 
L 441 856 
Q 825 641 1194 531 
Q 1563 422 1919 422 
Q 2459 422 2753 634 
Q 3047 847 3047 1241 
Q 3047 1584 2836 1778 
Q 2625 1972 2144 2069 
L 1759 2144 
Q 1053 2284 737 2584 
Q 422 2884 422 3419 
Q 422 4038 858 4394 
Q 1294 4750 2059 4750 
Q 2388 4750 2728 4690 
Q 3069 4631 3425 4513 
z
" transform="scale(0.015625)"/>
     </defs>
     <use xlink:href="#DejaVuSans-4d"/>
     <use xlink:href="#DejaVuSans-53" x="86.279297"/>
     <use xlink:href="#DejaVuSans-34" x="149.755859"/>
     <use xlink:href="#DejaVuSans-41" x="213.378906"/>
     <use xlink:href="#DejaVuSans-31" x="281.787109"/>
    </g>
   </g>
   <g id="text_12">
    <!-- VXN -->
    <g transform="translate(591.109762 136.716591) scale(0.08 -0.08)">
     <defs>
      <path id="DejaVuSans-58" d="M 403 4666 
L 1081 4666 
L 2241 2931 
L 3406 4666 
L 4084 4666 
L 2584 2425 
L 4184 0 
L 3506 0 
L 2194 1984 
L 872 0 
L 191 0 
L 1856 2491 
L 403 4666 
z
" transform="scale(0.015625)"/>
     </defs>
     <use xlink:href="#DejaVuSans-56"/>
     <use xlink:href="#DejaVuSans-58" x="68.408203"/>
     <use xlink:href="#DejaVuSans-4e" x="136.914062"/>
    </g>
   </g>
   <g id="text_13">
    <!-- Coregulation network -->
    <g transform="translate(304.395 80.4) scale(0.12 -0.12)">
     <defs>
      <path id="DejaVuSans-43" d="M 4122 4306 
L 4122 3641 
Q 3803 3938 3442 4084 
Q 3081 4231 2675 4231 
Q 1875 4231 1450 3742 
Q 1025 3253 1025 2328 
Q 1025 1406 1450 917 
Q 1875 428 2675 428 
Q 3081 428 3442 575 
Q 3803 722 4122 1019 
L 4122 359 
Q 3791 134 3420 21 
Q 3050 -91 2638 -91 
Q 1578 -91 968 557 
Q 359 1206 359 2328 
Q 359 3453 968 4101 
Q 1578 4750 2638 4750 
Q 3056 4750 3426 4639 
Q 3797 4528 4122 4306 
z
" transform="scale(0.015625)"/>
      <path id="DejaVuSans-6f" d="M 1959 3097 
Q 1497 3097 1228 2736 
Q 959 2375 959 1747 
Q 959 1119 1226 758 
Q 1494 397 1959 397 
Q 2419 397 2687 759 
Q 2956 1122 2956 1747 
Q 2956 2369 2687 2733 
Q 2419 3097 1959 3097 
z
M 1959 3584 
Q 2709 3584 3137 3096 
Q 3566 2609 3566 1747 
Q 3566 888 3137 398 
Q 2709 -91 1959 -91 
Q 1206 -91 779 398 
Q 353 888 353 1747 
Q 353 2609 779 3096 
Q 1206 3584 1959 3584 
z
" transform="scale(0.015625)"/>
      <path id="DejaVuSans-65" d="M 3597 1894 
L 3597 1613 
L 953 1613 
Q 991 1019 1311 708 
Q 1631 397 2203 397 
Q 2534 397 2845 478 
Q 3156 559 3463 722 
L 3463 178 
Q 3153 47 2828 -22 
Q 2503 -91 2169 -91 
Q 1331 -91 842 396 
Q 353 884 353 1716 
Q 353 2575 817 3079 
Q 1281 3584 2069 3584 
Q 2775 3584 3186 3129 
Q 3597 2675 3597 1894 
z
M 3022 2063 
Q 3016 2534 2758 2815 
Q 2500 3097 2075 3097 
Q 1594 3097 1305 2825 
Q 1016 2553 972 2059 
L 3022 2063 
z
" transform="scale(0.015625)"/>
      <path id="DejaVuSans-67" d="M 2906 1791 
Q 2906 2416 2648 2759 
Q 2391 3103 1925 3103 
Q 1463 3103 1205 2759 
Q 947 2416 947 1791 
Q 947 1169 1205 825 
Q 1463 481 1925 481 
Q 2391 481 2648 825 
Q 2906 1169 2906 1791 
z
M 3481 434 
Q 3481 -459 3084 -895 
Q 2688 -1331 1869 -1331 
Q 1566 -1331 1297 -1286 
Q 1028 -1241 775 -1147 
L 775 -588 
Q 1028 -725 1275 -790 
Q 1522 -856 1778 -856 
Q 2344 -856 2625 -561 
Q 2906 -266 2906 331 
L 2906 616 
Q 2728 306 2450 153 
Q 2172 0 1784 0 
Q 1141 0 747 490 
Q 353 981 353 1791 
Q 353 2603 747 3093 
Q 1141 3584 1784 3584 
Q 2172 3584 2450 3431 
Q 2728 3278 2906 2969 
L 2906 3500 
L 3481 3500 
L 3481 434 
z
" transform="scale(0.015625)"/>
      <path id="DejaVuSans-75" d="M 544 1381 
L 544 3500 
L 1119 3500 
L 1119 1403 
Q 1119 906 1312 657 
Q 1506 409 1894 409 
Q 2359 409 2629 706 
Q 2900 1003 2900 1516 
L 2900 3500 
L 3475 3500 
L 3475 0 
L 2900 0 
L 2900 538 
Q 2691 219 2414 64 
Q 2138 -91 1772 -91 
Q 1169 -91 856 284 
Q 544 659 544 1381 
z
M 1991 3584 
L 1991 3584 
z
" transform="scale(0.015625)"/>
      <path id="DejaVuSans-6c" d="M 603 4863 
L 1178 4863 
L 1178 0 
L 603 0 
L 603 4863 
z
" transform="scale(0.015625)"/>
      <path id="DejaVuSans-74" d="M 1172 4494 
L 1172 3500 
L 2356 3500 
L 2356 3053 
L 1172 3053 
L 1172 1153 
Q 1172 725 1289 603 
Q 1406 481 1766 481 
L 2356 481 
L 2356 0 
L 1766 0 
Q 1100 0 847 248 
Q 594 497 594 1153 
L 594 3053 
L 172 3053 
L 172 3500 
L 594 3500 
L 594 4494 
L 1172 4494 
z
" transform="scale(0.015625)"/>
      <path id="DejaVuSans-6e" d="M 3513 2113 
L 3513 0 
L 2938 0 
L 2938 2094 
Q 2938 2591 2744 2837 
Q 2550 3084 2163 3084 
Q 1697 3084 1428 2787 
Q 1159 2491 1159 1978 
L 1159 0 
L 581 0 
L 581 3500 
L 1159 3500 
L 1159 2956 
Q 1366 3272 1645 3428 
Q 1925 3584 2291 3584 
Q 2894 3584 3203 3211 
Q 3513 2838 3513 2113 
z
" transform="scale(0.015625)"/>
      <path id="DejaVuSans-20" transform="scale(0.015625)"/>
      <path id="DejaVuSans-77" d="M 269 3500 
L 844 3500 
L 1563 769 
L 2278 3500 
L 2956 3500 
L 3675 769 
L 4391 3500 
L 4966 3500 
L 4050 0 
L 3372 0 
L 2619 2869 
L 1863 0 
L 1184 0 
L 269 3500 
z
" transform="scale(0.015625)"/>
      <path id="DejaVuSans-6b" d="M 581 4863 
L 1159 4863 
L 1159 1991 
L 2875 3500 
L 3609 3500 
L 1753 1863 
L 3688 0 
L 2938 0 
L 1159 1709 
L 1159 0 
L 581 0 
L 581 4863 
z
" transform="scale(0.015625)"/>
     </defs>
     <use xlink:href="#DejaVuSans-43"/>
     <use xlink:href="#DejaVuSans-6f" x="69.824219"/>
     <use xlink:href="#DejaVuSans-72" x="131.005859"/>
     <use xlink:href="#DejaVuSans-65" x="169.869141"/>
     <use xlink:href="#DejaVuSans-67" x="231.392578"/>
     <use xlink:href="#DejaVuSans-75" x="294.869141"/>
     <use xlink:href="#DejaVuSans-6c" x="358.248047"/>
     <use xlink:href="#DejaVuSans-61" x="386.03125"/>
     <use xlink:href="#DejaVuSans-74" x="447.310547"/>
     <use xlink:href="#DejaVuSans-69" x="486.519531"/>
     <use xlink:href="#DejaVuSans-6f" x="514.302734"/>
     <use xlink:href="#DejaVuSans-6e" x="575.484375"/>
     <use xlink:href="#DejaVuSans-20" x="638.863281"/>
     <use xlink:href="#DejaVuSans-6e" x="670.650391"/>
     <use xlink:href="#DejaVuSans-65" x="734.029297"/>
     <use xlink:href="#DejaVuSans-74" x="795.552734"/>
     <use xlink:href="#DejaVuSans-77" x="834.761719"/>
     <use xlink:href="#DejaVuSans-6f" x="916.548828"/>
     <use xlink:href="#DejaVuSans-72" x="977.730469"/>
     <use xlink:href="#DejaVuSans-6b" x="1018.84375"/>
    </g>
   </g>
   <g id="legend_1">
    <g id="patch_19">
     <path d="M 496.5 153.1125 
L 641 153.1125 
Q 643 153.1125 643 151.1125 
L 643 93.4 
Q 643 91.4 641 91.4 
L 496.5 91.4 
Q 494.5 91.4 494.5 93.4 
L 494.5 151.1125 
Q 494.5 153.1125 496.5 153.1125 
z
" style="fill: #ffffff; opacity: 0.8; stroke: #cccccc; stroke-linejoin: miter"/>
    </g>
    <g id="line2d_1">
     <path d="M 498.5 99.498437 
L 508.5 99.498437 
L 518.5 99.498437 
" style="fill: none; stroke: #800080; stroke-width: 2; stroke-linecap: square"/>
    </g>
    <g id="text_14">
     <!-- Structural Information -->
     <g transform="translate(526.5 102.998437) scale(0.1 -0.1)">
      <defs>
       <path id="DejaVuSans-63" d="M 3122 3366 
L 3122 2828 
Q 2878 2963 2633 3030 
Q 2388 3097 2138 3097 
Q 1578 3097 1268 2742 
Q 959 2388 959 1747 
Q 959 1106 1268 751 
Q 1578 397 2138 397 
Q 2388 397 2633 464 
Q 2878 531 3122 666 
L 3122 134 
Q 2881 22 2623 -34 
Q 2366 -91 2075 -91 
Q 1284 -91 818 406 
Q 353 903 353 1747 
Q 353 2603 823 3093 
Q 1294 3584 2113 3584 
Q 2378 3584 2631 3529 
Q 2884 3475 3122 3366 
z
" transform="scale(0.015625)"/>
       <path id="DejaVuSans-49" d="M 628 4666 
L 1259 4666 
L 1259 0 
L 628 0 
L 628 4666 
z
" transform="scale(0.015625)"/>
       <path id="DejaVuSans-66" d="M 2375 4863 
L 2375 4384 
L 1825 4384 
Q 1516 4384 1395 4259 
Q 1275 4134 1275 3809 
L 1275 3500 
L 2222 3500 
L 2222 3053 
L 1275 3053 
L 1275 0 
L 697 0 
L 697 3053 
L 147 3053 
L 147 3500 
L 697 3500 
L 697 3744 
Q 697 4328 969 4595 
Q 1241 4863 1831 4863 
L 2375 4863 
z
" transform="scale(0.015625)"/>
      </defs>
      <use xlink:href="#DejaVuSans-53"/>
      <use xlink:href="#DejaVuSans-74" x="63.476562"/>
      <use xlink:href="#DejaVuSans-72" x="102.685547"/>
      <use xlink:href="#DejaVuSans-75" x="143.798828"/>
      <use xlink:href="#DejaVuSans-63" x="207.177734"/>
      <use xlink:href="#DejaVuSans-74" x="262.158203"/>
      <use xlink:href="#DejaVuSans-75" x="301.367188"/>
      <use xlink:href="#DejaVuSans-72" x="364.746094"/>
      <use xlink:href="#DejaVuSans-61" x="405.859375"/>
      <use xlink:href="#DejaVuSans-6c" x="467.138672"/>
      <use xlink:href="#DejaVuSans-20" x="494.921875"/>
      <use xlink:href="#DejaVuSans-49" x="526.708984"/>
      <use xlink:href="#DejaVuSans-6e" x="556.201172"/>
      <use xlink:href="#DejaVuSans-66" x="619.580078"/>
      <use xlink:href="#DejaVuSans-6f" x="654.785156"/>
      <use xlink:href="#DejaVuSans-72" x="715.966797"/>
      <use xlink:href="#DejaVuSans-6d" x="755.330078"/>
      <use xlink:href="#DejaVuSans-61" x="852.742188"/>
      <use xlink:href="#DejaVuSans-74" x="914.021484"/>
      <use xlink:href="#DejaVuSans-69" x="953.230469"/>
      <use xlink:href="#DejaVuSans-6f" x="981.013672"/>
      <use xlink:href="#DejaVuSans-6e" x="1042.195312"/>
     </g>
    </g>
    <g id="line2d_2">
     <path d="M 498.5 114.176562 
L 508.5 114.176562 
L 518.5 114.176562 
" style="fill: none; stroke: #ff0000; stroke-width: 2; stroke-linecap: square"/>
    </g>
    <g id="text_15">
     <!-- Functional Information -->
     <g transform="translate(526.5 117.676562) scale(0.1 -0.1)">
      <use xlink:href="#DejaVuSans-46"/>
      <use xlink:href="#DejaVuSans-75" x="52.019531"/>
      <use xlink:href="#DejaVuSans-6e" x="115.398438"/>
      <use xlink:href="#DejaVuSans-63" x="178.777344"/>
      <use xlink:href="#DejaVuSans-74" x="233.757812"/>
      <use xlink:href="#DejaVuSans-69" x="272.966797"/>
      <use xlink:href="#DejaVuSans-6f" x="300.75"/>
      <use xlink:href="#DejaVuSans-6e" x="361.931641"/>
      <use xlink:href="#DejaVuSans-61" x="425.310547"/>
      <use xlink:href="#DejaVuSans-6c" x="486.589844"/>
      <use xlink:href="#DejaVuSans-20" x="514.373047"/>
      <use xlink:href="#DejaVuSans-49" x="546.160156"/>
      <use xlink:href="#DejaVuSans-6e" x="575.652344"/>
      <use xlink:href="#DejaVuSans-66" x="639.03125"/>
      <use xlink:href="#DejaVuSans-6f" x="674.236328"/>
      <use xlink:href="#DejaVuSans-72" x="735.417969"/>
      <use xlink:href="#DejaVuSans-6d" x="774.78125"/>
      <use xlink:href="#DejaVuSans-61" x="872.193359"/>
      <use xlink:href="#DejaVuSans-74" x="933.472656"/>
      <use xlink:href="#DejaVuSans-69" x="972.681641"/>
      <use xlink:href="#DejaVuSans-6f" x="1000.464844"/>
      <use xlink:href="#DejaVuSans-6e" x="1061.646484"/>
     </g>
    </g>
    <g id="patch_20">
     <path d="M 498.5 132.354687 
L 518.5 132.354687 
L 518.5 125.354687 
L 498.5 125.354687 
z
" style="fill: #90ee90; stroke: #90ee90; stroke-linejoin: miter"/>
    </g>
    <g id="text_16">
     <!-- miRNA -->
     <g transform="translate(526.5 132.354687) scale(0.1 -0.1)">
      <defs>
       <path id="DejaVuSans-52" d="M 2841 2188 
Q 3044 2119 3236 1894 
Q 3428 1669 3622 1275 
L 4263 0 
L 3584 0 
L 2988 1197 
Q 2756 1666 2539 1819 
Q 2322 1972 1947 1972 
L 1259 1972 
L 1259 0 
L 628 0 
L 628 4666 
L 2053 4666 
Q 2853 4666 3247 4331 
Q 3641 3997 3641 3322 
Q 3641 2881 3436 2590 
Q 3231 2300 2841 2188 
z
M 1259 4147 
L 1259 2491 
L 2053 2491 
Q 2509 2491 2742 2702 
Q 2975 2913 2975 3322 
Q 2975 3731 2742 3939 
Q 2509 4147 2053 4147 
L 1259 4147 
z
" transform="scale(0.015625)"/>
      </defs>
      <use xlink:href="#DejaVuSans-6d"/>
      <use xlink:href="#DejaVuSans-69" x="97.412109"/>
      <use xlink:href="#DejaVuSans-52" x="125.195312"/>
      <use xlink:href="#DejaVuSans-4e" x="194.677734"/>
      <use xlink:href="#DejaVuSans-41" x="269.482422"/>
     </g>
    </g>
    <g id="patch_21">
     <path d="M 498.5 147.032812 
L 518.5 147.032812 
L 518.5 140.032812 
L 498.5 140.032812 
z
" style="fill: #add8e6; stroke: #add8e6; stroke-linejoin: miter"/>
    </g>
    <g id="text_17">
     <!-- mRNA -->
     <g transform="translate(526.5 147.032812) scale(0.1 -0.1)">
      <use xlink:href="#DejaVuSans-6d"/>
      <use xlink:href="#DejaVuSans-52" x="97.412109"/>
      <use xlink:href="#DejaVuSans-4e" x="166.894531"/>
      <use xlink:href="#DejaVuSans-41" x="241.699219"/>
     </g>
    </g>
   </g>
  </g>
 </g>
 <defs>
  <clipPath id="peb33151add">
   <rect x="90" y="86.4" width="558" height="554.4"/>
  </clipPath>
 </defs>
</svg>
