<?xml version="1.0" encoding="utf-8" standalone="no"?>
<!DOCTYPE svg PUBLIC "-//W3C//DTD SVG 1.1//EN"
  "http://www.w3.org/Graphics/SVG/1.1/DTD/svg11.dtd">
<svg xmlns:xlink="http://www.w3.org/1999/xlink" width="720pt" height="720pt" viewBox="0 0 720 720" xmlns="http://www.w3.org/2000/svg" version="1.1">
 <metadata>
  <rdf:RDF xmlns:dc="http://purl.org/dc/elements/1.1/" xmlns:cc="http://creativecommons.org/ns#" xmlns:rdf="http://www.w3.org/1999/02/22-rdf-syntax-ns#">
   <cc:Work>
    <dc:type rdf:resource="http://purl.org/dc/dcmitype/StillImage"/>
    <dc:date>2024-09-11T00:56:33.819231</dc:date>
    <dc:format>image/svg+xml</dc:format>
    <dc:creator>
     <cc:Agent>
      <dc:title>Matplotlib v3.8.4, https://matplotlib.org/</dc:title>
     </cc:Agent>
    </dc:creator>
   </cc:Work>
  </rdf:RDF>
 </metadata>
 <defs>
  <style type="text/css">*{stroke-linejoin: round; stroke-linecap: butt}</style>
 </defs>
 <g id="figure_1">
  <g id="patch_1">
   <path d="M 0 720 
L 720 720 
L 720 0 
L 0 0 
z
" style="fill: #ffffff"/>
  </g>
  <g id="axes_1">
   <g id="patch_2">
    <path d="M 90 640.8 
L 648 640.8 
L 648 86.4 
L 90 86.4 
z
" style="fill: #ffffff"/>
   </g>
   <g id="LineCollection_1">
    <path d="M 454.565264 506.355279 
L 485.765488 467.51795 
" clip-path="url(#p4c21cde805)" style="fill: none; stroke: #800080; stroke-opacity: 0.5; stroke-width: 10"/>
    <path d="M 455.541808 363.757597 
L 398.185664 350.231681 
" clip-path="url(#p4c21cde805)" style="fill: none; stroke: #800080; stroke-opacity: 0.5; stroke-width: 4.204276"/>
    <path d="M 334.850824 450.511201 
L 316.703969 403.45143 
" clip-path="url(#p4c21cde805)" style="fill: none; stroke: #800080; stroke-opacity: 0.5; stroke-width: 10"/>
    <path d="M 350.208556 592.690909 
L 381.401756 553.854265 
" clip-path="url(#p4c21cde805)" style="fill: none; stroke: #800080; stroke-opacity: 0.5; stroke-width: 10"/>
    <path d="M 505.14883 555.689925 
L 536.349055 516.852595 
" clip-path="url(#p4c21cde805)" style="fill: none; stroke: #800080; stroke-opacity: 0.5; stroke-width: 10"/>
    <path d="M 249.041424 284.349373 
L 280.234623 245.512044 
" clip-path="url(#p4c21cde805)" style="fill: none; stroke: #800080; stroke-opacity: 0.5; stroke-width: 4.204276"/>
    <path d="M 297.376832 354.322346 
L 316.703969 403.45143 
" clip-path="url(#p4c21cde805)" style="fill: none; stroke: #800080; stroke-opacity: 0.5; stroke-width: 10"/>
    <path d="M 455.541808 363.757597 
L 486.545318 412.900386 
" clip-path="url(#p4c21cde805)" style="fill: none; stroke: #800080; stroke-opacity: 0.5; stroke-width: 4.204276"/>
    <path d="M 297.376832 354.322346 
L 328.352241 310.037649 
" clip-path="url(#p4c21cde805)" style="fill: none; stroke: #800080; stroke-opacity: 0.5; stroke-width: 10"/>
    <path d="M 455.541808 363.757597 
L 469.473365 307.598325 
" clip-path="url(#p4c21cde805)" style="fill: none; stroke: #800080; stroke-opacity: 0.5; stroke-width: 4.204276"/>
    <path d="M 334.850824 450.511201 
L 359.54544 494.021618 
" clip-path="url(#p4c21cde805)" style="fill: none; stroke: #800080; stroke-opacity: 0.5; stroke-width: 10"/>
    <path d="M 455.541808 363.757597 
L 506.06917 333.608647 
" clip-path="url(#p4c21cde805)" style="fill: none; stroke: #800080; stroke-opacity: 0.5; stroke-width: 4.204276"/>
    <path d="M 378.77422 220.783053 
L 361.343966 174.250889 
" clip-path="url(#p4c21cde805)" style="fill: none; stroke: #800080; stroke-opacity: 0.5; stroke-width: 10"/>
    <path d="M 455.541808 363.757597 
L 424.383736 314.477767 
" clip-path="url(#p4c21cde805)" style="fill: none; stroke: #800080; stroke-opacity: 0.5; stroke-width: 4.204276"/>
    <path d="M 138.421488 173.34642 
L 169.6182 134.509091 
" clip-path="url(#p4c21cde805)" style="fill: none; stroke: #800080; stroke-opacity: 0.5; stroke-width: 10"/>
    <path d="M 518.328659 209.045518 
L 466.164356 195.6772 
" clip-path="url(#p4c21cde805)" style="fill: none; stroke: #800080; stroke-opacity: 0.5; stroke-width: 4.204276"/>
    <path d="M 151.067379 543.356263 
L 182.264091 504.518934 
" clip-path="url(#p4c21cde805)" style="fill: none; stroke: #800080; stroke-opacity: 0.5; stroke-width: 10"/>
    <path d="M 455.541808 363.757597 
L 513.185997 377.269808 
" clip-path="url(#p4c21cde805)" style="fill: none; stroke: #800080; stroke-opacity: 0.5; stroke-width: 4.204276"/>
    <path d="M 568.378288 469.354295 
L 599.578512 430.516965 
" clip-path="url(#p4c21cde805)" style="fill: none; stroke: #800080; stroke-opacity: 0.5; stroke-width: 10"/>
    <path d="M 455.541808 363.757597 
L 441.877219 420.019649 
" clip-path="url(#p4c21cde805)" style="fill: none; stroke: #800080; stroke-opacity: 0.5; stroke-width: 4.204276"/>
    <path d="M 189.001541 222.681066 
L 220.201766 183.843737 
" clip-path="url(#p4c21cde805)" style="fill: none; stroke: #800080; stroke-opacity: 0.5; stroke-width: 10"/>
    <path d="M 518.328659 209.045518 
L 532.920613 259.68205 
" clip-path="url(#p4c21cde805)" style="fill: none; stroke: #800080; stroke-opacity: 0.5; stroke-width: 4.204276"/>
    <path d="M 297.376832 354.322346 
L 243.877685 342.077761 
" clip-path="url(#p4c21cde805)" style="fill: none; stroke: #800080; stroke-opacity: 0.5; stroke-width: 10"/>
    <path d="M 455.541808 363.757597 
L 404.895012 394.002475 
" clip-path="url(#p4c21cde805)" style="fill: none; stroke: #800080; stroke-opacity: 0.5; stroke-width: 4.204276"/>
    <path d="M 378.77422 220.783053 
L 410.199261 259.68205 
" clip-path="url(#p4c21cde805)" style="fill: none; stroke: #800080; stroke-opacity: 0.5; stroke-width: 10"/>
    <path d="M 518.328659 209.045518 
L 556.139875 171.516927 
" clip-path="url(#p4c21cde805)" style="fill: none; stroke: #800080; stroke-opacity: 0.5; stroke-width: 4.204276"/>
    <path d="M 229.306808 455.12262 
L 211.876554 408.590456 
" clip-path="url(#p4c21cde805)" style="fill: none; stroke: #800080; stroke-opacity: 0.5; stroke-width: 10"/>
    <path d="M 249.041424 580.357248 
L 280.234623 541.520603 
" clip-path="url(#p4c21cde805)" style="fill: none; stroke: #800080; stroke-opacity: 0.5; stroke-width: 4.204276"/>
    <path d="M 229.306808 455.12262 
L 260.731848 494.021618 
" clip-path="url(#p4c21cde805)" style="fill: none; stroke: #800080; stroke-opacity: 0.5; stroke-width: 10"/>
   </g>
   <g id="LineCollection_2">
    <path d="M 454.565264 506.355279 
L 485.765488 467.51795 
" clip-path="url(#p4c21cde805)" style="fill: none; stroke: #ff0000; stroke-opacity: 0.5; stroke-width: 0.78791"/>
    <path d="M 455.541808 363.757597 
L 398.185664 350.231681 
" clip-path="url(#p4c21cde805)" style="fill: none; stroke: #ff0000; stroke-opacity: 0.5; stroke-width: 10"/>
    <path d="M 334.850824 450.511201 
L 316.703969 403.45143 
" clip-path="url(#p4c21cde805)" style="fill: none"/>
    <path d="M 350.208556 592.690909 
L 381.401756 553.854265 
" clip-path="url(#p4c21cde805)" style="fill: none; stroke: #ff0000; stroke-opacity: 0.5; stroke-width: 9.712332"/>
    <path d="M 505.14883 555.689925 
L 536.349055 516.852595 
" clip-path="url(#p4c21cde805)" style="fill: none; stroke: #ff0000; stroke-opacity: 0.5; stroke-width: 0.377792"/>
    <path d="M 249.041424 284.349373 
L 280.234623 245.512044 
" clip-path="url(#p4c21cde805)" style="fill: none; stroke: #ff0000; stroke-opacity: 0.5; stroke-width: 9.528569"/>
    <path d="M 297.376832 354.322346 
L 316.703969 403.45143 
" clip-path="url(#p4c21cde805)" style="fill: none; stroke: #ff0000; stroke-opacity: 0.5; stroke-width: 0.845944"/>
    <path d="M 455.541808 363.757597 
L 486.545318 412.900386 
" clip-path="url(#p4c21cde805)" style="fill: none; stroke: #ff0000; stroke-opacity: 0.5; stroke-width: 8.720886"/>
    <path d="M 297.376832 354.322346 
L 328.352241 310.037649 
" clip-path="url(#p4c21cde805)" style="fill: none; stroke: #ff0000; stroke-opacity: 0.5; stroke-width: 0.698128"/>
    <path d="M 455.541808 363.757597 
L 469.473365 307.598325 
" clip-path="url(#p4c21cde805)" style="fill: none; stroke: #ff0000; stroke-opacity: 0.5; stroke-width: 8.400776"/>
    <path d="M 334.850824 450.511201 
L 359.54544 494.021618 
" clip-path="url(#p4c21cde805)" style="fill: none"/>
    <path d="M 455.541808 363.757597 
L 506.06917 333.608647 
" clip-path="url(#p4c21cde805)" style="fill: none; stroke: #ff0000; stroke-opacity: 0.5; stroke-width: 7.292887"/>
    <path d="M 378.77422 220.783053 
L 361.343966 174.250889 
" clip-path="url(#p4c21cde805)" style="fill: none; stroke: #ff0000; stroke-opacity: 0.5; stroke-width: 0.421736"/>
    <path d="M 455.541808 363.757597 
L 424.383736 314.477767 
" clip-path="url(#p4c21cde805)" style="fill: none; stroke: #ff0000; stroke-opacity: 0.5; stroke-width: 6.440334"/>
    <path d="M 138.421488 173.34642 
L 169.6182 134.509091 
" clip-path="url(#p4c21cde805)" style="fill: none; stroke: #ff0000; stroke-opacity: 0.5; stroke-width: 0.637723"/>
    <path d="M 518.328659 209.045518 
L 466.164356 195.6772 
" clip-path="url(#p4c21cde805)" style="fill: none; stroke: #ff0000; stroke-opacity: 0.5; stroke-width: 6.382205"/>
    <path d="M 151.067379 543.356263 
L 182.264091 504.518934 
" clip-path="url(#p4c21cde805)" style="fill: none; stroke: #ff0000; stroke-opacity: 0.5; stroke-width: 0.705964"/>
    <path d="M 455.541808 363.757597 
L 513.185997 377.269808 
" clip-path="url(#p4c21cde805)" style="fill: none; stroke: #ff0000; stroke-opacity: 0.5; stroke-width: 6.147017"/>
    <path d="M 568.378288 469.354295 
L 599.578512 430.516965 
" clip-path="url(#p4c21cde805)" style="fill: none; stroke: #ff0000; stroke-opacity: 0.5; stroke-width: 0.55828"/>
    <path d="M 455.541808 363.757597 
L 441.877219 420.019649 
" clip-path="url(#p4c21cde805)" style="fill: none; stroke: #ff0000; stroke-opacity: 0.5; stroke-width: 6.130553"/>
    <path d="M 189.001541 222.681066 
L 220.201766 183.843737 
" clip-path="url(#p4c21cde805)" style="fill: none; stroke: #ff0000; stroke-opacity: 0.5; stroke-width: 1.326937"/>
    <path d="M 518.328659 209.045518 
L 532.920613 259.68205 
" clip-path="url(#p4c21cde805)" style="fill: none; stroke: #ff0000; stroke-opacity: 0.5; stroke-width: 5.21194"/>
    <path d="M 297.376832 354.322346 
L 243.877685 342.077761 
" clip-path="url(#p4c21cde805)" style="fill: none; stroke: #ff0000; stroke-opacity: 0.5; stroke-width: 0.64242"/>
    <path d="M 455.541808 363.757597 
L 404.895012 394.002475 
" clip-path="url(#p4c21cde805)" style="fill: none; stroke: #ff0000; stroke-opacity: 0.5; stroke-width: 5.210318"/>
    <path d="M 378.77422 220.783053 
L 410.199261 259.68205 
" clip-path="url(#p4c21cde805)" style="fill: none; stroke: #ff0000; stroke-opacity: 0.5; stroke-width: 0.993462"/>
    <path d="M 518.328659 209.045518 
L 556.139875 171.516927 
" clip-path="url(#p4c21cde805)" style="fill: none; stroke: #ff0000; stroke-opacity: 0.5; stroke-width: 4.976617"/>
    <path d="M 229.306808 455.12262 
L 211.876554 408.590456 
" clip-path="url(#p4c21cde805)" style="fill: none; stroke: #ff0000; stroke-opacity: 0.5; stroke-width: 0.971206"/>
    <path d="M 249.041424 580.357248 
L 280.234623 541.520603 
" clip-path="url(#p4c21cde805)" style="fill: none; stroke: #ff0000; stroke-opacity: 0.5; stroke-width: 4.446251"/>
    <path d="M 229.306808 455.12262 
L 260.731848 494.021618 
" clip-path="url(#p4c21cde805)" style="fill: none; stroke: #ff0000; stroke-opacity: 0.5; stroke-width: 0.450371"/>
   </g>
   <g id="matplotlib.axis_1">
    <g id="xtick_1"/>
    <g id="xtick_2"/>
    <g id="xtick_3"/>
    <g id="xtick_4"/>
    <g id="xtick_5"/>
    <g id="xtick_6"/>
    <g id="xtick_7"/>
    <g id="xtick_8"/>
   </g>
   <g id="matplotlib.axis_2">
    <g id="ytick_1"/>
    <g id="ytick_2"/>
    <g id="ytick_3"/>
    <g id="ytick_4"/>
    <g id="ytick_5"/>
    <g id="ytick_6"/>
    <g id="ytick_7"/>
    <g id="ytick_8"/>
   </g>
   <g id="patch_3">
    <path d="M 229.306808 467.11368 
C 233.964765 467.11368 238.432573 465.850226 241.726246 463.60158 
C 245.01992 461.352933 246.870546 458.302686 246.870546 455.12262 
C 246.870546 451.942554 245.01992 448.892307 241.726246 446.64366 
C 238.432573 444.395014 233.964765 443.13156 229.306808 443.13156 
C 224.64885 443.13156 220.181043 444.395014 216.887369 446.64366 
C 213.593696 448.892307 211.743069 451.942554 211.743069 455.12262 
C 211.743069 458.302686 213.593696 461.352933 216.887369 463.60158 
C 220.181043 465.850226 224.64885 467.11368 229.306808 467.11368 
z
" clip-path="url(#p4c21cde805)" style="fill: #90ee90; stroke: #90ee90; stroke-width: 1.5; stroke-linejoin: miter"/>
   </g>
   <g id="patch_4">
    <path d="M 350.208556 604.681969 
C 354.866514 604.681969 359.334321 603.418515 362.627995 601.169869 
C 365.921668 598.921222 367.772295 595.870975 367.772295 592.690909 
C 367.772295 589.510843 365.921668 586.460596 362.627995 584.211949 
C 359.334321 581.963303 354.866514 580.699849 350.208556 580.699849 
C 345.550599 580.699849 341.082792 581.963303 337.789118 584.211949 
C 334.495444 586.460596 332.644818 589.510843 332.644818 592.690909 
C 332.644818 595.870975 334.495444 598.921222 337.789118 601.169869 
C 341.082792 603.418515 345.550599 604.681969 350.208556 604.681969 
z
" clip-path="url(#p4c21cde805)" style="fill: #90ee90; stroke: #90ee90; stroke-width: 1.5; stroke-linejoin: miter"/>
   </g>
   <g id="patch_5">
    <path d="M 249.041424 296.340433 
C 253.699382 296.340433 258.167189 295.076979 261.460862 292.828333 
C 264.754536 290.579687 266.605162 287.529439 266.605162 284.349373 
C 266.605162 281.169307 264.754536 278.11906 261.460862 275.870414 
C 258.167189 273.621767 253.699382 272.358314 249.041424 272.358314 
C 244.383466 272.358314 239.915659 273.621767 236.621986 275.870414 
C 233.328312 278.11906 231.477686 281.169307 231.477686 284.349373 
C 231.477686 287.529439 233.328312 290.579687 236.621986 292.828333 
C 239.915659 295.076979 244.383466 296.340433 249.041424 296.340433 
z
" clip-path="url(#p4c21cde805)" style="fill: #90ee90; stroke: #90ee90; stroke-width: 1.5; stroke-linejoin: miter"/>
   </g>
   <g id="patch_6">
    <path d="M 189.001541 234.672126 
C 193.659499 234.672126 198.127306 233.408672 201.42098 231.160026 
C 204.714653 228.911379 206.565279 225.861132 206.565279 222.681066 
C 206.565279 219.501 204.714653 216.450753 201.42098 214.202106 
C 198.127306 211.95346 193.659499 210.690006 189.001541 210.690006 
C 184.343583 210.690006 179.875776 211.95346 176.582103 214.202106 
C 173.288429 216.450753 171.437803 219.501 171.437803 222.681066 
C 171.437803 225.861132 173.288429 228.911379 176.582103 231.160026 
C 179.875776 233.408672 184.343583 234.672126 189.001541 234.672126 
z
" clip-path="url(#p4c21cde805)" style="fill: #90ee90; stroke: #90ee90; stroke-width: 1.5; stroke-linejoin: miter"/>
   </g>
   <g id="patch_7">
    <path d="M 378.77422 232.774112 
C 383.432178 232.774112 387.899985 231.510659 391.193659 229.262012 
C 394.487332 227.013366 396.337959 223.963119 396.337959 220.783053 
C 396.337959 217.602986 394.487332 214.552739 391.193659 212.304093 
C 387.899985 210.055447 383.432178 208.791993 378.77422 208.791993 
C 374.116263 208.791993 369.648455 210.055447 366.354782 212.304093 
C 363.061108 214.552739 361.210482 217.602986 361.210482 220.783053 
C 361.210482 223.963119 363.061108 227.013366 366.354782 229.262012 
C 369.648455 231.510659 374.116263 232.774112 378.77422 232.774112 
z
" clip-path="url(#p4c21cde805)" style="fill: #90ee90; stroke: #90ee90; stroke-width: 1.5; stroke-linejoin: miter"/>
   </g>
   <g id="patch_8">
    <path d="M 334.850824 462.502261 
C 339.508782 462.502261 343.976589 461.238807 347.270262 458.990161 
C 350.563936 456.741514 352.414562 453.691267 352.414562 450.511201 
C 352.414562 447.331135 350.563936 444.280888 347.270262 442.032241 
C 343.976589 439.783595 339.508782 438.520141 334.850824 438.520141 
C 330.192866 438.520141 325.725059 439.783595 322.431385 442.032241 
C 319.137712 444.280888 317.287085 447.331135 317.287085 450.511201 
C 317.287085 453.691267 319.137712 456.741514 322.431385 458.990161 
C 325.725059 461.238807 330.192866 462.502261 334.850824 462.502261 
z
" clip-path="url(#p4c21cde805)" style="fill: #90ee90; stroke: #90ee90; stroke-width: 1.5; stroke-linejoin: miter"/>
   </g>
   <g id="patch_9">
    <path d="M 297.376832 366.313406 
C 302.03479 366.313406 306.502597 365.049952 309.79627 362.801305 
C 313.089944 360.552659 314.94057 357.502412 314.94057 354.322346 
C 314.94057 351.14228 313.089944 348.092033 309.79627 345.843386 
C 306.502597 343.59474 302.03479 342.331286 297.376832 342.331286 
C 292.718874 342.331286 288.251067 343.59474 284.957393 345.843386 
C 281.66372 348.092033 279.813093 351.14228 279.813093 354.322346 
C 279.813093 357.502412 281.66372 360.552659 284.957393 362.801305 
C 288.251067 365.049952 292.718874 366.313406 297.376832 366.313406 
z
" clip-path="url(#p4c21cde805)" style="fill: #90ee90; stroke: #90ee90; stroke-width: 1.5; stroke-linejoin: miter"/>
   </g>
   <g id="patch_10">
    <path d="M 454.565264 518.346339 
C 459.223222 518.346339 463.691029 517.082885 466.984702 514.834239 
C 470.278376 512.585592 472.129002 509.535345 472.129002 506.355279 
C 472.129002 503.175213 470.278376 500.124966 466.984702 497.876319 
C 463.691029 495.627673 459.223222 494.364219 454.565264 494.364219 
C 449.907306 494.364219 445.439499 495.627673 442.145825 497.876319 
C 438.852152 500.124966 437.001525 503.175213 437.001525 506.355279 
C 437.001525 509.535345 438.852152 512.585592 442.145825 514.834239 
C 445.439499 517.082885 449.907306 518.346339 454.565264 518.346339 
z
" clip-path="url(#p4c21cde805)" style="fill: #90ee90; stroke: #90ee90; stroke-width: 1.5; stroke-linejoin: miter"/>
   </g>
   <g id="patch_11">
    <path d="M 518.328659 221.036578 
C 522.986617 221.036578 527.454424 219.773124 530.748098 217.524478 
C 534.041771 215.275831 535.892397 212.225584 535.892397 209.045518 
C 535.892397 205.865452 534.041771 202.815205 530.748098 200.566559 
C 527.454424 198.317912 522.986617 197.054458 518.328659 197.054458 
C 513.670701 197.054458 509.202894 198.317912 505.909221 200.566559 
C 502.615547 202.815205 500.764921 205.865452 500.764921 209.045518 
C 500.764921 212.225584 502.615547 215.275831 505.909221 217.524478 
C 509.202894 219.773124 513.670701 221.036578 518.328659 221.036578 
z
" clip-path="url(#p4c21cde805)" style="fill: #90ee90; stroke: #90ee90; stroke-width: 1.5; stroke-linejoin: miter"/>
   </g>
   <g id="patch_12">
    <path d="M 505.14883 567.680985 
C 509.806788 567.680985 514.274595 566.417531 517.568268 564.168884 
C 520.861942 561.920238 522.712568 558.869991 522.712568 555.689925 
C 522.712568 552.509859 520.861942 549.459612 517.568268 547.210965 
C 514.274595 544.962319 509.806788 543.698865 505.14883 543.698865 
C 500.490872 543.698865 496.023065 544.962319 492.729392 547.210965 
C 489.435718 549.459612 487.585092 552.509859 487.585092 555.689925 
C 487.585092 558.869991 489.435718 561.920238 492.729392 564.168884 
C 496.023065 566.417531 500.490872 567.680985 505.14883 567.680985 
z
" clip-path="url(#p4c21cde805)" style="fill: #90ee90; stroke: #90ee90; stroke-width: 1.5; stroke-linejoin: miter"/>
   </g>
   <g id="patch_13">
    <path d="M 151.067379 555.347323 
C 155.725337 555.347323 160.193144 554.083869 163.486818 551.835223 
C 166.780491 549.586577 168.631117 546.53633 168.631117 543.356263 
C 168.631117 540.176197 166.780491 537.12595 163.486818 534.877304 
C 160.193144 532.628657 155.725337 531.365204 151.067379 531.365204 
C 146.409421 531.365204 141.941614 532.628657 138.647941 534.877304 
C 135.354267 537.12595 133.503641 540.176197 133.503641 543.356263 
C 133.503641 546.53633 135.354267 549.586577 138.647941 551.835223 
C 141.941614 554.083869 146.409421 555.347323 151.067379 555.347323 
z
" clip-path="url(#p4c21cde805)" style="fill: #90ee90; stroke: #90ee90; stroke-width: 1.5; stroke-linejoin: miter"/>
   </g>
   <g id="patch_14">
    <path d="M 249.041424 592.348307 
C 253.699382 592.348307 258.167189 591.084854 261.460862 588.836207 
C 264.754536 586.587561 266.605162 583.537314 266.605162 580.357248 
C 266.605162 577.177181 264.754536 574.126934 261.460862 571.878288 
C 258.167189 569.629642 253.699382 568.366188 249.041424 568.366188 
C 244.383466 568.366188 239.915659 569.629642 236.621986 571.878288 
C 233.328312 574.126934 231.477686 577.177181 231.477686 580.357248 
C 231.477686 583.537314 233.328312 586.587561 236.621986 588.836207 
C 239.915659 591.084854 244.383466 592.348307 249.041424 592.348307 
z
" clip-path="url(#p4c21cde805)" style="fill: #90ee90; stroke: #90ee90; stroke-width: 1.5; stroke-linejoin: miter"/>
   </g>
   <g id="patch_15">
    <path d="M 455.541808 375.748657 
C 460.199765 375.748657 464.667572 374.485203 467.961246 372.236556 
C 471.25492 369.98791 473.105546 366.937663 473.105546 363.757597 
C 473.105546 360.577531 471.25492 357.527284 467.961246 355.278637 
C 464.667572 353.029991 460.199765 351.766537 455.541808 351.766537 
C 450.88385 351.766537 446.416043 353.029991 443.122369 355.278637 
C 439.828696 357.527284 437.978069 360.577531 437.978069 363.757597 
C 437.978069 366.937663 439.828696 369.98791 443.122369 372.236556 
C 446.416043 374.485203 450.88385 375.748657 455.541808 375.748657 
z
" clip-path="url(#p4c21cde805)" style="fill: #90ee90; stroke: #90ee90; stroke-width: 1.5; stroke-linejoin: miter"/>
   </g>
   <g id="patch_16">
    <path d="M 568.378288 481.345354 
C 573.036246 481.345354 577.504053 480.081901 580.797726 477.833254 
C 584.0914 475.584608 585.942026 472.534361 585.942026 469.354295 
C 585.942026 466.174229 584.0914 463.123981 580.797726 460.875335 
C 577.504053 458.626689 573.036246 457.363235 568.378288 457.363235 
C 563.72033 457.363235 559.252523 458.626689 555.958849 460.875335 
C 552.665176 463.123981 550.814549 466.174229 550.814549 469.354295 
C 550.814549 472.534361 552.665176 475.584608 555.958849 477.833254 
C 559.252523 480.081901 563.72033 481.345354 568.378288 481.345354 
z
" clip-path="url(#p4c21cde805)" style="fill: #90ee90; stroke: #90ee90; stroke-width: 1.5; stroke-linejoin: miter"/>
   </g>
   <g id="patch_17">
    <path d="M 138.421488 185.33748 
C 143.079445 185.33748 147.547252 184.074026 150.840926 181.82538 
C 154.1346 179.576734 155.985226 176.526487 155.985226 173.34642 
C 155.985226 170.166354 154.1346 167.116107 150.840926 164.867461 
C 147.547252 162.618814 143.079445 161.355361 138.421488 161.355361 
C 133.76353 161.355361 129.295723 162.618814 126.002049 164.867461 
C 122.708376 167.116107 120.857749 170.166354 120.857749 173.34642 
C 120.857749 176.526487 122.708376 179.576734 126.002049 181.82538 
C 129.295723 184.074026 133.76353 185.33748 138.421488 185.33748 
z
" clip-path="url(#p4c21cde805)" style="fill: #90ee90; stroke: #90ee90; stroke-width: 1.5; stroke-linejoin: miter"/>
   </g>
   <g id="patch_18">
    <path d="M 485.765488 479.509009 
C 490.423446 479.509009 494.891253 478.245556 498.184927 475.996909 
C 501.4786 473.748263 503.329227 470.698016 503.329227 467.51795 
C 503.329227 464.337883 501.4786 461.287636 498.184927 459.03899 
C 494.891253 456.790344 490.423446 455.52689 485.765488 455.52689 
C 481.107531 455.52689 476.639724 456.790344 473.34605 459.03899 
C 470.052376 461.287636 468.20175 464.337883 468.20175 467.51795 
C 468.20175 470.698016 470.052376 473.748263 473.34605 475.996909 
C 476.639724 478.245556 481.107531 479.509009 485.765488 479.509009 
z
" clip-path="url(#p4c21cde805)" style="fill: #add8e6; stroke: #add8e6; stroke-width: 0.5; stroke-linejoin: miter"/>
   </g>
   <g id="patch_19">
    <path d="M 398.185664 362.222741 
C 402.843622 362.222741 407.311429 360.959287 410.605102 358.710641 
C 413.898776 356.461995 415.749402 353.411748 415.749402 350.231681 
C 415.749402 347.051615 413.898776 344.001368 410.605102 341.752722 
C 407.311429 339.504075 402.843622 338.240622 398.185664 338.240622 
C 393.527706 338.240622 389.059899 339.504075 385.766225 341.752722 
C 382.472552 344.001368 380.621926 347.051615 380.621926 350.231681 
C 380.621926 353.411748 382.472552 356.461995 385.766225 358.710641 
C 389.059899 360.959287 393.527706 362.222741 398.185664 362.222741 
z
" clip-path="url(#p4c21cde805)" style="fill: #add8e6; stroke: #add8e6; stroke-width: 0.5; stroke-linejoin: miter"/>
   </g>
   <g id="patch_20">
    <path d="M 316.703969 415.44249 
C 321.361927 415.44249 325.829734 414.179037 329.123408 411.93039 
C 332.417081 409.681744 334.267708 406.631497 334.267708 403.45143 
C 334.267708 400.271364 332.417081 397.221117 329.123408 394.972471 
C 325.829734 392.723824 321.361927 391.460371 316.703969 391.460371 
C 312.046011 391.460371 307.578204 392.723824 304.284531 394.972471 
C 300.990857 397.221117 299.140231 400.271364 299.140231 403.45143 
C 299.140231 406.631497 300.990857 409.681744 304.284531 411.93039 
C 307.578204 414.179037 312.046011 415.44249 316.703969 415.44249 
z
" clip-path="url(#p4c21cde805)" style="fill: #add8e6; stroke: #add8e6; stroke-width: 0.5; stroke-linejoin: miter"/>
   </g>
   <g id="patch_21">
    <path d="M 381.401756 565.845325 
C 386.059713 565.845325 390.52752 564.581871 393.821194 562.333224 
C 397.114868 560.084578 398.965494 557.034331 398.965494 553.854265 
C 398.965494 550.674199 397.114868 547.623952 393.821194 545.375305 
C 390.52752 543.126659 386.059713 541.863205 381.401756 541.863205 
C 376.743798 541.863205 372.275991 543.126659 368.982317 545.375305 
C 365.688644 547.623952 363.838017 550.674199 363.838017 553.854265 
C 363.838017 557.034331 365.688644 560.084578 368.982317 562.333224 
C 372.275991 564.581871 376.743798 565.845325 381.401756 565.845325 
z
" clip-path="url(#p4c21cde805)" style="fill: #add8e6; stroke: #add8e6; stroke-width: 0.5; stroke-linejoin: miter"/>
   </g>
   <g id="patch_22">
    <path d="M 536.349055 528.843655 
C 541.007012 528.843655 545.474819 527.580201 548.768493 525.331555 
C 552.062167 523.082909 553.912793 520.032662 553.912793 516.852595 
C 553.912793 513.672529 552.062167 510.622282 548.768493 508.373636 
C 545.474819 506.124989 541.007012 504.861536 536.349055 504.861536 
C 531.691097 504.861536 527.22329 506.124989 523.929616 508.373636 
C 520.635943 510.622282 518.785316 513.672529 518.785316 516.852595 
C 518.785316 520.032662 520.635943 523.082909 523.929616 525.331555 
C 527.22329 527.580201 531.691097 528.843655 536.349055 528.843655 
z
" clip-path="url(#p4c21cde805)" style="fill: #add8e6; stroke: #add8e6; stroke-width: 0.5; stroke-linejoin: miter"/>
   </g>
   <g id="patch_23">
    <path d="M 280.234623 257.503104 
C 284.892581 257.503104 289.360388 256.23965 292.654062 253.991003 
C 295.947735 251.742357 297.798361 248.69211 297.798361 245.512044 
C 297.798361 242.331978 295.947735 239.281731 292.654062 237.033084 
C 289.360388 234.784438 284.892581 233.520984 280.234623 233.520984 
C 275.576665 233.520984 271.108858 234.784438 267.815185 237.033084 
C 264.521511 239.281731 262.670885 242.331978 262.670885 245.512044 
C 262.670885 248.69211 264.521511 251.742357 267.815185 253.991003 
C 271.108858 256.23965 275.576665 257.503104 280.234623 257.503104 
z
" clip-path="url(#p4c21cde805)" style="fill: #add8e6; stroke: #add8e6; stroke-width: 0.5; stroke-linejoin: miter"/>
   </g>
   <g id="patch_24">
    <path d="M 486.545318 424.891445 
C 491.203276 424.891445 495.671083 423.627992 498.964757 421.379345 
C 502.25843 419.130699 504.109057 416.080452 504.109057 412.900386 
C 504.109057 409.720319 502.25843 406.670072 498.964757 404.421426 
C 495.671083 402.17278 491.203276 400.909326 486.545318 400.909326 
C 481.887361 400.909326 477.419554 402.17278 474.12588 404.421426 
C 470.832206 406.670072 468.98158 409.720319 468.98158 412.900386 
C 468.98158 416.080452 470.832206 419.130699 474.12588 421.379345 
C 477.419554 423.627992 481.887361 424.891445 486.545318 424.891445 
z
" clip-path="url(#p4c21cde805)" style="fill: #add8e6; stroke: #add8e6; stroke-width: 0.5; stroke-linejoin: miter"/>
   </g>
   <g id="patch_25">
    <path d="M 328.352241 322.028709 
C 333.010198 322.028709 337.478005 320.765255 340.771679 318.516609 
C 344.065353 316.267962 345.915979 313.217715 345.915979 310.037649 
C 345.915979 306.857583 344.065353 303.807336 340.771679 301.55869 
C 337.478005 299.310043 333.010198 298.046589 328.352241 298.046589 
C 323.694283 298.046589 319.226476 299.310043 315.932802 301.55869 
C 312.639129 303.807336 310.788502 306.857583 310.788502 310.037649 
C 310.788502 313.217715 312.639129 316.267962 315.932802 318.516609 
C 319.226476 320.765255 323.694283 322.028709 328.352241 322.028709 
z
" clip-path="url(#p4c21cde805)" style="fill: #add8e6; stroke: #add8e6; stroke-width: 0.5; stroke-linejoin: miter"/>
   </g>
   <g id="patch_26">
    <path d="M 469.473365 319.589385 
C 474.131323 319.589385 478.59913 318.325931 481.892803 316.077285 
C 485.186477 313.828638 487.037103 310.778391 487.037103 307.598325 
C 487.037103 304.418259 485.186477 301.368012 481.892803 299.119365 
C 478.59913 296.870719 474.131323 295.607265 469.473365 295.607265 
C 464.815407 295.607265 460.3476 296.870719 457.053926 299.119365 
C 453.760253 301.368012 451.909627 304.418259 451.909627 307.598325 
C 451.909627 310.778391 453.760253 313.828638 457.053926 316.077285 
C 460.3476 318.325931 464.815407 319.589385 469.473365 319.589385 
z
" clip-path="url(#p4c21cde805)" style="fill: #add8e6; stroke: #add8e6; stroke-width: 0.5; stroke-linejoin: miter"/>
   </g>
   <g id="patch_27">
    <path d="M 359.54544 506.012677 
C 364.203398 506.012677 368.671205 504.749224 371.964878 502.500577 
C 375.258552 500.251931 377.109178 497.201684 377.109178 494.021618 
C 377.109178 490.841551 375.258552 487.791304 371.964878 485.542658 
C 368.671205 483.294012 364.203398 482.030558 359.54544 482.030558 
C 354.887482 482.030558 350.419675 483.294012 347.126001 485.542658 
C 343.832328 487.791304 341.981701 490.841551 341.981701 494.021618 
C 341.981701 497.201684 343.832328 500.251931 347.126001 502.500577 
C 350.419675 504.749224 354.887482 506.012677 359.54544 506.012677 
z
" clip-path="url(#p4c21cde805)" style="fill: #add8e6; stroke: #add8e6; stroke-width: 0.5; stroke-linejoin: miter"/>
   </g>
   <g id="patch_28">
    <path d="M 506.06917 345.599706 
C 510.727128 345.599706 515.194935 344.336253 518.488608 342.087606 
C 521.782282 339.83896 523.632908 336.788713 523.632908 333.608647 
C 523.632908 330.42858 521.782282 327.378333 518.488608 325.129687 
C 515.194935 322.881041 510.727128 321.617587 506.06917 321.617587 
C 501.411212 321.617587 496.943405 322.881041 493.649731 325.129687 
C 490.356058 327.378333 488.505432 330.42858 488.505432 333.608647 
C 488.505432 336.788713 490.356058 339.83896 493.649731 342.087606 
C 496.943405 344.336253 501.411212 345.599706 506.06917 345.599706 
z
" clip-path="url(#p4c21cde805)" style="fill: #add8e6; stroke: #add8e6; stroke-width: 0.5; stroke-linejoin: miter"/>
   </g>
   <g id="patch_29">
    <path d="M 361.343966 186.241949 
C 366.001924 186.241949 370.469731 184.978495 373.763405 182.729849 
C 377.057078 180.481202 378.907705 177.430955 378.907705 174.250889 
C 378.907705 171.070823 377.057078 168.020576 373.763405 165.771929 
C 370.469731 163.523283 366.001924 162.259829 361.343966 162.259829 
C 356.686009 162.259829 352.218202 163.523283 348.924528 165.771929 
C 345.630854 168.020576 343.780228 171.070823 343.780228 174.250889 
C 343.780228 177.430955 345.630854 180.481202 348.924528 182.729849 
C 352.218202 184.978495 356.686009 186.241949 361.343966 186.241949 
z
" clip-path="url(#p4c21cde805)" style="fill: #add8e6; stroke: #add8e6; stroke-width: 0.5; stroke-linejoin: miter"/>
   </g>
   <g id="patch_30">
    <path d="M 424.383736 326.468827 
C 429.041694 326.468827 433.509501 325.205373 436.803174 322.956727 
C 440.096848 320.708081 441.947474 317.657834 441.947474 314.477767 
C 441.947474 311.297701 440.096848 308.247454 436.803174 305.998808 
C 433.509501 303.750161 429.041694 302.486708 424.383736 302.486708 
C 419.725778 302.486708 415.257971 303.750161 411.964297 305.998808 
C 408.670624 308.247454 406.819998 311.297701 406.819998 314.477767 
C 406.819998 317.657834 408.670624 320.708081 411.964297 322.956727 
C 415.257971 325.205373 419.725778 326.468827 424.383736 326.468827 
z
" clip-path="url(#p4c21cde805)" style="fill: #add8e6; stroke: #add8e6; stroke-width: 0.5; stroke-linejoin: miter"/>
   </g>
   <g id="patch_31">
    <path d="M 169.6182 146.500151 
C 174.276157 146.500151 178.743964 145.236697 182.037638 142.988051 
C 185.331312 140.739404 187.181938 137.689157 187.181938 134.509091 
C 187.181938 131.329025 185.331312 128.278778 182.037638 126.030131 
C 178.743964 123.781485 174.276157 122.518031 169.6182 122.518031 
C 164.960242 122.518031 160.492435 123.781485 157.198761 126.030131 
C 153.905088 128.278778 152.054461 131.329025 152.054461 134.509091 
C 152.054461 137.689157 153.905088 140.739404 157.198761 142.988051 
C 160.492435 145.236697 164.960242 146.500151 169.6182 146.500151 
z
" clip-path="url(#p4c21cde805)" style="fill: #add8e6; stroke: #add8e6; stroke-width: 0.5; stroke-linejoin: miter"/>
   </g>
   <g id="patch_32">
    <path d="M 466.164356 207.668259 
C 470.822314 207.668259 475.290121 206.404806 478.583795 204.156159 
C 481.877468 201.907513 483.728095 198.857266 483.728095 195.6772 
C 483.728095 192.497133 481.877468 189.446886 478.583795 187.19824 
C 475.290121 184.949594 470.822314 183.68614 466.164356 183.68614 
C 461.506399 183.68614 457.038592 184.949594 453.744918 187.19824 
C 450.451244 189.446886 448.600618 192.497133 448.600618 195.6772 
C 448.600618 198.857266 450.451244 201.907513 453.744918 204.156159 
C 457.038592 206.404806 461.506399 207.668259 466.164356 207.668259 
z
" clip-path="url(#p4c21cde805)" style="fill: #add8e6; stroke: #add8e6; stroke-width: 0.5; stroke-linejoin: miter"/>
   </g>
   <g id="patch_33">
    <path d="M 182.264091 516.509994 
C 186.922049 516.509994 191.389856 515.24654 194.68353 512.997894 
C 197.977203 510.749247 199.827829 507.699 199.827829 504.518934 
C 199.827829 501.338868 197.977203 498.288621 194.68353 496.039974 
C 191.389856 493.791328 186.922049 492.527874 182.264091 492.527874 
C 177.606133 492.527874 173.138326 493.791328 169.844653 496.039974 
C 166.550979 498.288621 164.700353 501.338868 164.700353 504.518934 
C 164.700353 507.699 166.550979 510.749247 169.844653 512.997894 
C 173.138326 515.24654 177.606133 516.509994 182.264091 516.509994 
z
" clip-path="url(#p4c21cde805)" style="fill: #add8e6; stroke: #add8e6; stroke-width: 0.5; stroke-linejoin: miter"/>
   </g>
   <g id="patch_34">
    <path d="M 513.185997 389.260868 
C 517.843954 389.260868 522.311761 387.997414 525.605435 385.748768 
C 528.899109 383.500121 530.749735 380.449874 530.749735 377.269808 
C 530.749735 374.089742 528.899109 371.039495 525.605435 368.790848 
C 522.311761 366.542202 517.843954 365.278748 513.185997 365.278748 
C 508.528039 365.278748 504.060232 366.542202 500.766558 368.790848 
C 497.472885 371.039495 495.622258 374.089742 495.622258 377.269808 
C 495.622258 380.449874 497.472885 383.500121 500.766558 385.748768 
C 504.060232 387.997414 508.528039 389.260868 513.185997 389.260868 
z
" clip-path="url(#p4c21cde805)" style="fill: #add8e6; stroke: #add8e6; stroke-width: 0.5; stroke-linejoin: miter"/>
   </g>
   <g id="patch_35">
    <path d="M 599.578512 442.508025 
C 604.23647 442.508025 608.704277 441.244571 611.997951 438.995925 
C 615.291624 436.747279 617.142251 433.697032 617.142251 430.516965 
C 617.142251 427.336899 615.291624 424.286652 611.997951 422.038006 
C 608.704277 419.789359 604.23647 418.525906 599.578512 418.525906 
C 594.920555 418.525906 590.452748 419.789359 587.159074 422.038006 
C 583.8654 424.286652 582.014774 427.336899 582.014774 430.516965 
C 582.014774 433.697032 583.8654 436.747279 587.159074 438.995925 
C 590.452748 441.244571 594.920555 442.508025 599.578512 442.508025 
z
" clip-path="url(#p4c21cde805)" style="fill: #add8e6; stroke: #add8e6; stroke-width: 0.5; stroke-linejoin: miter"/>
   </g>
   <g id="patch_36">
    <path d="M 441.877219 432.010709 
C 446.535177 432.010709 451.002984 430.747255 454.296658 428.498609 
C 457.590331 426.249962 459.440957 423.199715 459.440957 420.019649 
C 459.440957 416.839583 457.590331 413.789336 454.296658 411.540689 
C 451.002984 409.292043 446.535177 408.028589 441.877219 408.028589 
C 437.219261 408.028589 432.751454 409.292043 429.457781 411.540689 
C 426.164107 413.789336 424.313481 416.839583 424.313481 420.019649 
C 424.313481 423.199715 426.164107 426.249962 429.457781 428.498609 
C 432.751454 430.747255 437.219261 432.010709 441.877219 432.010709 
z
" clip-path="url(#p4c21cde805)" style="fill: #add8e6; stroke: #add8e6; stroke-width: 0.5; stroke-linejoin: miter"/>
   </g>
   <g id="patch_37">
    <path d="M 220.201766 195.834796 
C 224.859724 195.834796 229.327531 194.571343 232.621204 192.322696 
C 235.914878 190.07405 237.765504 187.023803 237.765504 183.843737 
C 237.765504 180.66367 235.914878 177.613423 232.621204 175.364777 
C 229.327531 173.116131 224.859724 171.852677 220.201766 171.852677 
C 215.543808 171.852677 211.076001 173.116131 207.782327 175.364777 
C 204.488654 177.613423 202.638027 180.66367 202.638027 183.843737 
C 202.638027 187.023803 204.488654 190.07405 207.782327 192.322696 
C 211.076001 194.571343 215.543808 195.834796 220.201766 195.834796 
z
" clip-path="url(#p4c21cde805)" style="fill: #add8e6; stroke: #add8e6; stroke-width: 0.5; stroke-linejoin: miter"/>
   </g>
   <g id="patch_38">
    <path d="M 532.920613 271.67311 
C 537.578571 271.67311 542.046378 270.409656 545.340051 268.16101 
C 548.633725 265.912364 550.484351 262.862117 550.484351 259.68205 
C 550.484351 256.501984 548.633725 253.451737 545.340051 251.203091 
C 542.046378 248.954444 537.578571 247.690991 532.920613 247.690991 
C 528.262655 247.690991 523.794848 248.954444 520.501174 251.203091 
C 517.207501 253.451737 515.356875 256.501984 515.356875 259.68205 
C 515.356875 262.862117 517.207501 265.912364 520.501174 268.16101 
C 523.794848 270.409656 528.262655 271.67311 532.920613 271.67311 
z
" clip-path="url(#p4c21cde805)" style="fill: #add8e6; stroke: #add8e6; stroke-width: 0.5; stroke-linejoin: miter"/>
   </g>
   <g id="patch_39">
    <path d="M 243.877685 354.068821 
C 248.535643 354.068821 253.00345 352.805367 256.297123 350.55672 
C 259.590797 348.308074 261.441423 345.257827 261.441423 342.077761 
C 261.441423 338.897695 259.590797 335.847448 256.297123 333.598801 
C 253.00345 331.350155 248.535643 330.086701 243.877685 330.086701 
C 239.219727 330.086701 234.75192 331.350155 231.458246 333.598801 
C 228.164573 335.847448 226.313947 338.897695 226.313947 342.077761 
C 226.313947 345.257827 228.164573 348.308074 231.458246 350.55672 
C 234.75192 352.805367 239.219727 354.068821 243.877685 354.068821 
z
" clip-path="url(#p4c21cde805)" style="fill: #add8e6; stroke: #add8e6; stroke-width: 0.5; stroke-linejoin: miter"/>
   </g>
   <g id="patch_40">
    <path d="M 404.895012 405.993535 
C 409.55297 405.993535 414.020777 404.730081 417.31445 402.481435 
C 420.608124 400.232789 422.45875 397.182542 422.45875 394.002475 
C 422.45875 390.822409 420.608124 387.772162 417.31445 385.523516 
C 414.020777 383.274869 409.55297 382.011416 404.895012 382.011416 
C 400.237054 382.011416 395.769247 383.274869 392.475573 385.523516 
C 389.1819 387.772162 387.331274 390.822409 387.331274 394.002475 
C 387.331274 397.182542 389.1819 400.232789 392.475573 402.481435 
C 395.769247 404.730081 400.237054 405.993535 404.895012 405.993535 
z
" clip-path="url(#p4c21cde805)" style="fill: #add8e6; stroke: #add8e6; stroke-width: 0.5; stroke-linejoin: miter"/>
   </g>
   <g id="patch_41">
    <path d="M 410.199261 271.67311 
C 414.857219 271.67311 419.325026 270.409656 422.618699 268.16101 
C 425.912373 265.912364 427.762999 262.862117 427.762999 259.68205 
C 427.762999 256.501984 425.912373 253.451737 422.618699 251.203091 
C 419.325026 248.954444 414.857219 247.690991 410.199261 247.690991 
C 405.541303 247.690991 401.073496 248.954444 397.779822 251.203091 
C 394.486149 253.451737 392.635523 256.501984 392.635523 259.68205 
C 392.635523 262.862117 394.486149 265.912364 397.779822 268.16101 
C 401.073496 270.409656 405.541303 271.67311 410.199261 271.67311 
z
" clip-path="url(#p4c21cde805)" style="fill: #add8e6; stroke: #add8e6; stroke-width: 0.5; stroke-linejoin: miter"/>
   </g>
   <g id="patch_42">
    <path d="M 556.139875 183.507987 
C 560.797833 183.507987 565.26564 182.244533 568.559313 179.995887 
C 571.852987 177.747241 573.703613 174.696993 573.703613 171.516927 
C 573.703613 168.336861 571.852987 165.286614 568.559313 163.037968 
C 565.26564 160.789321 560.797833 159.525868 556.139875 159.525868 
C 551.481917 159.525868 547.01411 160.789321 543.720436 163.037968 
C 540.426763 165.286614 538.576137 168.336861 538.576137 171.516927 
C 538.576137 174.696993 540.426763 177.747241 543.720436 179.995887 
C 547.01411 182.244533 551.481917 183.507987 556.139875 183.507987 
z
" clip-path="url(#p4c21cde805)" style="fill: #add8e6; stroke: #add8e6; stroke-width: 0.5; stroke-linejoin: miter"/>
   </g>
   <g id="patch_43">
    <path d="M 211.876554 420.581516 
C 216.534512 420.581516 221.002319 419.318062 224.295992 417.069416 
C 227.589666 414.820769 229.440292 411.770522 229.440292 408.590456 
C 229.440292 405.41039 227.589666 402.360143 224.295992 400.111496 
C 221.002319 397.86285 216.534512 396.599396 211.876554 396.599396 
C 207.218596 396.599396 202.750789 397.86285 199.457115 400.111496 
C 196.163442 402.360143 194.312816 405.41039 194.312816 408.590456 
C 194.312816 411.770522 196.163442 414.820769 199.457115 417.069416 
C 202.750789 419.318062 207.218596 420.581516 211.876554 420.581516 
z
" clip-path="url(#p4c21cde805)" style="fill: #add8e6; stroke: #add8e6; stroke-width: 0.5; stroke-linejoin: miter"/>
   </g>
   <g id="patch_44">
    <path d="M 280.234623 553.511663 
C 284.892581 553.511663 289.360388 552.248209 292.654062 549.999563 
C 295.947735 547.750917 297.798361 544.70067 297.798361 541.520603 
C 297.798361 538.340537 295.947735 535.29029 292.654062 533.041644 
C 289.360388 530.792997 284.892581 529.529544 280.234623 529.529544 
C 275.576665 529.529544 271.108858 530.792997 267.815185 533.041644 
C 264.521511 535.29029 262.670885 538.340537 262.670885 541.520603 
C 262.670885 544.70067 264.521511 547.750917 267.815185 549.999563 
C 271.108858 552.248209 275.576665 553.511663 280.234623 553.511663 
z
" clip-path="url(#p4c21cde805)" style="fill: #add8e6; stroke: #add8e6; stroke-width: 0.5; stroke-linejoin: miter"/>
   </g>
   <g id="patch_45">
    <path d="M 260.731848 506.012677 
C 265.389806 506.012677 269.857613 504.749224 273.151287 502.500577 
C 276.44496 500.251931 278.295586 497.201684 278.295586 494.021618 
C 278.295586 490.841551 276.44496 487.791304 273.151287 485.542658 
C 269.857613 483.294012 265.389806 482.030558 260.731848 482.030558 
C 256.07389 482.030558 251.606083 483.294012 248.31241 485.542658 
C 245.018736 487.791304 243.16811 490.841551 243.16811 494.021618 
C 243.16811 497.201684 245.018736 500.251931 248.31241 502.500577 
C 251.606083 504.749224 256.07389 506.012677 260.731848 506.012677 
z
" clip-path="url(#p4c21cde805)" style="fill: #add8e6; stroke: #add8e6; stroke-width: 0.5; stroke-linejoin: miter"/>
   </g>
   <g id="patch_46">
    <path d="M 90 640.8 
L 90 86.4 
" style="fill: none; stroke: #000000; stroke-width: 0.8; stroke-linejoin: miter; stroke-linecap: square"/>
   </g>
   <g id="patch_47">
    <path d="M 648 640.8 
L 648 86.4 
" style="fill: none; stroke: #000000; stroke-width: 0.8; stroke-linejoin: miter; stroke-linecap: square"/>
   </g>
   <g id="patch_48">
    <path d="M 90 640.8 
L 648 640.8 
" style="fill: none; stroke: #000000; stroke-width: 0.8; stroke-linejoin: miter; stroke-linecap: square"/>
   </g>
   <g id="patch_49">
    <path d="M 90 86.4 
L 648 86.4 
" style="fill: none; stroke: #000000; stroke-width: 0.8; stroke-linejoin: miter; stroke-linecap: square"/>
   </g>
   <g id="text_1">
    <!-- hsa-mir-3178 -->
    <g transform="translate(202.773683 457.33012) scale(0.08 -0.08)">
     <defs>
      <path id="DejaVuSans-68" d="M 3513 2113 
L 3513 0 
L 2938 0 
L 2938 2094 
Q 2938 2591 2744 2837 
Q 2550 3084 2163 3084 
Q 1697 3084 1428 2787 
Q 1159 2491 1159 1978 
L 1159 0 
L 581 0 
L 581 4863 
L 1159 4863 
L 1159 2956 
Q 1366 3272 1645 3428 
Q 1925 3584 2291 3584 
Q 2894 3584 3203 3211 
Q 3513 2838 3513 2113 
z
" transform="scale(0.015625)"/>
      <path id="DejaVuSans-73" d="M 2834 3397 
L 2834 2853 
Q 2591 2978 2328 3040 
Q 2066 3103 1784 3103 
Q 1356 3103 1142 2972 
Q 928 2841 928 2578 
Q 928 2378 1081 2264 
Q 1234 2150 1697 2047 
L 1894 2003 
Q 2506 1872 2764 1633 
Q 3022 1394 3022 966 
Q 3022 478 2636 193 
Q 2250 -91 1575 -91 
Q 1294 -91 989 -36 
Q 684 19 347 128 
L 347 722 
Q 666 556 975 473 
Q 1284 391 1588 391 
Q 1994 391 2212 530 
Q 2431 669 2431 922 
Q 2431 1156 2273 1281 
Q 2116 1406 1581 1522 
L 1381 1569 
Q 847 1681 609 1914 
Q 372 2147 372 2553 
Q 372 3047 722 3315 
Q 1072 3584 1716 3584 
Q 2034 3584 2315 3537 
Q 2597 3491 2834 3397 
z
" transform="scale(0.015625)"/>
      <path id="DejaVuSans-61" d="M 2194 1759 
Q 1497 1759 1228 1600 
Q 959 1441 959 1056 
Q 959 750 1161 570 
Q 1363 391 1709 391 
Q 2188 391 2477 730 
Q 2766 1069 2766 1631 
L 2766 1759 
L 2194 1759 
z
M 3341 1997 
L 3341 0 
L 2766 0 
L 2766 531 
Q 2569 213 2275 61 
Q 1981 -91 1556 -91 
Q 1019 -91 701 211 
Q 384 513 384 1019 
Q 384 1609 779 1909 
Q 1175 2209 1959 2209 
L 2766 2209 
L 2766 2266 
Q 2766 2663 2505 2880 
Q 2244 3097 1772 3097 
Q 1472 3097 1187 3025 
Q 903 2953 641 2809 
L 641 3341 
Q 956 3463 1253 3523 
Q 1550 3584 1831 3584 
Q 2591 3584 2966 3190 
Q 3341 2797 3341 1997 
z
" transform="scale(0.015625)"/>
      <path id="DejaVuSans-2d" d="M 313 2009 
L 1997 2009 
L 1997 1497 
L 313 1497 
L 313 2009 
z
" transform="scale(0.015625)"/>
      <path id="DejaVuSans-6d" d="M 3328 2828 
Q 3544 3216 3844 3400 
Q 4144 3584 4550 3584 
Q 5097 3584 5394 3201 
Q 5691 2819 5691 2113 
L 5691 0 
L 5113 0 
L 5113 2094 
Q 5113 2597 4934 2840 
Q 4756 3084 4391 3084 
Q 3944 3084 3684 2787 
Q 3425 2491 3425 1978 
L 3425 0 
L 2847 0 
L 2847 2094 
Q 2847 2600 2669 2842 
Q 2491 3084 2119 3084 
Q 1678 3084 1418 2786 
Q 1159 2488 1159 1978 
L 1159 0 
L 581 0 
L 581 3500 
L 1159 3500 
L 1159 2956 
Q 1356 3278 1631 3431 
Q 1906 3584 2284 3584 
Q 2666 3584 2933 3390 
Q 3200 3197 3328 2828 
z
" transform="scale(0.015625)"/>
      <path id="DejaVuSans-69" d="M 603 3500 
L 1178 3500 
L 1178 0 
L 603 0 
L 603 3500 
z
M 603 4863 
L 1178 4863 
L 1178 4134 
L 603 4134 
L 603 4863 
z
" transform="scale(0.015625)"/>
      <path id="DejaVuSans-72" d="M 2631 2963 
Q 2534 3019 2420 3045 
Q 2306 3072 2169 3072 
Q 1681 3072 1420 2755 
Q 1159 2438 1159 1844 
L 1159 0 
L 581 0 
L 581 3500 
L 1159 3500 
L 1159 2956 
Q 1341 3275 1631 3429 
Q 1922 3584 2338 3584 
Q 2397 3584 2469 3576 
Q 2541 3569 2628 3553 
L 2631 2963 
z
" transform="scale(0.015625)"/>
      <path id="DejaVuSans-33" d="M 2597 2516 
Q 3050 2419 3304 2112 
Q 3559 1806 3559 1356 
Q 3559 666 3084 287 
Q 2609 -91 1734 -91 
Q 1441 -91 1130 -33 
Q 819 25 488 141 
L 488 750 
Q 750 597 1062 519 
Q 1375 441 1716 441 
Q 2309 441 2620 675 
Q 2931 909 2931 1356 
Q 2931 1769 2642 2001 
Q 2353 2234 1838 2234 
L 1294 2234 
L 1294 2753 
L 1863 2753 
Q 2328 2753 2575 2939 
Q 2822 3125 2822 3475 
Q 2822 3834 2567 4026 
Q 2313 4219 1838 4219 
Q 1578 4219 1281 4162 
Q 984 4106 628 3988 
L 628 4550 
Q 988 4650 1302 4700 
Q 1616 4750 1894 4750 
Q 2613 4750 3031 4423 
Q 3450 4097 3450 3541 
Q 3450 3153 3228 2886 
Q 3006 2619 2597 2516 
z
" transform="scale(0.015625)"/>
      <path id="DejaVuSans-31" d="M 794 531 
L 1825 531 
L 1825 4091 
L 703 3866 
L 703 4441 
L 1819 4666 
L 2450 4666 
L 2450 531 
L 3481 531 
L 3481 0 
L 794 0 
L 794 531 
z
" transform="scale(0.015625)"/>
      <path id="DejaVuSans-37" d="M 525 4666 
L 3525 4666 
L 3525 4397 
L 1831 0 
L 1172 0 
L 2766 4134 
L 525 4134 
L 525 4666 
z
" transform="scale(0.015625)"/>
      <path id="DejaVuSans-38" d="M 2034 2216 
Q 1584 2216 1326 1975 
Q 1069 1734 1069 1313 
Q 1069 891 1326 650 
Q 1584 409 2034 409 
Q 2484 409 2743 651 
Q 3003 894 3003 1313 
Q 3003 1734 2745 1975 
Q 2488 2216 2034 2216 
z
M 1403 2484 
Q 997 2584 770 2862 
Q 544 3141 544 3541 
Q 544 4100 942 4425 
Q 1341 4750 2034 4750 
Q 2731 4750 3128 4425 
Q 3525 4100 3525 3541 
Q 3525 3141 3298 2862 
Q 3072 2584 2669 2484 
Q 3125 2378 3379 2068 
Q 3634 1759 3634 1313 
Q 3634 634 3220 271 
Q 2806 -91 2034 -91 
Q 1263 -91 848 271 
Q 434 634 434 1313 
Q 434 1759 690 2068 
Q 947 2378 1403 2484 
z
M 1172 3481 
Q 1172 3119 1398 2916 
Q 1625 2713 2034 2713 
Q 2441 2713 2670 2916 
Q 2900 3119 2900 3481 
Q 2900 3844 2670 4047 
Q 2441 4250 2034 4250 
Q 1625 4250 1398 4047 
Q 1172 3844 1172 3481 
z
" transform="scale(0.015625)"/>
     </defs>
     <use xlink:href="#DejaVuSans-68"/>
     <use xlink:href="#DejaVuSans-73" x="63.378906"/>
     <use xlink:href="#DejaVuSans-61" x="115.478516"/>
     <use xlink:href="#DejaVuSans-2d" x="176.757812"/>
     <use xlink:href="#DejaVuSans-6d" x="212.841797"/>
     <use xlink:href="#DejaVuSans-69" x="310.253906"/>
     <use xlink:href="#DejaVuSans-72" x="338.037109"/>
     <use xlink:href="#DejaVuSans-2d" x="372.775391"/>
     <use xlink:href="#DejaVuSans-33" x="408.859375"/>
     <use xlink:href="#DejaVuSans-31" x="472.482422"/>
     <use xlink:href="#DejaVuSans-37" x="536.105469"/>
     <use xlink:href="#DejaVuSans-38" x="599.728516"/>
    </g>
   </g>
   <g id="text_2">
    <!-- hsa-mir-935 -->
    <g transform="translate(326.220431 594.898409) scale(0.08 -0.08)">
     <defs>
      <path id="DejaVuSans-39" d="M 703 97 
L 703 672 
Q 941 559 1184 500 
Q 1428 441 1663 441 
Q 2288 441 2617 861 
Q 2947 1281 2994 2138 
Q 2813 1869 2534 1725 
Q 2256 1581 1919 1581 
Q 1219 1581 811 2004 
Q 403 2428 403 3163 
Q 403 3881 828 4315 
Q 1253 4750 1959 4750 
Q 2769 4750 3195 4129 
Q 3622 3509 3622 2328 
Q 3622 1225 3098 567 
Q 2575 -91 1691 -91 
Q 1453 -91 1209 -44 
Q 966 3 703 97 
z
M 1959 2075 
Q 2384 2075 2632 2365 
Q 2881 2656 2881 3163 
Q 2881 3666 2632 3958 
Q 2384 4250 1959 4250 
Q 1534 4250 1286 3958 
Q 1038 3666 1038 3163 
Q 1038 2656 1286 2365 
Q 1534 2075 1959 2075 
z
" transform="scale(0.015625)"/>
      <path id="DejaVuSans-35" d="M 691 4666 
L 3169 4666 
L 3169 4134 
L 1269 4134 
L 1269 2991 
Q 1406 3038 1543 3061 
Q 1681 3084 1819 3084 
Q 2600 3084 3056 2656 
Q 3513 2228 3513 1497 
Q 3513 744 3044 326 
Q 2575 -91 1722 -91 
Q 1428 -91 1123 -41 
Q 819 9 494 109 
L 494 744 
Q 775 591 1075 516 
Q 1375 441 1709 441 
Q 2250 441 2565 725 
Q 2881 1009 2881 1497 
Q 2881 1984 2565 2268 
Q 2250 2553 1709 2553 
Q 1456 2553 1204 2497 
Q 953 2441 691 2322 
L 691 4666 
z
" transform="scale(0.015625)"/>
     </defs>
     <use xlink:href="#DejaVuSans-68"/>
     <use xlink:href="#DejaVuSans-73" x="63.378906"/>
     <use xlink:href="#DejaVuSans-61" x="115.478516"/>
     <use xlink:href="#DejaVuSans-2d" x="176.757812"/>
     <use xlink:href="#DejaVuSans-6d" x="212.841797"/>
     <use xlink:href="#DejaVuSans-69" x="310.253906"/>
     <use xlink:href="#DejaVuSans-72" x="338.037109"/>
     <use xlink:href="#DejaVuSans-2d" x="372.775391"/>
     <use xlink:href="#DejaVuSans-39" x="408.859375"/>
     <use xlink:href="#DejaVuSans-33" x="472.482422"/>
     <use xlink:href="#DejaVuSans-35" x="536.105469"/>
    </g>
   </g>
   <g id="text_3">
    <!-- hsa-mir-184 -->
    <g transform="translate(225.053299 286.556873) scale(0.08 -0.08)">
     <defs>
      <path id="DejaVuSans-34" d="M 2419 4116 
L 825 1625 
L 2419 1625 
L 2419 4116 
z
M 2253 4666 
L 3047 4666 
L 3047 1625 
L 3713 1625 
L 3713 1100 
L 3047 1100 
L 3047 0 
L 2419 0 
L 2419 1100 
L 313 1100 
L 313 1709 
L 2253 4666 
z
" transform="scale(0.015625)"/>
     </defs>
     <use xlink:href="#DejaVuSans-68"/>
     <use xlink:href="#DejaVuSans-73" x="63.378906"/>
     <use xlink:href="#DejaVuSans-61" x="115.478516"/>
     <use xlink:href="#DejaVuSans-2d" x="176.757812"/>
     <use xlink:href="#DejaVuSans-6d" x="212.841797"/>
     <use xlink:href="#DejaVuSans-69" x="310.253906"/>
     <use xlink:href="#DejaVuSans-72" x="338.037109"/>
     <use xlink:href="#DejaVuSans-2d" x="372.775391"/>
     <use xlink:href="#DejaVuSans-31" x="408.859375"/>
     <use xlink:href="#DejaVuSans-38" x="472.482422"/>
     <use xlink:href="#DejaVuSans-34" x="536.105469"/>
    </g>
   </g>
   <g id="text_4">
    <!-- hsa-mir-7706 -->
    <g transform="translate(162.468416 224.888566) scale(0.08 -0.08)">
     <defs>
      <path id="DejaVuSans-30" d="M 2034 4250 
Q 1547 4250 1301 3770 
Q 1056 3291 1056 2328 
Q 1056 1369 1301 889 
Q 1547 409 2034 409 
Q 2525 409 2770 889 
Q 3016 1369 3016 2328 
Q 3016 3291 2770 3770 
Q 2525 4250 2034 4250 
z
M 2034 4750 
Q 2819 4750 3233 4129 
Q 3647 3509 3647 2328 
Q 3647 1150 3233 529 
Q 2819 -91 2034 -91 
Q 1250 -91 836 529 
Q 422 1150 422 2328 
Q 422 3509 836 4129 
Q 1250 4750 2034 4750 
z
" transform="scale(0.015625)"/>
      <path id="DejaVuSans-36" d="M 2113 2584 
Q 1688 2584 1439 2293 
Q 1191 2003 1191 1497 
Q 1191 994 1439 701 
Q 1688 409 2113 409 
Q 2538 409 2786 701 
Q 3034 994 3034 1497 
Q 3034 2003 2786 2293 
Q 2538 2584 2113 2584 
z
M 3366 4563 
L 3366 3988 
Q 3128 4100 2886 4159 
Q 2644 4219 2406 4219 
Q 1781 4219 1451 3797 
Q 1122 3375 1075 2522 
Q 1259 2794 1537 2939 
Q 1816 3084 2150 3084 
Q 2853 3084 3261 2657 
Q 3669 2231 3669 1497 
Q 3669 778 3244 343 
Q 2819 -91 2113 -91 
Q 1303 -91 875 529 
Q 447 1150 447 2328 
Q 447 3434 972 4092 
Q 1497 4750 2381 4750 
Q 2619 4750 2861 4703 
Q 3103 4656 3366 4563 
z
" transform="scale(0.015625)"/>
     </defs>
     <use xlink:href="#DejaVuSans-68"/>
     <use xlink:href="#DejaVuSans-73" x="63.378906"/>
     <use xlink:href="#DejaVuSans-61" x="115.478516"/>
     <use xlink:href="#DejaVuSans-2d" x="176.757812"/>
     <use xlink:href="#DejaVuSans-6d" x="212.841797"/>
     <use xlink:href="#DejaVuSans-69" x="310.253906"/>
     <use xlink:href="#DejaVuSans-72" x="338.037109"/>
     <use xlink:href="#DejaVuSans-2d" x="372.775391"/>
     <use xlink:href="#DejaVuSans-37" x="408.859375"/>
     <use xlink:href="#DejaVuSans-37" x="472.482422"/>
     <use xlink:href="#DejaVuSans-30" x="536.105469"/>
     <use xlink:href="#DejaVuSans-36" x="599.728516"/>
    </g>
   </g>
   <g id="text_5">
    <!-- hsa-mir-4454 -->
    <g transform="translate(352.241095 222.990553) scale(0.08 -0.08)">
     <use xlink:href="#DejaVuSans-68"/>
     <use xlink:href="#DejaVuSans-73" x="63.378906"/>
     <use xlink:href="#DejaVuSans-61" x="115.478516"/>
     <use xlink:href="#DejaVuSans-2d" x="176.757812"/>
     <use xlink:href="#DejaVuSans-6d" x="212.841797"/>
     <use xlink:href="#DejaVuSans-69" x="310.253906"/>
     <use xlink:href="#DejaVuSans-72" x="338.037109"/>
     <use xlink:href="#DejaVuSans-2d" x="372.775391"/>
     <use xlink:href="#DejaVuSans-34" x="408.859375"/>
     <use xlink:href="#DejaVuSans-34" x="472.482422"/>
     <use xlink:href="#DejaVuSans-35" x="536.105469"/>
     <use xlink:href="#DejaVuSans-34" x="599.728516"/>
    </g>
   </g>
   <g id="text_6">
    <!-- hsa-mir-4479 -->
    <g transform="translate(308.317699 452.718701) scale(0.08 -0.08)">
     <use xlink:href="#DejaVuSans-68"/>
     <use xlink:href="#DejaVuSans-73" x="63.378906"/>
     <use xlink:href="#DejaVuSans-61" x="115.478516"/>
     <use xlink:href="#DejaVuSans-2d" x="176.757812"/>
     <use xlink:href="#DejaVuSans-6d" x="212.841797"/>
     <use xlink:href="#DejaVuSans-69" x="310.253906"/>
     <use xlink:href="#DejaVuSans-72" x="338.037109"/>
     <use xlink:href="#DejaVuSans-2d" x="372.775391"/>
     <use xlink:href="#DejaVuSans-34" x="408.859375"/>
     <use xlink:href="#DejaVuSans-34" x="472.482422"/>
     <use xlink:href="#DejaVuSans-37" x="536.105469"/>
     <use xlink:href="#DejaVuSans-39" x="599.728516"/>
    </g>
   </g>
   <g id="text_7">
    <!-- hsa-mir-8072 -->
    <g transform="translate(270.843707 356.529846) scale(0.08 -0.08)">
     <defs>
      <path id="DejaVuSans-32" d="M 1228 531 
L 3431 531 
L 3431 0 
L 469 0 
L 469 531 
Q 828 903 1448 1529 
Q 2069 2156 2228 2338 
Q 2531 2678 2651 2914 
Q 2772 3150 2772 3378 
Q 2772 3750 2511 3984 
Q 2250 4219 1831 4219 
Q 1534 4219 1204 4116 
Q 875 4013 500 3803 
L 500 4441 
Q 881 4594 1212 4672 
Q 1544 4750 1819 4750 
Q 2544 4750 2975 4387 
Q 3406 4025 3406 3419 
Q 3406 3131 3298 2873 
Q 3191 2616 2906 2266 
Q 2828 2175 2409 1742 
Q 1991 1309 1228 531 
z
" transform="scale(0.015625)"/>
     </defs>
     <use xlink:href="#DejaVuSans-68"/>
     <use xlink:href="#DejaVuSans-73" x="63.378906"/>
     <use xlink:href="#DejaVuSans-61" x="115.478516"/>
     <use xlink:href="#DejaVuSans-2d" x="176.757812"/>
     <use xlink:href="#DejaVuSans-6d" x="212.841797"/>
     <use xlink:href="#DejaVuSans-69" x="310.253906"/>
     <use xlink:href="#DejaVuSans-72" x="338.037109"/>
     <use xlink:href="#DejaVuSans-2d" x="372.775391"/>
     <use xlink:href="#DejaVuSans-38" x="408.859375"/>
     <use xlink:href="#DejaVuSans-30" x="472.482422"/>
     <use xlink:href="#DejaVuSans-37" x="536.105469"/>
     <use xlink:href="#DejaVuSans-32" x="599.728516"/>
    </g>
   </g>
   <g id="text_8">
    <!-- hsa-mir-1181 -->
    <g transform="translate(428.032139 508.562779) scale(0.08 -0.08)">
     <use xlink:href="#DejaVuSans-68"/>
     <use xlink:href="#DejaVuSans-73" x="63.378906"/>
     <use xlink:href="#DejaVuSans-61" x="115.478516"/>
     <use xlink:href="#DejaVuSans-2d" x="176.757812"/>
     <use xlink:href="#DejaVuSans-6d" x="212.841797"/>
     <use xlink:href="#DejaVuSans-69" x="310.253906"/>
     <use xlink:href="#DejaVuSans-72" x="338.037109"/>
     <use xlink:href="#DejaVuSans-2d" x="372.775391"/>
     <use xlink:href="#DejaVuSans-31" x="408.859375"/>
     <use xlink:href="#DejaVuSans-31" x="472.482422"/>
     <use xlink:href="#DejaVuSans-38" x="536.105469"/>
     <use xlink:href="#DejaVuSans-31" x="599.728516"/>
    </g>
   </g>
   <g id="text_9">
    <!-- hsa-mir-7702 -->
    <g transform="translate(491.795534 211.253018) scale(0.08 -0.08)">
     <use xlink:href="#DejaVuSans-68"/>
     <use xlink:href="#DejaVuSans-73" x="63.378906"/>
     <use xlink:href="#DejaVuSans-61" x="115.478516"/>
     <use xlink:href="#DejaVuSans-2d" x="176.757812"/>
     <use xlink:href="#DejaVuSans-6d" x="212.841797"/>
     <use xlink:href="#DejaVuSans-69" x="310.253906"/>
     <use xlink:href="#DejaVuSans-72" x="338.037109"/>
     <use xlink:href="#DejaVuSans-2d" x="372.775391"/>
     <use xlink:href="#DejaVuSans-37" x="408.859375"/>
     <use xlink:href="#DejaVuSans-37" x="472.482422"/>
     <use xlink:href="#DejaVuSans-30" x="536.105469"/>
     <use xlink:href="#DejaVuSans-32" x="599.728516"/>
    </g>
   </g>
   <g id="text_10">
    <!-- hsa-mir-3939 -->
    <g transform="translate(478.615705 557.897425) scale(0.08 -0.08)">
     <use xlink:href="#DejaVuSans-68"/>
     <use xlink:href="#DejaVuSans-73" x="63.378906"/>
     <use xlink:href="#DejaVuSans-61" x="115.478516"/>
     <use xlink:href="#DejaVuSans-2d" x="176.757812"/>
     <use xlink:href="#DejaVuSans-6d" x="212.841797"/>
     <use xlink:href="#DejaVuSans-69" x="310.253906"/>
     <use xlink:href="#DejaVuSans-72" x="338.037109"/>
     <use xlink:href="#DejaVuSans-2d" x="372.775391"/>
     <use xlink:href="#DejaVuSans-33" x="408.859375"/>
     <use xlink:href="#DejaVuSans-39" x="472.482422"/>
     <use xlink:href="#DejaVuSans-33" x="536.105469"/>
     <use xlink:href="#DejaVuSans-39" x="599.728516"/>
    </g>
   </g>
   <g id="text_11">
    <!-- hsa-mir-151b -->
    <g transform="translate(124.539879 545.563763) scale(0.08 -0.08)">
     <defs>
      <path id="DejaVuSans-62" d="M 3116 1747 
Q 3116 2381 2855 2742 
Q 2594 3103 2138 3103 
Q 1681 3103 1420 2742 
Q 1159 2381 1159 1747 
Q 1159 1113 1420 752 
Q 1681 391 2138 391 
Q 2594 391 2855 752 
Q 3116 1113 3116 1747 
z
M 1159 2969 
Q 1341 3281 1617 3432 
Q 1894 3584 2278 3584 
Q 2916 3584 3314 3078 
Q 3713 2572 3713 1747 
Q 3713 922 3314 415 
Q 2916 -91 2278 -91 
Q 1894 -91 1617 61 
Q 1341 213 1159 525 
L 1159 0 
L 581 0 
L 581 4863 
L 1159 4863 
L 1159 2969 
z
" transform="scale(0.015625)"/>
     </defs>
     <use xlink:href="#DejaVuSans-68"/>
     <use xlink:href="#DejaVuSans-73" x="63.378906"/>
     <use xlink:href="#DejaVuSans-61" x="115.478516"/>
     <use xlink:href="#DejaVuSans-2d" x="176.757812"/>
     <use xlink:href="#DejaVuSans-6d" x="212.841797"/>
     <use xlink:href="#DejaVuSans-69" x="310.253906"/>
     <use xlink:href="#DejaVuSans-72" x="338.037109"/>
     <use xlink:href="#DejaVuSans-2d" x="372.775391"/>
     <use xlink:href="#DejaVuSans-31" x="408.859375"/>
     <use xlink:href="#DejaVuSans-35" x="472.482422"/>
     <use xlink:href="#DejaVuSans-31" x="536.105469"/>
     <use xlink:href="#DejaVuSans-62" x="599.728516"/>
    </g>
   </g>
   <g id="text_12">
    <!-- hsa-mir-934 -->
    <g transform="translate(225.053299 582.564748) scale(0.08 -0.08)">
     <use xlink:href="#DejaVuSans-68"/>
     <use xlink:href="#DejaVuSans-73" x="63.378906"/>
     <use xlink:href="#DejaVuSans-61" x="115.478516"/>
     <use xlink:href="#DejaVuSans-2d" x="176.757812"/>
     <use xlink:href="#DejaVuSans-6d" x="212.841797"/>
     <use xlink:href="#DejaVuSans-69" x="310.253906"/>
     <use xlink:href="#DejaVuSans-72" x="338.037109"/>
     <use xlink:href="#DejaVuSans-2d" x="372.775391"/>
     <use xlink:href="#DejaVuSans-39" x="408.859375"/>
     <use xlink:href="#DejaVuSans-33" x="472.482422"/>
     <use xlink:href="#DejaVuSans-34" x="536.105469"/>
    </g>
   </g>
   <g id="text_13">
    <!-- hsa-mir-449a -->
    <g transform="translate(429.102433 365.965097) scale(0.08 -0.08)">
     <use xlink:href="#DejaVuSans-68"/>
     <use xlink:href="#DejaVuSans-73" x="63.378906"/>
     <use xlink:href="#DejaVuSans-61" x="115.478516"/>
     <use xlink:href="#DejaVuSans-2d" x="176.757812"/>
     <use xlink:href="#DejaVuSans-6d" x="212.841797"/>
     <use xlink:href="#DejaVuSans-69" x="310.253906"/>
     <use xlink:href="#DejaVuSans-72" x="338.037109"/>
     <use xlink:href="#DejaVuSans-2d" x="372.775391"/>
     <use xlink:href="#DejaVuSans-34" x="408.859375"/>
     <use xlink:href="#DejaVuSans-34" x="472.482422"/>
     <use xlink:href="#DejaVuSans-39" x="536.105469"/>
     <use xlink:href="#DejaVuSans-61" x="599.728516"/>
    </g>
   </g>
   <g id="text_14">
    <!-- hsa-mir-3615 -->
    <g transform="translate(541.845163 471.561795) scale(0.08 -0.08)">
     <use xlink:href="#DejaVuSans-68"/>
     <use xlink:href="#DejaVuSans-73" x="63.378906"/>
     <use xlink:href="#DejaVuSans-61" x="115.478516"/>
     <use xlink:href="#DejaVuSans-2d" x="176.757812"/>
     <use xlink:href="#DejaVuSans-6d" x="212.841797"/>
     <use xlink:href="#DejaVuSans-69" x="310.253906"/>
     <use xlink:href="#DejaVuSans-72" x="338.037109"/>
     <use xlink:href="#DejaVuSans-2d" x="372.775391"/>
     <use xlink:href="#DejaVuSans-33" x="408.859375"/>
     <use xlink:href="#DejaVuSans-36" x="472.482422"/>
     <use xlink:href="#DejaVuSans-31" x="536.105469"/>
     <use xlink:href="#DejaVuSans-35" x="599.728516"/>
    </g>
   </g>
   <g id="text_15">
    <!-- hsa-mir-4523 -->
    <g transform="translate(111.888363 175.55392) scale(0.08 -0.08)">
     <use xlink:href="#DejaVuSans-68"/>
     <use xlink:href="#DejaVuSans-73" x="63.378906"/>
     <use xlink:href="#DejaVuSans-61" x="115.478516"/>
     <use xlink:href="#DejaVuSans-2d" x="176.757812"/>
     <use xlink:href="#DejaVuSans-6d" x="212.841797"/>
     <use xlink:href="#DejaVuSans-69" x="310.253906"/>
     <use xlink:href="#DejaVuSans-72" x="338.037109"/>
     <use xlink:href="#DejaVuSans-2d" x="372.775391"/>
     <use xlink:href="#DejaVuSans-34" x="408.859375"/>
     <use xlink:href="#DejaVuSans-35" x="472.482422"/>
     <use xlink:href="#DejaVuSans-32" x="536.105469"/>
     <use xlink:href="#DejaVuSans-33" x="599.728516"/>
    </g>
   </g>
   <g id="text_16">
    <!-- SOX2 -->
    <g transform="translate(475.047363 469.72545) scale(0.08 -0.08)">
     <defs>
      <path id="DejaVuSans-53" d="M 3425 4513 
L 3425 3897 
Q 3066 4069 2747 4153 
Q 2428 4238 2131 4238 
Q 1616 4238 1336 4038 
Q 1056 3838 1056 3469 
Q 1056 3159 1242 3001 
Q 1428 2844 1947 2747 
L 2328 2669 
Q 3034 2534 3370 2195 
Q 3706 1856 3706 1288 
Q 3706 609 3251 259 
Q 2797 -91 1919 -91 
Q 1588 -91 1214 -16 
Q 841 59 441 206 
L 441 856 
Q 825 641 1194 531 
Q 1563 422 1919 422 
Q 2459 422 2753 634 
Q 3047 847 3047 1241 
Q 3047 1584 2836 1778 
Q 2625 1972 2144 2069 
L 1759 2144 
Q 1053 2284 737 2584 
Q 422 2884 422 3419 
Q 422 4038 858 4394 
Q 1294 4750 2059 4750 
Q 2388 4750 2728 4690 
Q 3069 4631 3425 4513 
z
" transform="scale(0.015625)"/>
      <path id="DejaVuSans-4f" d="M 2522 4238 
Q 1834 4238 1429 3725 
Q 1025 3213 1025 2328 
Q 1025 1447 1429 934 
Q 1834 422 2522 422 
Q 3209 422 3611 934 
Q 4013 1447 4013 2328 
Q 4013 3213 3611 3725 
Q 3209 4238 2522 4238 
z
M 2522 4750 
Q 3503 4750 4090 4092 
Q 4678 3434 4678 2328 
Q 4678 1225 4090 567 
Q 3503 -91 2522 -91 
Q 1538 -91 948 565 
Q 359 1222 359 2328 
Q 359 3434 948 4092 
Q 1538 4750 2522 4750 
z
" transform="scale(0.015625)"/>
      <path id="DejaVuSans-58" d="M 403 4666 
L 1081 4666 
L 2241 2931 
L 3406 4666 
L 4084 4666 
L 2584 2425 
L 4184 0 
L 3506 0 
L 2194 1984 
L 872 0 
L 191 0 
L 1856 2491 
L 403 4666 
z
" transform="scale(0.015625)"/>
     </defs>
     <use xlink:href="#DejaVuSans-53"/>
     <use xlink:href="#DejaVuSans-4f" x="63.476562"/>
     <use xlink:href="#DejaVuSans-58" x="135.8125"/>
     <use xlink:href="#DejaVuSans-32" x="204.318359"/>
    </g>
   </g>
   <g id="text_17">
    <!-- LRRC46 -->
    <g transform="translate(382.715039 352.439181) scale(0.08 -0.08)">
     <defs>
      <path id="DejaVuSans-4c" d="M 628 4666 
L 1259 4666 
L 1259 531 
L 3531 531 
L 3531 0 
L 628 0 
L 628 4666 
z
" transform="scale(0.015625)"/>
      <path id="DejaVuSans-52" d="M 2841 2188 
Q 3044 2119 3236 1894 
Q 3428 1669 3622 1275 
L 4263 0 
L 3584 0 
L 2988 1197 
Q 2756 1666 2539 1819 
Q 2322 1972 1947 1972 
L 1259 1972 
L 1259 0 
L 628 0 
L 628 4666 
L 2053 4666 
Q 2853 4666 3247 4331 
Q 3641 3997 3641 3322 
Q 3641 2881 3436 2590 
Q 3231 2300 2841 2188 
z
M 1259 4147 
L 1259 2491 
L 2053 2491 
Q 2509 2491 2742 2702 
Q 2975 2913 2975 3322 
Q 2975 3731 2742 3939 
Q 2509 4147 2053 4147 
L 1259 4147 
z
" transform="scale(0.015625)"/>
      <path id="DejaVuSans-43" d="M 4122 4306 
L 4122 3641 
Q 3803 3938 3442 4084 
Q 3081 4231 2675 4231 
Q 1875 4231 1450 3742 
Q 1025 3253 1025 2328 
Q 1025 1406 1450 917 
Q 1875 428 2675 428 
Q 3081 428 3442 575 
Q 3803 722 4122 1019 
L 4122 359 
Q 3791 134 3420 21 
Q 3050 -91 2638 -91 
Q 1578 -91 968 557 
Q 359 1206 359 2328 
Q 359 3453 968 4101 
Q 1578 4750 2638 4750 
Q 3056 4750 3426 4639 
Q 3797 4528 4122 4306 
z
" transform="scale(0.015625)"/>
     </defs>
     <use xlink:href="#DejaVuSans-4c"/>
     <use xlink:href="#DejaVuSans-52" x="55.712891"/>
     <use xlink:href="#DejaVuSans-52" x="125.195312"/>
     <use xlink:href="#DejaVuSans-43" x="189.677734"/>
     <use xlink:href="#DejaVuSans-34" x="259.501953"/>
     <use xlink:href="#DejaVuSans-36" x="323.125"/>
    </g>
   </g>
   <g id="text_18">
    <!-- VGF -->
    <g transform="translate(308.567719 405.65893) scale(0.08 -0.08)">
     <defs>
      <path id="DejaVuSans-56" d="M 1831 0 
L 50 4666 
L 709 4666 
L 2188 738 
L 3669 4666 
L 4325 4666 
L 2547 0 
L 1831 0 
z
" transform="scale(0.015625)"/>
      <path id="DejaVuSans-47" d="M 3809 666 
L 3809 1919 
L 2778 1919 
L 2778 2438 
L 4434 2438 
L 4434 434 
Q 4069 175 3628 42 
Q 3188 -91 2688 -91 
Q 1594 -91 976 548 
Q 359 1188 359 2328 
Q 359 3472 976 4111 
Q 1594 4750 2688 4750 
Q 3144 4750 3555 4637 
Q 3966 4525 4313 4306 
L 4313 3634 
Q 3963 3931 3569 4081 
Q 3175 4231 2741 4231 
Q 1884 4231 1454 3753 
Q 1025 3275 1025 2328 
Q 1025 1384 1454 906 
Q 1884 428 2741 428 
Q 3075 428 3337 486 
Q 3600 544 3809 666 
z
" transform="scale(0.015625)"/>
      <path id="DejaVuSans-46" d="M 628 4666 
L 3309 4666 
L 3309 4134 
L 1259 4134 
L 1259 2759 
L 3109 2759 
L 3109 2228 
L 1259 2228 
L 1259 0 
L 628 0 
L 628 4666 
z
" transform="scale(0.015625)"/>
     </defs>
     <use xlink:href="#DejaVuSans-56"/>
     <use xlink:href="#DejaVuSans-47" x="68.408203"/>
     <use xlink:href="#DejaVuSans-46" x="145.898438"/>
    </g>
   </g>
   <g id="text_19">
    <!-- CACNG8 -->
    <g transform="translate(364.512381 556.061765) scale(0.08 -0.08)">
     <defs>
      <path id="DejaVuSans-41" d="M 2188 4044 
L 1331 1722 
L 3047 1722 
L 2188 4044 
z
M 1831 4666 
L 2547 4666 
L 4325 0 
L 3669 0 
L 3244 1197 
L 1141 1197 
L 716 0 
L 50 0 
L 1831 4666 
z
" transform="scale(0.015625)"/>
      <path id="DejaVuSans-4e" d="M 628 4666 
L 1478 4666 
L 3547 763 
L 3547 4666 
L 4159 4666 
L 4159 0 
L 3309 0 
L 1241 3903 
L 1241 0 
L 628 0 
L 628 4666 
z
" transform="scale(0.015625)"/>
     </defs>
     <use xlink:href="#DejaVuSans-43"/>
     <use xlink:href="#DejaVuSans-41" x="69.824219"/>
     <use xlink:href="#DejaVuSans-43" x="136.482422"/>
     <use xlink:href="#DejaVuSans-4e" x="206.306641"/>
     <use xlink:href="#DejaVuSans-47" x="281.111328"/>
     <use xlink:href="#DejaVuSans-38" x="358.601562"/>
    </g>
   </g>
   <g id="text_20">
    <!-- PKP1 -->
    <g transform="translate(526.35718 519.060095) scale(0.08 -0.08)">
     <defs>
      <path id="DejaVuSans-50" d="M 1259 4147 
L 1259 2394 
L 2053 2394 
Q 2494 2394 2734 2622 
Q 2975 2850 2975 3272 
Q 2975 3691 2734 3919 
Q 2494 4147 2053 4147 
L 1259 4147 
z
M 628 4666 
L 2053 4666 
Q 2838 4666 3239 4311 
Q 3641 3956 3641 3272 
Q 3641 2581 3239 2228 
Q 2838 1875 2053 1875 
L 1259 1875 
L 1259 0 
L 628 0 
L 628 4666 
z
" transform="scale(0.015625)"/>
      <path id="DejaVuSans-4b" d="M 628 4666 
L 1259 4666 
L 1259 2694 
L 3353 4666 
L 4166 4666 
L 1850 2491 
L 4331 0 
L 3500 0 
L 1259 2247 
L 1259 0 
L 628 0 
L 628 4666 
z
" transform="scale(0.015625)"/>
     </defs>
     <use xlink:href="#DejaVuSans-50"/>
     <use xlink:href="#DejaVuSans-4b" x="60.302734"/>
     <use xlink:href="#DejaVuSans-50" x="125.878906"/>
     <use xlink:href="#DejaVuSans-31" x="186.181641"/>
    </g>
   </g>
   <g id="text_21">
    <!-- RASGRF1 -->
    <g transform="translate(261.615248 247.719544) scale(0.08 -0.08)">
     <use xlink:href="#DejaVuSans-52"/>
     <use xlink:href="#DejaVuSans-41" x="65.482422"/>
     <use xlink:href="#DejaVuSans-53" x="133.890625"/>
     <use xlink:href="#DejaVuSans-47" x="197.367188"/>
     <use xlink:href="#DejaVuSans-52" x="274.857422"/>
     <use xlink:href="#DejaVuSans-46" x="344.339844"/>
     <use xlink:href="#DejaVuSans-31" x="401.859375"/>
    </g>
   </g>
   <g id="text_22">
    <!-- CLXN -->
    <g transform="translate(475.790943 415.107886) scale(0.08 -0.08)">
     <use xlink:href="#DejaVuSans-43"/>
     <use xlink:href="#DejaVuSans-4c" x="69.824219"/>
     <use xlink:href="#DejaVuSans-58" x="125.537109"/>
     <use xlink:href="#DejaVuSans-4e" x="194.042969"/>
    </g>
   </g>
   <g id="text_23">
    <!-- EN1 -->
    <g transform="translate(320.287241 312.245149) scale(0.08 -0.08)">
     <defs>
      <path id="DejaVuSans-45" d="M 628 4666 
L 3578 4666 
L 3578 4134 
L 1259 4134 
L 1259 2753 
L 3481 2753 
L 3481 2222 
L 1259 2222 
L 1259 531 
L 3634 531 
L 3634 0 
L 628 0 
L 628 4666 
z
" transform="scale(0.015625)"/>
     </defs>
     <use xlink:href="#DejaVuSans-45"/>
     <use xlink:href="#DejaVuSans-4e" x="63.183594"/>
     <use xlink:href="#DejaVuSans-31" x="137.988281"/>
    </g>
   </g>
   <g id="text_24">
    <!-- TEKT1 -->
    <g transform="translate(457.20149 309.805825) scale(0.08 -0.08)">
     <defs>
      <path id="DejaVuSans-54" d="M -19 4666 
L 3928 4666 
L 3928 4134 
L 2272 4134 
L 2272 0 
L 1638 0 
L 1638 4134 
L -19 4134 
L -19 4666 
z
" transform="scale(0.015625)"/>
     </defs>
     <use xlink:href="#DejaVuSans-54"/>
     <use xlink:href="#DejaVuSans-45" x="61.083984"/>
     <use xlink:href="#DejaVuSans-4b" x="124.267578"/>
     <use xlink:href="#DejaVuSans-54" x="182.09375"/>
     <use xlink:href="#DejaVuSans-31" x="243.177734"/>
    </g>
   </g>
   <g id="text_25">
    <!-- POU3F3 -->
    <g transform="translate(343.66669 496.229118) scale(0.08 -0.08)">
     <defs>
      <path id="DejaVuSans-55" d="M 556 4666 
L 1191 4666 
L 1191 1831 
Q 1191 1081 1462 751 
Q 1734 422 2344 422 
Q 2950 422 3222 751 
Q 3494 1081 3494 1831 
L 3494 4666 
L 4128 4666 
L 4128 1753 
Q 4128 841 3676 375 
Q 3225 -91 2344 -91 
Q 1459 -91 1007 375 
Q 556 841 556 1753 
L 556 4666 
z
" transform="scale(0.015625)"/>
     </defs>
     <use xlink:href="#DejaVuSans-50"/>
     <use xlink:href="#DejaVuSans-4f" x="60.302734"/>
     <use xlink:href="#DejaVuSans-55" x="139.013672"/>
     <use xlink:href="#DejaVuSans-33" x="212.207031"/>
     <use xlink:href="#DejaVuSans-46" x="275.830078"/>
     <use xlink:href="#DejaVuSans-33" x="333.349609"/>
    </g>
   </g>
   <g id="text_26">
    <!-- RIIAD1 -->
    <g transform="translate(492.568545 335.816147) scale(0.08 -0.08)">
     <defs>
      <path id="DejaVuSans-49" d="M 628 4666 
L 1259 4666 
L 1259 0 
L 628 0 
L 628 4666 
z
" transform="scale(0.015625)"/>
      <path id="DejaVuSans-44" d="M 1259 4147 
L 1259 519 
L 2022 519 
Q 2988 519 3436 956 
Q 3884 1394 3884 2338 
Q 3884 3275 3436 3711 
Q 2988 4147 2022 4147 
L 1259 4147 
z
M 628 4666 
L 1925 4666 
Q 3281 4666 3915 4102 
Q 4550 3538 4550 2338 
Q 4550 1131 3912 565 
Q 3275 0 1925 0 
L 628 0 
L 628 4666 
z
" transform="scale(0.015625)"/>
     </defs>
     <use xlink:href="#DejaVuSans-52"/>
     <use xlink:href="#DejaVuSans-49" x="69.482422"/>
     <use xlink:href="#DejaVuSans-49" x="98.974609"/>
     <use xlink:href="#DejaVuSans-41" x="128.466797"/>
     <use xlink:href="#DejaVuSans-44" x="196.875"/>
     <use xlink:href="#DejaVuSans-31" x="273.876953"/>
    </g>
   </g>
   <g id="text_27">
    <!-- HRH4 -->
    <g transform="translate(350.003341 176.458389) scale(0.08 -0.08)">
     <defs>
      <path id="DejaVuSans-48" d="M 628 4666 
L 1259 4666 
L 1259 2753 
L 3553 2753 
L 3553 4666 
L 4184 4666 
L 4184 0 
L 3553 0 
L 3553 2222 
L 1259 2222 
L 1259 0 
L 628 0 
L 628 4666 
z
" transform="scale(0.015625)"/>
     </defs>
     <use xlink:href="#DejaVuSans-48"/>
     <use xlink:href="#DejaVuSans-52" x="75.195312"/>
     <use xlink:href="#DejaVuSans-48" x="144.677734"/>
     <use xlink:href="#DejaVuSans-34" x="219.873047"/>
    </g>
   </g>
   <g id="text_28">
    <!-- DLEC1 -->
    <g transform="translate(411.209361 316.685267) scale(0.08 -0.08)">
     <use xlink:href="#DejaVuSans-44"/>
     <use xlink:href="#DejaVuSans-4c" x="77.001953"/>
     <use xlink:href="#DejaVuSans-45" x="132.714844"/>
     <use xlink:href="#DejaVuSans-43" x="195.898438"/>
     <use xlink:href="#DejaVuSans-31" x="265.722656"/>
    </g>
   </g>
   <g id="text_29">
    <!-- MUC3A -->
    <g transform="translate(155.165075 136.716591) scale(0.08 -0.08)">
     <defs>
      <path id="DejaVuSans-4d" d="M 628 4666 
L 1569 4666 
L 2759 1491 
L 3956 4666 
L 4897 4666 
L 4897 0 
L 4281 0 
L 4281 4097 
L 3078 897 
L 2444 897 
L 1241 4097 
L 1241 0 
L 628 0 
L 628 4666 
z
" transform="scale(0.015625)"/>
     </defs>
     <use xlink:href="#DejaVuSans-4d"/>
     <use xlink:href="#DejaVuSans-55" x="86.279297"/>
     <use xlink:href="#DejaVuSans-43" x="159.472656"/>
     <use xlink:href="#DejaVuSans-33" x="229.296875"/>
     <use xlink:href="#DejaVuSans-41" x="292.919922"/>
    </g>
   </g>
   <g id="text_30">
    <!-- CXCR3 -->
    <g transform="translate(452.803731 197.8847) scale(0.08 -0.08)">
     <use xlink:href="#DejaVuSans-43"/>
     <use xlink:href="#DejaVuSans-58" x="69.824219"/>
     <use xlink:href="#DejaVuSans-43" x="131.080078"/>
     <use xlink:href="#DejaVuSans-52" x="200.904297"/>
     <use xlink:href="#DejaVuSans-33" x="270.386719"/>
    </g>
   </g>
   <g id="text_31">
    <!-- BARX1 -->
    <g transform="translate(168.719091 506.726434) scale(0.08 -0.08)">
     <defs>
      <path id="DejaVuSans-42" d="M 1259 2228 
L 1259 519 
L 2272 519 
Q 2781 519 3026 730 
Q 3272 941 3272 1375 
Q 3272 1813 3026 2020 
Q 2781 2228 2272 2228 
L 1259 2228 
z
M 1259 4147 
L 1259 2741 
L 2194 2741 
Q 2656 2741 2882 2914 
Q 3109 3088 3109 3444 
Q 3109 3797 2882 3972 
Q 2656 4147 2194 4147 
L 1259 4147 
z
M 628 4666 
L 2241 4666 
Q 2963 4666 3353 4366 
Q 3744 4066 3744 3513 
Q 3744 3084 3544 2831 
Q 3344 2578 2956 2516 
Q 3422 2416 3680 2098 
Q 3938 1781 3938 1306 
Q 3938 681 3513 340 
Q 3088 0 2303 0 
L 628 0 
L 628 4666 
z
" transform="scale(0.015625)"/>
     </defs>
     <use xlink:href="#DejaVuSans-42"/>
     <use xlink:href="#DejaVuSans-41" x="68.603516"/>
     <use xlink:href="#DejaVuSans-52" x="137.011719"/>
     <use xlink:href="#DejaVuSans-58" x="206.494141"/>
     <use xlink:href="#DejaVuSans-31" x="275"/>
    </g>
   </g>
   <g id="text_32">
    <!-- CFAP43 -->
    <g transform="translate(498.219122 379.477308) scale(0.08 -0.08)">
     <use xlink:href="#DejaVuSans-43"/>
     <use xlink:href="#DejaVuSans-46" x="69.824219"/>
     <use xlink:href="#DejaVuSans-41" x="118.21875"/>
     <use xlink:href="#DejaVuSans-50" x="186.626953"/>
     <use xlink:href="#DejaVuSans-34" x="246.929688"/>
     <use xlink:href="#DejaVuSans-33" x="310.552734"/>
    </g>
   </g>
   <g id="text_33">
    <!-- OLIG3 -->
    <g transform="translate(587.376637 432.724465) scale(0.08 -0.08)">
     <use xlink:href="#DejaVuSans-4f"/>
     <use xlink:href="#DejaVuSans-4c" x="78.710938"/>
     <use xlink:href="#DejaVuSans-49" x="134.423828"/>
     <use xlink:href="#DejaVuSans-47" x="163.916016"/>
     <use xlink:href="#DejaVuSans-33" x="241.40625"/>
    </g>
   </g>
   <g id="text_34">
    <!-- BTG4 -->
    <g transform="translate(431.045344 422.227149) scale(0.08 -0.08)">
     <use xlink:href="#DejaVuSans-42"/>
     <use xlink:href="#DejaVuSans-54" x="68.603516"/>
     <use xlink:href="#DejaVuSans-47" x="129.6875"/>
     <use xlink:href="#DejaVuSans-34" x="207.177734"/>
    </g>
   </g>
   <g id="text_35">
    <!-- DUSP9 -->
    <g transform="translate(206.698016 186.051237) scale(0.08 -0.08)">
     <use xlink:href="#DejaVuSans-44"/>
     <use xlink:href="#DejaVuSans-55" x="77.001953"/>
     <use xlink:href="#DejaVuSans-53" x="150.195312"/>
     <use xlink:href="#DejaVuSans-50" x="213.671875"/>
     <use xlink:href="#DejaVuSans-39" x="273.974609"/>
    </g>
   </g>
   <g id="text_36">
    <!-- TRAT1 -->
    <g transform="translate(520.443738 261.88955) scale(0.08 -0.08)">
     <use xlink:href="#DejaVuSans-54"/>
     <use xlink:href="#DejaVuSans-52" x="61.083984"/>
     <use xlink:href="#DejaVuSans-41" x="126.566406"/>
     <use xlink:href="#DejaVuSans-54" x="187.224609"/>
     <use xlink:href="#DejaVuSans-31" x="248.308594"/>
    </g>
   </g>
   <g id="text_37">
    <!-- ARC -->
    <g transform="translate(235.768935 344.285261) scale(0.08 -0.08)">
     <use xlink:href="#DejaVuSans-41"/>
     <use xlink:href="#DejaVuSans-52" x="68.408203"/>
     <use xlink:href="#DejaVuSans-43" x="132.890625"/>
    </g>
   </g>
   <g id="text_38">
    <!-- TOGARAM2 -->
    <g transform="translate(382.115637 396.209975) scale(0.08 -0.08)">
     <use xlink:href="#DejaVuSans-54"/>
     <use xlink:href="#DejaVuSans-4f" x="61.083984"/>
     <use xlink:href="#DejaVuSans-47" x="139.794922"/>
     <use xlink:href="#DejaVuSans-41" x="217.285156"/>
     <use xlink:href="#DejaVuSans-52" x="285.693359"/>
     <use xlink:href="#DejaVuSans-41" x="351.175781"/>
     <use xlink:href="#DejaVuSans-4d" x="419.583984"/>
     <use xlink:href="#DejaVuSans-32" x="505.863281"/>
    </g>
   </g>
   <g id="text_39">
    <!-- ATCAY -->
    <g transform="translate(397.902386 261.88955) scale(0.08 -0.08)">
     <defs>
      <path id="DejaVuSans-59" d="M -13 4666 
L 666 4666 
L 1959 2747 
L 3244 4666 
L 3922 4666 
L 2272 2222 
L 2272 0 
L 1638 0 
L 1638 2222 
L -13 4666 
z
" transform="scale(0.015625)"/>
     </defs>
     <use xlink:href="#DejaVuSans-41"/>
     <use xlink:href="#DejaVuSans-54" x="60.658203"/>
     <use xlink:href="#DejaVuSans-43" x="115.867188"/>
     <use xlink:href="#DejaVuSans-41" x="185.691406"/>
     <use xlink:href="#DejaVuSans-59" x="246.349609"/>
    </g>
   </g>
   <g id="text_40">
    <!-- THEMIS -->
    <g transform="translate(540.9905 173.724427) scale(0.08 -0.08)">
     <use xlink:href="#DejaVuSans-54"/>
     <use xlink:href="#DejaVuSans-48" x="61.083984"/>
     <use xlink:href="#DejaVuSans-45" x="136.279297"/>
     <use xlink:href="#DejaVuSans-4d" x="199.462891"/>
     <use xlink:href="#DejaVuSans-49" x="285.742188"/>
     <use xlink:href="#DejaVuSans-53" x="315.234375"/>
    </g>
   </g>
   <g id="text_41">
    <!-- TULP1 -->
    <g transform="translate(199.320304 410.797956) scale(0.08 -0.08)">
     <use xlink:href="#DejaVuSans-54"/>
     <use xlink:href="#DejaVuSans-55" x="61.083984"/>
     <use xlink:href="#DejaVuSans-4c" x="134.277344"/>
     <use xlink:href="#DejaVuSans-50" x="189.990234"/>
     <use xlink:href="#DejaVuSans-31" x="250.292969"/>
    </g>
   </g>
   <g id="text_42">
    <!-- KLHL30 -->
    <g transform="translate(265.055873 543.728103) scale(0.08 -0.08)">
     <use xlink:href="#DejaVuSans-4b"/>
     <use xlink:href="#DejaVuSans-4c" x="65.576172"/>
     <use xlink:href="#DejaVuSans-48" x="121.289062"/>
     <use xlink:href="#DejaVuSans-4c" x="196.484375"/>
     <use xlink:href="#DejaVuSans-33" x="252.197266"/>
     <use xlink:href="#DejaVuSans-30" x="315.820312"/>
    </g>
   </g>
   <g id="text_43">
    <!-- BARHL1 -->
    <g transform="translate(244.689973 496.229118) scale(0.08 -0.08)">
     <use xlink:href="#DejaVuSans-42"/>
     <use xlink:href="#DejaVuSans-41" x="68.603516"/>
     <use xlink:href="#DejaVuSans-52" x="137.011719"/>
     <use xlink:href="#DejaVuSans-48" x="206.494141"/>
     <use xlink:href="#DejaVuSans-4c" x="281.689453"/>
     <use xlink:href="#DejaVuSans-31" x="337.402344"/>
    </g>
   </g>
   <g id="text_44">
    <!-- Coregulation network -->
    <g transform="translate(304.395 80.4) scale(0.12 -0.12)">
     <defs>
      <path id="DejaVuSans-6f" d="M 1959 3097 
Q 1497 3097 1228 2736 
Q 959 2375 959 1747 
Q 959 1119 1226 758 
Q 1494 397 1959 397 
Q 2419 397 2687 759 
Q 2956 1122 2956 1747 
Q 2956 2369 2687 2733 
Q 2419 3097 1959 3097 
z
M 1959 3584 
Q 2709 3584 3137 3096 
Q 3566 2609 3566 1747 
Q 3566 888 3137 398 
Q 2709 -91 1959 -91 
Q 1206 -91 779 398 
Q 353 888 353 1747 
Q 353 2609 779 3096 
Q 1206 3584 1959 3584 
z
" transform="scale(0.015625)"/>
      <path id="DejaVuSans-65" d="M 3597 1894 
L 3597 1613 
L 953 1613 
Q 991 1019 1311 708 
Q 1631 397 2203 397 
Q 2534 397 2845 478 
Q 3156 559 3463 722 
L 3463 178 
Q 3153 47 2828 -22 
Q 2503 -91 2169 -91 
Q 1331 -91 842 396 
Q 353 884 353 1716 
Q 353 2575 817 3079 
Q 1281 3584 2069 3584 
Q 2775 3584 3186 3129 
Q 3597 2675 3597 1894 
z
M 3022 2063 
Q 3016 2534 2758 2815 
Q 2500 3097 2075 3097 
Q 1594 3097 1305 2825 
Q 1016 2553 972 2059 
L 3022 2063 
z
" transform="scale(0.015625)"/>
      <path id="DejaVuSans-67" d="M 2906 1791 
Q 2906 2416 2648 2759 
Q 2391 3103 1925 3103 
Q 1463 3103 1205 2759 
Q 947 2416 947 1791 
Q 947 1169 1205 825 
Q 1463 481 1925 481 
Q 2391 481 2648 825 
Q 2906 1169 2906 1791 
z
M 3481 434 
Q 3481 -459 3084 -895 
Q 2688 -1331 1869 -1331 
Q 1566 -1331 1297 -1286 
Q 1028 -1241 775 -1147 
L 775 -588 
Q 1028 -725 1275 -790 
Q 1522 -856 1778 -856 
Q 2344 -856 2625 -561 
Q 2906 -266 2906 331 
L 2906 616 
Q 2728 306 2450 153 
Q 2172 0 1784 0 
Q 1141 0 747 490 
Q 353 981 353 1791 
Q 353 2603 747 3093 
Q 1141 3584 1784 3584 
Q 2172 3584 2450 3431 
Q 2728 3278 2906 2969 
L 2906 3500 
L 3481 3500 
L 3481 434 
z
" transform="scale(0.015625)"/>
      <path id="DejaVuSans-75" d="M 544 1381 
L 544 3500 
L 1119 3500 
L 1119 1403 
Q 1119 906 1312 657 
Q 1506 409 1894 409 
Q 2359 409 2629 706 
Q 2900 1003 2900 1516 
L 2900 3500 
L 3475 3500 
L 3475 0 
L 2900 0 
L 2900 538 
Q 2691 219 2414 64 
Q 2138 -91 1772 -91 
Q 1169 -91 856 284 
Q 544 659 544 1381 
z
M 1991 3584 
L 1991 3584 
z
" transform="scale(0.015625)"/>
      <path id="DejaVuSans-6c" d="M 603 4863 
L 1178 4863 
L 1178 0 
L 603 0 
L 603 4863 
z
" transform="scale(0.015625)"/>
      <path id="DejaVuSans-74" d="M 1172 4494 
L 1172 3500 
L 2356 3500 
L 2356 3053 
L 1172 3053 
L 1172 1153 
Q 1172 725 1289 603 
Q 1406 481 1766 481 
L 2356 481 
L 2356 0 
L 1766 0 
Q 1100 0 847 248 
Q 594 497 594 1153 
L 594 3053 
L 172 3053 
L 172 3500 
L 594 3500 
L 594 4494 
L 1172 4494 
z
" transform="scale(0.015625)"/>
      <path id="DejaVuSans-6e" d="M 3513 2113 
L 3513 0 
L 2938 0 
L 2938 2094 
Q 2938 2591 2744 2837 
Q 2550 3084 2163 3084 
Q 1697 3084 1428 2787 
Q 1159 2491 1159 1978 
L 1159 0 
L 581 0 
L 581 3500 
L 1159 3500 
L 1159 2956 
Q 1366 3272 1645 3428 
Q 1925 3584 2291 3584 
Q 2894 3584 3203 3211 
Q 3513 2838 3513 2113 
z
" transform="scale(0.015625)"/>
      <path id="DejaVuSans-20" transform="scale(0.015625)"/>
      <path id="DejaVuSans-77" d="M 269 3500 
L 844 3500 
L 1563 769 
L 2278 3500 
L 2956 3500 
L 3675 769 
L 4391 3500 
L 4966 3500 
L 4050 0 
L 3372 0 
L 2619 2869 
L 1863 0 
L 1184 0 
L 269 3500 
z
" transform="scale(0.015625)"/>
      <path id="DejaVuSans-6b" d="M 581 4863 
L 1159 4863 
L 1159 1991 
L 2875 3500 
L 3609 3500 
L 1753 1863 
L 3688 0 
L 2938 0 
L 1159 1709 
L 1159 0 
L 581 0 
L 581 4863 
z
" transform="scale(0.015625)"/>
     </defs>
     <use xlink:href="#DejaVuSans-43"/>
     <use xlink:href="#DejaVuSans-6f" x="69.824219"/>
     <use xlink:href="#DejaVuSans-72" x="131.005859"/>
     <use xlink:href="#DejaVuSans-65" x="169.869141"/>
     <use xlink:href="#DejaVuSans-67" x="231.392578"/>
     <use xlink:href="#DejaVuSans-75" x="294.869141"/>
     <use xlink:href="#DejaVuSans-6c" x="358.248047"/>
     <use xlink:href="#DejaVuSans-61" x="386.03125"/>
     <use xlink:href="#DejaVuSans-74" x="447.310547"/>
     <use xlink:href="#DejaVuSans-69" x="486.519531"/>
     <use xlink:href="#DejaVuSans-6f" x="514.302734"/>
     <use xlink:href="#DejaVuSans-6e" x="575.484375"/>
     <use xlink:href="#DejaVuSans-20" x="638.863281"/>
     <use xlink:href="#DejaVuSans-6e" x="670.650391"/>
     <use xlink:href="#DejaVuSans-65" x="734.029297"/>
     <use xlink:href="#DejaVuSans-74" x="795.552734"/>
     <use xlink:href="#DejaVuSans-77" x="834.761719"/>
     <use xlink:href="#DejaVuSans-6f" x="916.548828"/>
     <use xlink:href="#DejaVuSans-72" x="977.730469"/>
     <use xlink:href="#DejaVuSans-6b" x="1018.84375"/>
    </g>
   </g>
   <g id="legend_1">
    <g id="patch_50">
     <path d="M 496.5 153.1125 
L 641 153.1125 
Q 643 153.1125 643 151.1125 
L 643 93.4 
Q 643 91.4 641 91.4 
L 496.5 91.4 
Q 494.5 91.4 494.5 93.4 
L 494.5 151.1125 
Q 494.5 153.1125 496.5 153.1125 
z
" style="fill: #ffffff; opacity: 0.8; stroke: #cccccc; stroke-linejoin: miter"/>
    </g>
    <g id="line2d_1">
     <path d="M 498.5 99.498437 
L 508.5 99.498437 
L 518.5 99.498437 
" style="fill: none; stroke: #800080; stroke-width: 2; stroke-linecap: square"/>
    </g>
    <g id="text_45">
     <!-- Structural Information -->
     <g transform="translate(526.5 102.998437) scale(0.1 -0.1)">
      <defs>
       <path id="DejaVuSans-63" d="M 3122 3366 
L 3122 2828 
Q 2878 2963 2633 3030 
Q 2388 3097 2138 3097 
Q 1578 3097 1268 2742 
Q 959 2388 959 1747 
Q 959 1106 1268 751 
Q 1578 397 2138 397 
Q 2388 397 2633 464 
Q 2878 531 3122 666 
L 3122 134 
Q 2881 22 2623 -34 
Q 2366 -91 2075 -91 
Q 1284 -91 818 406 
Q 353 903 353 1747 
Q 353 2603 823 3093 
Q 1294 3584 2113 3584 
Q 2378 3584 2631 3529 
Q 2884 3475 3122 3366 
z
" transform="scale(0.015625)"/>
       <path id="DejaVuSans-66" d="M 2375 4863 
L 2375 4384 
L 1825 4384 
Q 1516 4384 1395 4259 
Q 1275 4134 1275 3809 
L 1275 3500 
L 2222 3500 
L 2222 3053 
L 1275 3053 
L 1275 0 
L 697 0 
L 697 3053 
L 147 3053 
L 147 3500 
L 697 3500 
L 697 3744 
Q 697 4328 969 4595 
Q 1241 4863 1831 4863 
L 2375 4863 
z
" transform="scale(0.015625)"/>
      </defs>
      <use xlink:href="#DejaVuSans-53"/>
      <use xlink:href="#DejaVuSans-74" x="63.476562"/>
      <use xlink:href="#DejaVuSans-72" x="102.685547"/>
      <use xlink:href="#DejaVuSans-75" x="143.798828"/>
      <use xlink:href="#DejaVuSans-63" x="207.177734"/>
      <use xlink:href="#DejaVuSans-74" x="262.158203"/>
      <use xlink:href="#DejaVuSans-75" x="301.367188"/>
      <use xlink:href="#DejaVuSans-72" x="364.746094"/>
      <use xlink:href="#DejaVuSans-61" x="405.859375"/>
      <use xlink:href="#DejaVuSans-6c" x="467.138672"/>
      <use xlink:href="#DejaVuSans-20" x="494.921875"/>
      <use xlink:href="#DejaVuSans-49" x="526.708984"/>
      <use xlink:href="#DejaVuSans-6e" x="556.201172"/>
      <use xlink:href="#DejaVuSans-66" x="619.580078"/>
      <use xlink:href="#DejaVuSans-6f" x="654.785156"/>
      <use xlink:href="#DejaVuSans-72" x="715.966797"/>
      <use xlink:href="#DejaVuSans-6d" x="755.330078"/>
      <use xlink:href="#DejaVuSans-61" x="852.742188"/>
      <use xlink:href="#DejaVuSans-74" x="914.021484"/>
      <use xlink:href="#DejaVuSans-69" x="953.230469"/>
      <use xlink:href="#DejaVuSans-6f" x="981.013672"/>
      <use xlink:href="#DejaVuSans-6e" x="1042.195312"/>
     </g>
    </g>
    <g id="line2d_2">
     <path d="M 498.5 114.176562 
L 508.5 114.176562 
L 518.5 114.176562 
" style="fill: none; stroke: #ff0000; stroke-width: 2; stroke-linecap: square"/>
    </g>
    <g id="text_46">
     <!-- Functional Information -->
     <g transform="translate(526.5 117.676562) scale(0.1 -0.1)">
      <use xlink:href="#DejaVuSans-46"/>
      <use xlink:href="#DejaVuSans-75" x="52.019531"/>
      <use xlink:href="#DejaVuSans-6e" x="115.398438"/>
      <use xlink:href="#DejaVuSans-63" x="178.777344"/>
      <use xlink:href="#DejaVuSans-74" x="233.757812"/>
      <use xlink:href="#DejaVuSans-69" x="272.966797"/>
      <use xlink:href="#DejaVuSans-6f" x="300.75"/>
      <use xlink:href="#DejaVuSans-6e" x="361.931641"/>
      <use xlink:href="#DejaVuSans-61" x="425.310547"/>
      <use xlink:href="#DejaVuSans-6c" x="486.589844"/>
      <use xlink:href="#DejaVuSans-20" x="514.373047"/>
      <use xlink:href="#DejaVuSans-49" x="546.160156"/>
      <use xlink:href="#DejaVuSans-6e" x="575.652344"/>
      <use xlink:href="#DejaVuSans-66" x="639.03125"/>
      <use xlink:href="#DejaVuSans-6f" x="674.236328"/>
      <use xlink:href="#DejaVuSans-72" x="735.417969"/>
      <use xlink:href="#DejaVuSans-6d" x="774.78125"/>
      <use xlink:href="#DejaVuSans-61" x="872.193359"/>
      <use xlink:href="#DejaVuSans-74" x="933.472656"/>
      <use xlink:href="#DejaVuSans-69" x="972.681641"/>
      <use xlink:href="#DejaVuSans-6f" x="1000.464844"/>
      <use xlink:href="#DejaVuSans-6e" x="1061.646484"/>
     </g>
    </g>
    <g id="patch_51">
     <path d="M 498.5 132.354687 
L 518.5 132.354687 
L 518.5 125.354687 
L 498.5 125.354687 
z
" style="fill: #90ee90; stroke: #90ee90; stroke-linejoin: miter"/>
    </g>
    <g id="text_47">
     <!-- miRNA -->
     <g transform="translate(526.5 132.354687) scale(0.1 -0.1)">
      <use xlink:href="#DejaVuSans-6d"/>
      <use xlink:href="#DejaVuSans-69" x="97.412109"/>
      <use xlink:href="#DejaVuSans-52" x="125.195312"/>
      <use xlink:href="#DejaVuSans-4e" x="194.677734"/>
      <use xlink:href="#DejaVuSans-41" x="269.482422"/>
     </g>
    </g>
    <g id="patch_52">
     <path d="M 498.5 147.032812 
L 518.5 147.032812 
L 518.5 140.032812 
L 498.5 140.032812 
z
" style="fill: #add8e6; stroke: #add8e6; stroke-linejoin: miter"/>
    </g>
    <g id="text_48">
     <!-- mRNA -->
     <g transform="translate(526.5 147.032812) scale(0.1 -0.1)">
      <use xlink:href="#DejaVuSans-6d"/>
      <use xlink:href="#DejaVuSans-52" x="97.412109"/>
      <use xlink:href="#DejaVuSans-4e" x="166.894531"/>
      <use xlink:href="#DejaVuSans-41" x="241.699219"/>
     </g>
    </g>
   </g>
  </g>
 </g>
 <defs>
  <clipPath id="p4c21cde805">
   <rect x="90" y="86.4" width="558" height="554.4"/>
  </clipPath>
 </defs>
</svg>
