<?xml version="1.0" encoding="utf-8" standalone="no"?>
<!DOCTYPE svg PUBLIC "-//W3C//DTD SVG 1.1//EN"
  "http://www.w3.org/Graphics/SVG/1.1/DTD/svg11.dtd">
<svg xmlns:xlink="http://www.w3.org/1999/xlink" width="720pt" height="720pt" viewBox="0 0 720 720" xmlns="http://www.w3.org/2000/svg" version="1.1">
 <metadata>
  <rdf:RDF xmlns:dc="http://purl.org/dc/elements/1.1/" xmlns:cc="http://creativecommons.org/ns#" xmlns:rdf="http://www.w3.org/1999/02/22-rdf-syntax-ns#">
   <cc:Work>
    <dc:type rdf:resource="http://purl.org/dc/dcmitype/StillImage"/>
    <dc:date>2024-09-10T18:34:41.317178</dc:date>
    <dc:format>image/svg+xml</dc:format>
    <dc:creator>
     <cc:Agent>
      <dc:title>Matplotlib v3.8.4, https://matplotlib.org/</dc:title>
     </cc:Agent>
    </dc:creator>
   </cc:Work>
  </rdf:RDF>
 </metadata>
 <defs>
  <style type="text/css">*{stroke-linejoin: round; stroke-linecap: butt}</style>
 </defs>
 <g id="figure_1">
  <g id="patch_1">
   <path d="M 0 720 
L 720 720 
L 720 0 
L 0 0 
z
" style="fill: #ffffff"/>
  </g>
  <g id="axes_1">
   <g id="patch_2">
    <path d="M 90 640.8 
L 648 640.8 
L 648 86.4 
L 90 86.4 
z
" style="fill: #ffffff"/>
   </g>
   <g id="LineCollection_1">
    <path d="M 380.846098 360.747961 
L 462.195286 263.366284 
" clip-path="url(#p15a8fdd3c3)" style="fill: none; stroke: #800080; stroke-opacity: 0.5; stroke-width: 10"/>
    <path d="M 183.866027 469.381447 
L 138.421488 352.707272 
" clip-path="url(#p15a8fdd3c3)" style="fill: none; stroke: #800080; stroke-opacity: 0.5; stroke-width: 3.991957"/>
    <path d="M 215.995385 231.890767 
L 297.335414 134.509091 
" clip-path="url(#p15a8fdd3c3)" style="fill: none; stroke: #800080; stroke-opacity: 0.5; stroke-width: 10"/>
    <path d="M 183.866027 469.381447 
L 265.810543 566.91947 
" clip-path="url(#p15a8fdd3c3)" style="fill: none; stroke: #800080; stroke-opacity: 0.5; stroke-width: 3.991957"/>
    <path d="M 518.229324 592.690909 
L 599.578512 495.310951 
" clip-path="url(#p15a8fdd3c3)" style="fill: none; stroke: #800080; stroke-opacity: 0.5; stroke-width: 10"/>
   </g>
   <g id="LineCollection_2">
    <path d="M 380.846098 360.747961 
L 462.195286 263.366284 
" clip-path="url(#p15a8fdd3c3)" style="fill: none; stroke: #ff0000; stroke-opacity: 0.5; stroke-width: 4.309782"/>
    <path d="M 183.866027 469.381447 
L 138.421488 352.707272 
" clip-path="url(#p15a8fdd3c3)" style="fill: none; stroke: #ff0000; stroke-opacity: 0.5; stroke-width: 10"/>
    <path d="M 215.995385 231.890767 
L 297.335414 134.509091 
" clip-path="url(#p15a8fdd3c3)" style="fill: none; stroke: #ff0000; stroke-opacity: 0.5; stroke-width: 1.546861"/>
    <path d="M 183.866027 469.381447 
L 265.810543 566.91947 
" clip-path="url(#p15a8fdd3c3)" style="fill: none; stroke: #ff0000; stroke-opacity: 0.5; stroke-width: 9.888805"/>
    <path d="M 518.229324 592.690909 
L 599.578512 495.310951 
" clip-path="url(#p15a8fdd3c3)" style="fill: none; stroke: #ff0000; stroke-opacity: 0.5; stroke-width: 2.220118"/>
   </g>
   <g id="matplotlib.axis_1">
    <g id="xtick_1"/>
    <g id="xtick_2"/>
    <g id="xtick_3"/>
    <g id="xtick_4"/>
    <g id="xtick_5"/>
    <g id="xtick_6"/>
   </g>
   <g id="matplotlib.axis_2">
    <g id="ytick_1"/>
    <g id="ytick_2"/>
    <g id="ytick_3"/>
    <g id="ytick_4"/>
    <g id="ytick_5"/>
    <g id="ytick_6"/>
    <g id="ytick_7"/>
   </g>
   <g id="patch_3">
    <path d="M 215.995385 261.957446 
C 228.140204 261.957446 239.789238 258.789431 248.376922 253.15112 
C 256.964606 247.512808 261.789793 239.864544 261.789793 231.890767 
C 261.789793 223.916991 256.964606 216.268726 248.376922 210.630415 
C 239.789238 204.992104 228.140204 201.824089 215.995385 201.824089 
C 203.850565 201.824089 192.201531 204.992104 183.613847 210.630415 
C 175.026163 216.268726 170.200976 223.916991 170.200976 231.890767 
C 170.200976 239.864544 175.026163 247.512808 183.613847 253.15112 
C 192.201531 258.789431 203.850565 261.957446 215.995385 261.957446 
z
" clip-path="url(#p15a8fdd3c3)" style="fill: #90ee90; stroke: #90ee90; stroke-width: 1.5; stroke-linejoin: miter"/>
   </g>
   <g id="patch_4">
    <path d="M 380.846098 390.814639 
C 392.990917 390.814639 404.639951 387.646624 413.227635 382.008313 
C 421.815319 376.370002 426.640507 368.721737 426.640507 360.747961 
C 426.640507 352.774184 421.815319 345.12592 413.227635 339.487609 
C 404.639951 333.849297 392.990917 330.681282 380.846098 330.681282 
C 368.701278 330.681282 357.052245 333.849297 348.464561 339.487609 
C 339.876877 345.12592 335.051689 352.774184 335.051689 360.747961 
C 335.051689 368.721737 339.876877 376.370002 348.464561 382.008313 
C 357.052245 387.646624 368.701278 390.814639 380.846098 390.814639 
z
" clip-path="url(#p15a8fdd3c3)" style="fill: #90ee90; stroke: #90ee90; stroke-width: 1.5; stroke-linejoin: miter"/>
   </g>
   <g id="patch_5">
    <path d="M 183.866027 499.448126 
C 196.010846 499.448126 207.65988 496.280111 216.247564 490.6418 
C 224.835248 485.003488 229.660436 477.355224 229.660436 469.381447 
C 229.660436 461.407671 224.835248 453.759406 216.247564 448.121095 
C 207.65988 442.482784 196.010846 439.314769 183.866027 439.314769 
C 171.721208 439.314769 160.072174 442.482784 151.48449 448.121095 
C 142.896806 453.759406 138.071618 461.407671 138.071618 469.381447 
C 138.071618 477.355224 142.896806 485.003488 151.48449 490.6418 
C 160.072174 496.280111 171.721208 499.448126 183.866027 499.448126 
z
" clip-path="url(#p15a8fdd3c3)" style="fill: #90ee90; stroke: #90ee90; stroke-width: 1.5; stroke-linejoin: miter"/>
   </g>
   <g id="patch_6">
    <path d="M 518.229324 622.757588 
C 530.374144 622.757588 542.023177 619.589573 550.610861 613.951261 
C 559.198546 608.31295 564.023733 600.664685 564.023733 592.690909 
C 564.023733 584.717133 559.198546 577.068868 550.610861 571.430557 
C 542.023177 565.792246 530.374144 562.624231 518.229324 562.624231 
C 506.084505 562.624231 494.435471 565.792246 485.847787 571.430557 
C 477.260103 577.068868 472.434916 584.717133 472.434916 592.690909 
C 472.434916 600.664685 477.260103 608.31295 485.847787 613.951261 
C 494.435471 619.589573 506.084505 622.757588 518.229324 622.757588 
z
" clip-path="url(#p15a8fdd3c3)" style="fill: #90ee90; stroke: #90ee90; stroke-width: 1.5; stroke-linejoin: miter"/>
   </g>
   <g id="patch_7">
    <path d="M 462.195286 293.432963 
C 474.340105 293.432963 485.989139 290.264948 494.576823 284.626637 
C 503.164507 278.988325 507.989695 271.340061 507.989695 263.366284 
C 507.989695 255.392508 503.164507 247.744243 494.576823 242.105932 
C 485.989139 236.467621 474.340105 233.299606 462.195286 233.299606 
C 450.050466 233.299606 438.401433 236.467621 429.813749 242.105932 
C 421.226065 247.744243 416.400877 255.392508 416.400877 263.366284 
C 416.400877 271.340061 421.226065 278.988325 429.813749 284.626637 
C 438.401433 290.264948 450.050466 293.432963 462.195286 293.432963 
z
" clip-path="url(#p15a8fdd3c3)" style="fill: #add8e6; stroke: #add8e6; stroke-width: 0.5; stroke-linejoin: miter"/>
   </g>
   <g id="patch_8">
    <path d="M 138.421488 382.77395 
C 150.566307 382.77395 162.215341 379.605935 170.803025 373.967624 
C 179.390709 368.329313 184.215897 360.681048 184.215897 352.707272 
C 184.215897 344.733496 179.390709 337.085231 170.803025 331.44692 
C 162.215341 325.808608 150.566307 322.640593 138.421488 322.640593 
C 126.276668 322.640593 114.627635 325.808608 106.039951 331.44692 
C 97.452267 337.085231 92.627079 344.733496 92.627079 352.707272 
C 92.627079 360.681048 97.452267 368.329313 106.039951 373.967624 
C 114.627635 379.605935 126.276668 382.77395 138.421488 382.77395 
z
" clip-path="url(#p15a8fdd3c3)" style="fill: #add8e6; stroke: #add8e6; stroke-width: 0.5; stroke-linejoin: miter"/>
   </g>
   <g id="patch_9">
    <path d="M 297.335414 164.575769 
C 309.480233 164.575769 321.129267 161.407754 329.716951 155.769443 
C 338.304635 150.131132 343.129823 142.482867 343.129823 134.509091 
C 343.129823 126.535315 338.304635 118.88705 329.716951 113.248739 
C 321.129267 107.610427 309.480233 104.442412 297.335414 104.442412 
C 285.190594 104.442412 273.541561 107.610427 264.953877 113.248739 
C 256.366193 118.88705 251.541005 126.535315 251.541005 134.509091 
C 251.541005 142.482867 256.366193 150.131132 264.953877 155.769443 
C 273.541561 161.407754 285.190594 164.575769 297.335414 164.575769 
z
" clip-path="url(#p15a8fdd3c3)" style="fill: #add8e6; stroke: #add8e6; stroke-width: 0.5; stroke-linejoin: miter"/>
   </g>
   <g id="patch_10">
    <path d="M 265.810543 596.986149 
C 277.955362 596.986149 289.604396 593.818134 298.19208 588.179823 
C 306.779764 582.541511 311.604951 574.893247 311.604951 566.91947 
C 311.604951 558.945694 306.779764 551.297429 298.19208 545.659118 
C 289.604396 540.020807 277.955362 536.852792 265.810543 536.852792 
C 253.665723 536.852792 242.016689 540.020807 233.429005 545.659118 
C 224.841321 551.297429 220.016134 558.945694 220.016134 566.91947 
C 220.016134 574.893247 224.841321 582.541511 233.429005 588.179823 
C 242.016689 593.818134 253.665723 596.986149 265.810543 596.986149 
z
" clip-path="url(#p15a8fdd3c3)" style="fill: #add8e6; stroke: #add8e6; stroke-width: 0.5; stroke-linejoin: miter"/>
   </g>
   <g id="patch_11">
    <path d="M 599.578512 525.377629 
C 611.723332 525.377629 623.372365 522.209614 631.960049 516.571303 
C 640.547733 510.932992 645.372921 503.284727 645.372921 495.310951 
C 645.372921 487.337174 640.547733 479.68891 631.960049 474.050599 
C 623.372365 468.412287 611.723332 465.244272 599.578512 465.244272 
C 587.433693 465.244272 575.784659 468.412287 567.196975 474.050599 
C 558.609291 479.68891 553.784103 487.337174 553.784103 495.310951 
C 553.784103 503.284727 558.609291 510.932992 567.196975 516.571303 
C 575.784659 522.209614 587.433693 525.377629 599.578512 525.377629 
z
" clip-path="url(#p15a8fdd3c3)" style="fill: #add8e6; stroke: #add8e6; stroke-width: 0.5; stroke-linejoin: miter"/>
   </g>
   <g id="patch_12">
    <path d="M 90 640.8 
L 90 86.4 
" style="fill: none; stroke: #000000; stroke-width: 0.8; stroke-linejoin: miter; stroke-linecap: square"/>
   </g>
   <g id="patch_13">
    <path d="M 648 640.8 
L 648 86.4 
" style="fill: none; stroke: #000000; stroke-width: 0.8; stroke-linejoin: miter; stroke-linecap: square"/>
   </g>
   <g id="patch_14">
    <path d="M 90 640.8 
L 648 640.8 
" style="fill: none; stroke: #000000; stroke-width: 0.8; stroke-linejoin: miter; stroke-linecap: square"/>
   </g>
   <g id="patch_15">
    <path d="M 90 86.4 
L 648 86.4 
" style="fill: none; stroke: #000000; stroke-width: 0.8; stroke-linejoin: miter; stroke-linecap: square"/>
   </g>
   <g id="text_1">
    <!-- hsa-mir-3193 -->
    <g transform="translate(189.46226 234.098267) scale(0.08 -0.08)">
     <defs>
      <path id="DejaVuSans-68" d="M 3513 2113 
L 3513 0 
L 2938 0 
L 2938 2094 
Q 2938 2591 2744 2837 
Q 2550 3084 2163 3084 
Q 1697 3084 1428 2787 
Q 1159 2491 1159 1978 
L 1159 0 
L 581 0 
L 581 4863 
L 1159 4863 
L 1159 2956 
Q 1366 3272 1645 3428 
Q 1925 3584 2291 3584 
Q 2894 3584 3203 3211 
Q 3513 2838 3513 2113 
z
" transform="scale(0.015625)"/>
      <path id="DejaVuSans-73" d="M 2834 3397 
L 2834 2853 
Q 2591 2978 2328 3040 
Q 2066 3103 1784 3103 
Q 1356 3103 1142 2972 
Q 928 2841 928 2578 
Q 928 2378 1081 2264 
Q 1234 2150 1697 2047 
L 1894 2003 
Q 2506 1872 2764 1633 
Q 3022 1394 3022 966 
Q 3022 478 2636 193 
Q 2250 -91 1575 -91 
Q 1294 -91 989 -36 
Q 684 19 347 128 
L 347 722 
Q 666 556 975 473 
Q 1284 391 1588 391 
Q 1994 391 2212 530 
Q 2431 669 2431 922 
Q 2431 1156 2273 1281 
Q 2116 1406 1581 1522 
L 1381 1569 
Q 847 1681 609 1914 
Q 372 2147 372 2553 
Q 372 3047 722 3315 
Q 1072 3584 1716 3584 
Q 2034 3584 2315 3537 
Q 2597 3491 2834 3397 
z
" transform="scale(0.015625)"/>
      <path id="DejaVuSans-61" d="M 2194 1759 
Q 1497 1759 1228 1600 
Q 959 1441 959 1056 
Q 959 750 1161 570 
Q 1363 391 1709 391 
Q 2188 391 2477 730 
Q 2766 1069 2766 1631 
L 2766 1759 
L 2194 1759 
z
M 3341 1997 
L 3341 0 
L 2766 0 
L 2766 531 
Q 2569 213 2275 61 
Q 1981 -91 1556 -91 
Q 1019 -91 701 211 
Q 384 513 384 1019 
Q 384 1609 779 1909 
Q 1175 2209 1959 2209 
L 2766 2209 
L 2766 2266 
Q 2766 2663 2505 2880 
Q 2244 3097 1772 3097 
Q 1472 3097 1187 3025 
Q 903 2953 641 2809 
L 641 3341 
Q 956 3463 1253 3523 
Q 1550 3584 1831 3584 
Q 2591 3584 2966 3190 
Q 3341 2797 3341 1997 
z
" transform="scale(0.015625)"/>
      <path id="DejaVuSans-2d" d="M 313 2009 
L 1997 2009 
L 1997 1497 
L 313 1497 
L 313 2009 
z
" transform="scale(0.015625)"/>
      <path id="DejaVuSans-6d" d="M 3328 2828 
Q 3544 3216 3844 3400 
Q 4144 3584 4550 3584 
Q 5097 3584 5394 3201 
Q 5691 2819 5691 2113 
L 5691 0 
L 5113 0 
L 5113 2094 
Q 5113 2597 4934 2840 
Q 4756 3084 4391 3084 
Q 3944 3084 3684 2787 
Q 3425 2491 3425 1978 
L 3425 0 
L 2847 0 
L 2847 2094 
Q 2847 2600 2669 2842 
Q 2491 3084 2119 3084 
Q 1678 3084 1418 2786 
Q 1159 2488 1159 1978 
L 1159 0 
L 581 0 
L 581 3500 
L 1159 3500 
L 1159 2956 
Q 1356 3278 1631 3431 
Q 1906 3584 2284 3584 
Q 2666 3584 2933 3390 
Q 3200 3197 3328 2828 
z
" transform="scale(0.015625)"/>
      <path id="DejaVuSans-69" d="M 603 3500 
L 1178 3500 
L 1178 0 
L 603 0 
L 603 3500 
z
M 603 4863 
L 1178 4863 
L 1178 4134 
L 603 4134 
L 603 4863 
z
" transform="scale(0.015625)"/>
      <path id="DejaVuSans-72" d="M 2631 2963 
Q 2534 3019 2420 3045 
Q 2306 3072 2169 3072 
Q 1681 3072 1420 2755 
Q 1159 2438 1159 1844 
L 1159 0 
L 581 0 
L 581 3500 
L 1159 3500 
L 1159 2956 
Q 1341 3275 1631 3429 
Q 1922 3584 2338 3584 
Q 2397 3584 2469 3576 
Q 2541 3569 2628 3553 
L 2631 2963 
z
" transform="scale(0.015625)"/>
      <path id="DejaVuSans-33" d="M 2597 2516 
Q 3050 2419 3304 2112 
Q 3559 1806 3559 1356 
Q 3559 666 3084 287 
Q 2609 -91 1734 -91 
Q 1441 -91 1130 -33 
Q 819 25 488 141 
L 488 750 
Q 750 597 1062 519 
Q 1375 441 1716 441 
Q 2309 441 2620 675 
Q 2931 909 2931 1356 
Q 2931 1769 2642 2001 
Q 2353 2234 1838 2234 
L 1294 2234 
L 1294 2753 
L 1863 2753 
Q 2328 2753 2575 2939 
Q 2822 3125 2822 3475 
Q 2822 3834 2567 4026 
Q 2313 4219 1838 4219 
Q 1578 4219 1281 4162 
Q 984 4106 628 3988 
L 628 4550 
Q 988 4650 1302 4700 
Q 1616 4750 1894 4750 
Q 2613 4750 3031 4423 
Q 3450 4097 3450 3541 
Q 3450 3153 3228 2886 
Q 3006 2619 2597 2516 
z
" transform="scale(0.015625)"/>
      <path id="DejaVuSans-31" d="M 794 531 
L 1825 531 
L 1825 4091 
L 703 3866 
L 703 4441 
L 1819 4666 
L 2450 4666 
L 2450 531 
L 3481 531 
L 3481 0 
L 794 0 
L 794 531 
z
" transform="scale(0.015625)"/>
      <path id="DejaVuSans-39" d="M 703 97 
L 703 672 
Q 941 559 1184 500 
Q 1428 441 1663 441 
Q 2288 441 2617 861 
Q 2947 1281 2994 2138 
Q 2813 1869 2534 1725 
Q 2256 1581 1919 1581 
Q 1219 1581 811 2004 
Q 403 2428 403 3163 
Q 403 3881 828 4315 
Q 1253 4750 1959 4750 
Q 2769 4750 3195 4129 
Q 3622 3509 3622 2328 
Q 3622 1225 3098 567 
Q 2575 -91 1691 -91 
Q 1453 -91 1209 -44 
Q 966 3 703 97 
z
M 1959 2075 
Q 2384 2075 2632 2365 
Q 2881 2656 2881 3163 
Q 2881 3666 2632 3958 
Q 2384 4250 1959 4250 
Q 1534 4250 1286 3958 
Q 1038 3666 1038 3163 
Q 1038 2656 1286 2365 
Q 1534 2075 1959 2075 
z
" transform="scale(0.015625)"/>
     </defs>
     <use xlink:href="#DejaVuSans-68"/>
     <use xlink:href="#DejaVuSans-73" x="63.378906"/>
     <use xlink:href="#DejaVuSans-61" x="115.478516"/>
     <use xlink:href="#DejaVuSans-2d" x="176.757812"/>
     <use xlink:href="#DejaVuSans-6d" x="212.841797"/>
     <use xlink:href="#DejaVuSans-69" x="310.253906"/>
     <use xlink:href="#DejaVuSans-72" x="338.037109"/>
     <use xlink:href="#DejaVuSans-2d" x="372.775391"/>
     <use xlink:href="#DejaVuSans-33" x="408.859375"/>
     <use xlink:href="#DejaVuSans-31" x="472.482422"/>
     <use xlink:href="#DejaVuSans-39" x="536.105469"/>
     <use xlink:href="#DejaVuSans-33" x="599.728516"/>
    </g>
   </g>
   <g id="text_2">
    <!-- hsa-mir-151b -->
    <g transform="translate(354.318598 362.955461) scale(0.08 -0.08)">
     <defs>
      <path id="DejaVuSans-35" d="M 691 4666 
L 3169 4666 
L 3169 4134 
L 1269 4134 
L 1269 2991 
Q 1406 3038 1543 3061 
Q 1681 3084 1819 3084 
Q 2600 3084 3056 2656 
Q 3513 2228 3513 1497 
Q 3513 744 3044 326 
Q 2575 -91 1722 -91 
Q 1428 -91 1123 -41 
Q 819 9 494 109 
L 494 744 
Q 775 591 1075 516 
Q 1375 441 1709 441 
Q 2250 441 2565 725 
Q 2881 1009 2881 1497 
Q 2881 1984 2565 2268 
Q 2250 2553 1709 2553 
Q 1456 2553 1204 2497 
Q 953 2441 691 2322 
L 691 4666 
z
" transform="scale(0.015625)"/>
      <path id="DejaVuSans-62" d="M 3116 1747 
Q 3116 2381 2855 2742 
Q 2594 3103 2138 3103 
Q 1681 3103 1420 2742 
Q 1159 2381 1159 1747 
Q 1159 1113 1420 752 
Q 1681 391 2138 391 
Q 2594 391 2855 752 
Q 3116 1113 3116 1747 
z
M 1159 2969 
Q 1341 3281 1617 3432 
Q 1894 3584 2278 3584 
Q 2916 3584 3314 3078 
Q 3713 2572 3713 1747 
Q 3713 922 3314 415 
Q 2916 -91 2278 -91 
Q 1894 -91 1617 61 
Q 1341 213 1159 525 
L 1159 0 
L 581 0 
L 581 4863 
L 1159 4863 
L 1159 2969 
z
" transform="scale(0.015625)"/>
     </defs>
     <use xlink:href="#DejaVuSans-68"/>
     <use xlink:href="#DejaVuSans-73" x="63.378906"/>
     <use xlink:href="#DejaVuSans-61" x="115.478516"/>
     <use xlink:href="#DejaVuSans-2d" x="176.757812"/>
     <use xlink:href="#DejaVuSans-6d" x="212.841797"/>
     <use xlink:href="#DejaVuSans-69" x="310.253906"/>
     <use xlink:href="#DejaVuSans-72" x="338.037109"/>
     <use xlink:href="#DejaVuSans-2d" x="372.775391"/>
     <use xlink:href="#DejaVuSans-31" x="408.859375"/>
     <use xlink:href="#DejaVuSans-35" x="472.482422"/>
     <use xlink:href="#DejaVuSans-31" x="536.105469"/>
     <use xlink:href="#DejaVuSans-62" x="599.728516"/>
    </g>
   </g>
   <g id="text_3">
    <!-- hsa-mir-378c -->
    <g transform="translate(157.678527 471.588947) scale(0.08 -0.08)">
     <defs>
      <path id="DejaVuSans-37" d="M 525 4666 
L 3525 4666 
L 3525 4397 
L 1831 0 
L 1172 0 
L 2766 4134 
L 525 4134 
L 525 4666 
z
" transform="scale(0.015625)"/>
      <path id="DejaVuSans-38" d="M 2034 2216 
Q 1584 2216 1326 1975 
Q 1069 1734 1069 1313 
Q 1069 891 1326 650 
Q 1584 409 2034 409 
Q 2484 409 2743 651 
Q 3003 894 3003 1313 
Q 3003 1734 2745 1975 
Q 2488 2216 2034 2216 
z
M 1403 2484 
Q 997 2584 770 2862 
Q 544 3141 544 3541 
Q 544 4100 942 4425 
Q 1341 4750 2034 4750 
Q 2731 4750 3128 4425 
Q 3525 4100 3525 3541 
Q 3525 3141 3298 2862 
Q 3072 2584 2669 2484 
Q 3125 2378 3379 2068 
Q 3634 1759 3634 1313 
Q 3634 634 3220 271 
Q 2806 -91 2034 -91 
Q 1263 -91 848 271 
Q 434 634 434 1313 
Q 434 1759 690 2068 
Q 947 2378 1403 2484 
z
M 1172 3481 
Q 1172 3119 1398 2916 
Q 1625 2713 2034 2713 
Q 2441 2713 2670 2916 
Q 2900 3119 2900 3481 
Q 2900 3844 2670 4047 
Q 2441 4250 2034 4250 
Q 1625 4250 1398 4047 
Q 1172 3844 1172 3481 
z
" transform="scale(0.015625)"/>
      <path id="DejaVuSans-63" d="M 3122 3366 
L 3122 2828 
Q 2878 2963 2633 3030 
Q 2388 3097 2138 3097 
Q 1578 3097 1268 2742 
Q 959 2388 959 1747 
Q 959 1106 1268 751 
Q 1578 397 2138 397 
Q 2388 397 2633 464 
Q 2878 531 3122 666 
L 3122 134 
Q 2881 22 2623 -34 
Q 2366 -91 2075 -91 
Q 1284 -91 818 406 
Q 353 903 353 1747 
Q 353 2603 823 3093 
Q 1294 3584 2113 3584 
Q 2378 3584 2631 3529 
Q 2884 3475 3122 3366 
z
" transform="scale(0.015625)"/>
     </defs>
     <use xlink:href="#DejaVuSans-68"/>
     <use xlink:href="#DejaVuSans-73" x="63.378906"/>
     <use xlink:href="#DejaVuSans-61" x="115.478516"/>
     <use xlink:href="#DejaVuSans-2d" x="176.757812"/>
     <use xlink:href="#DejaVuSans-6d" x="212.841797"/>
     <use xlink:href="#DejaVuSans-69" x="310.253906"/>
     <use xlink:href="#DejaVuSans-72" x="338.037109"/>
     <use xlink:href="#DejaVuSans-2d" x="372.775391"/>
     <use xlink:href="#DejaVuSans-33" x="408.859375"/>
     <use xlink:href="#DejaVuSans-37" x="472.482422"/>
     <use xlink:href="#DejaVuSans-38" x="536.105469"/>
     <use xlink:href="#DejaVuSans-63" x="599.728516"/>
    </g>
   </g>
   <g id="text_4">
    <!-- hsa-mir-7706 -->
    <g transform="translate(491.696199 594.898409) scale(0.08 -0.08)">
     <defs>
      <path id="DejaVuSans-30" d="M 2034 4250 
Q 1547 4250 1301 3770 
Q 1056 3291 1056 2328 
Q 1056 1369 1301 889 
Q 1547 409 2034 409 
Q 2525 409 2770 889 
Q 3016 1369 3016 2328 
Q 3016 3291 2770 3770 
Q 2525 4250 2034 4250 
z
M 2034 4750 
Q 2819 4750 3233 4129 
Q 3647 3509 3647 2328 
Q 3647 1150 3233 529 
Q 2819 -91 2034 -91 
Q 1250 -91 836 529 
Q 422 1150 422 2328 
Q 422 3509 836 4129 
Q 1250 4750 2034 4750 
z
" transform="scale(0.015625)"/>
      <path id="DejaVuSans-36" d="M 2113 2584 
Q 1688 2584 1439 2293 
Q 1191 2003 1191 1497 
Q 1191 994 1439 701 
Q 1688 409 2113 409 
Q 2538 409 2786 701 
Q 3034 994 3034 1497 
Q 3034 2003 2786 2293 
Q 2538 2584 2113 2584 
z
M 3366 4563 
L 3366 3988 
Q 3128 4100 2886 4159 
Q 2644 4219 2406 4219 
Q 1781 4219 1451 3797 
Q 1122 3375 1075 2522 
Q 1259 2794 1537 2939 
Q 1816 3084 2150 3084 
Q 2853 3084 3261 2657 
Q 3669 2231 3669 1497 
Q 3669 778 3244 343 
Q 2819 -91 2113 -91 
Q 1303 -91 875 529 
Q 447 1150 447 2328 
Q 447 3434 972 4092 
Q 1497 4750 2381 4750 
Q 2619 4750 2861 4703 
Q 3103 4656 3366 4563 
z
" transform="scale(0.015625)"/>
     </defs>
     <use xlink:href="#DejaVuSans-68"/>
     <use xlink:href="#DejaVuSans-73" x="63.378906"/>
     <use xlink:href="#DejaVuSans-61" x="115.478516"/>
     <use xlink:href="#DejaVuSans-2d" x="176.757812"/>
     <use xlink:href="#DejaVuSans-6d" x="212.841797"/>
     <use xlink:href="#DejaVuSans-69" x="310.253906"/>
     <use xlink:href="#DejaVuSans-72" x="338.037109"/>
     <use xlink:href="#DejaVuSans-2d" x="372.775391"/>
     <use xlink:href="#DejaVuSans-37" x="408.859375"/>
     <use xlink:href="#DejaVuSans-37" x="472.482422"/>
     <use xlink:href="#DejaVuSans-30" x="536.105469"/>
     <use xlink:href="#DejaVuSans-36" x="599.728516"/>
    </g>
   </g>
   <g id="text_5">
    <!-- BARX1 -->
    <g transform="translate(448.650286 265.573784) scale(0.08 -0.08)">
     <defs>
      <path id="DejaVuSans-42" d="M 1259 2228 
L 1259 519 
L 2272 519 
Q 2781 519 3026 730 
Q 3272 941 3272 1375 
Q 3272 1813 3026 2020 
Q 2781 2228 2272 2228 
L 1259 2228 
z
M 1259 4147 
L 1259 2741 
L 2194 2741 
Q 2656 2741 2882 2914 
Q 3109 3088 3109 3444 
Q 3109 3797 2882 3972 
Q 2656 4147 2194 4147 
L 1259 4147 
z
M 628 4666 
L 2241 4666 
Q 2963 4666 3353 4366 
Q 3744 4066 3744 3513 
Q 3744 3084 3544 2831 
Q 3344 2578 2956 2516 
Q 3422 2416 3680 2098 
Q 3938 1781 3938 1306 
Q 3938 681 3513 340 
Q 3088 0 2303 0 
L 628 0 
L 628 4666 
z
" transform="scale(0.015625)"/>
      <path id="DejaVuSans-41" d="M 2188 4044 
L 1331 1722 
L 3047 1722 
L 2188 4044 
z
M 1831 4666 
L 2547 4666 
L 4325 0 
L 3669 0 
L 3244 1197 
L 1141 1197 
L 716 0 
L 50 0 
L 1831 4666 
z
" transform="scale(0.015625)"/>
      <path id="DejaVuSans-52" d="M 2841 2188 
Q 3044 2119 3236 1894 
Q 3428 1669 3622 1275 
L 4263 0 
L 3584 0 
L 2988 1197 
Q 2756 1666 2539 1819 
Q 2322 1972 1947 1972 
L 1259 1972 
L 1259 0 
L 628 0 
L 628 4666 
L 2053 4666 
Q 2853 4666 3247 4331 
Q 3641 3997 3641 3322 
Q 3641 2881 3436 2590 
Q 3231 2300 2841 2188 
z
M 1259 4147 
L 1259 2491 
L 2053 2491 
Q 2509 2491 2742 2702 
Q 2975 2913 2975 3322 
Q 2975 3731 2742 3939 
Q 2509 4147 2053 4147 
L 1259 4147 
z
" transform="scale(0.015625)"/>
      <path id="DejaVuSans-58" d="M 403 4666 
L 1081 4666 
L 2241 2931 
L 3406 4666 
L 4084 4666 
L 2584 2425 
L 4184 0 
L 3506 0 
L 2194 1984 
L 872 0 
L 191 0 
L 1856 2491 
L 403 4666 
z
" transform="scale(0.015625)"/>
     </defs>
     <use xlink:href="#DejaVuSans-42"/>
     <use xlink:href="#DejaVuSans-41" x="68.603516"/>
     <use xlink:href="#DejaVuSans-52" x="137.011719"/>
     <use xlink:href="#DejaVuSans-58" x="206.494141"/>
     <use xlink:href="#DejaVuSans-31" x="275"/>
    </g>
   </g>
   <g id="text_6">
    <!-- SLC5A10 -->
    <g transform="translate(120.488988 354.914772) scale(0.08 -0.08)">
     <defs>
      <path id="DejaVuSans-53" d="M 3425 4513 
L 3425 3897 
Q 3066 4069 2747 4153 
Q 2428 4238 2131 4238 
Q 1616 4238 1336 4038 
Q 1056 3838 1056 3469 
Q 1056 3159 1242 3001 
Q 1428 2844 1947 2747 
L 2328 2669 
Q 3034 2534 3370 2195 
Q 3706 1856 3706 1288 
Q 3706 609 3251 259 
Q 2797 -91 1919 -91 
Q 1588 -91 1214 -16 
Q 841 59 441 206 
L 441 856 
Q 825 641 1194 531 
Q 1563 422 1919 422 
Q 2459 422 2753 634 
Q 3047 847 3047 1241 
Q 3047 1584 2836 1778 
Q 2625 1972 2144 2069 
L 1759 2144 
Q 1053 2284 737 2584 
Q 422 2884 422 3419 
Q 422 4038 858 4394 
Q 1294 4750 2059 4750 
Q 2388 4750 2728 4690 
Q 3069 4631 3425 4513 
z
" transform="scale(0.015625)"/>
      <path id="DejaVuSans-4c" d="M 628 4666 
L 1259 4666 
L 1259 531 
L 3531 531 
L 3531 0 
L 628 0 
L 628 4666 
z
" transform="scale(0.015625)"/>
      <path id="DejaVuSans-43" d="M 4122 4306 
L 4122 3641 
Q 3803 3938 3442 4084 
Q 3081 4231 2675 4231 
Q 1875 4231 1450 3742 
Q 1025 3253 1025 2328 
Q 1025 1406 1450 917 
Q 1875 428 2675 428 
Q 3081 428 3442 575 
Q 3803 722 4122 1019 
L 4122 359 
Q 3791 134 3420 21 
Q 3050 -91 2638 -91 
Q 1578 -91 968 557 
Q 359 1206 359 2328 
Q 359 3453 968 4101 
Q 1578 4750 2638 4750 
Q 3056 4750 3426 4639 
Q 3797 4528 4122 4306 
z
" transform="scale(0.015625)"/>
     </defs>
     <use xlink:href="#DejaVuSans-53"/>
     <use xlink:href="#DejaVuSans-4c" x="63.476562"/>
     <use xlink:href="#DejaVuSans-43" x="119.189453"/>
     <use xlink:href="#DejaVuSans-35" x="189.013672"/>
     <use xlink:href="#DejaVuSans-41" x="252.636719"/>
     <use xlink:href="#DejaVuSans-31" x="321.044922"/>
     <use xlink:href="#DejaVuSans-30" x="384.667969"/>
    </g>
   </g>
   <g id="text_7">
    <!-- CLMP -->
    <g transform="translate(286.450414 136.716591) scale(0.08 -0.08)">
     <defs>
      <path id="DejaVuSans-4d" d="M 628 4666 
L 1569 4666 
L 2759 1491 
L 3956 4666 
L 4897 4666 
L 4897 0 
L 4281 0 
L 4281 4097 
L 3078 897 
L 2444 897 
L 1241 4097 
L 1241 0 
L 628 0 
L 628 4666 
z
" transform="scale(0.015625)"/>
      <path id="DejaVuSans-50" d="M 1259 4147 
L 1259 2394 
L 2053 2394 
Q 2494 2394 2734 2622 
Q 2975 2850 2975 3272 
Q 2975 3691 2734 3919 
Q 2494 4147 2053 4147 
L 1259 4147 
z
M 628 4666 
L 2053 4666 
Q 2838 4666 3239 4311 
Q 3641 3956 3641 3272 
Q 3641 2581 3239 2228 
Q 2838 1875 2053 1875 
L 1259 1875 
L 1259 0 
L 628 0 
L 628 4666 
z
" transform="scale(0.015625)"/>
     </defs>
     <use xlink:href="#DejaVuSans-43"/>
     <use xlink:href="#DejaVuSans-4c" x="69.824219"/>
     <use xlink:href="#DejaVuSans-4d" x="125.537109"/>
     <use xlink:href="#DejaVuSans-50" x="211.816406"/>
    </g>
   </g>
   <g id="text_8">
    <!-- PLA2G12B -->
    <g transform="translate(244.864918 569.12697) scale(0.08 -0.08)">
     <defs>
      <path id="DejaVuSans-32" d="M 1228 531 
L 3431 531 
L 3431 0 
L 469 0 
L 469 531 
Q 828 903 1448 1529 
Q 2069 2156 2228 2338 
Q 2531 2678 2651 2914 
Q 2772 3150 2772 3378 
Q 2772 3750 2511 3984 
Q 2250 4219 1831 4219 
Q 1534 4219 1204 4116 
Q 875 4013 500 3803 
L 500 4441 
Q 881 4594 1212 4672 
Q 1544 4750 1819 4750 
Q 2544 4750 2975 4387 
Q 3406 4025 3406 3419 
Q 3406 3131 3298 2873 
Q 3191 2616 2906 2266 
Q 2828 2175 2409 1742 
Q 1991 1309 1228 531 
z
" transform="scale(0.015625)"/>
      <path id="DejaVuSans-47" d="M 3809 666 
L 3809 1919 
L 2778 1919 
L 2778 2438 
L 4434 2438 
L 4434 434 
Q 4069 175 3628 42 
Q 3188 -91 2688 -91 
Q 1594 -91 976 548 
Q 359 1188 359 2328 
Q 359 3472 976 4111 
Q 1594 4750 2688 4750 
Q 3144 4750 3555 4637 
Q 3966 4525 4313 4306 
L 4313 3634 
Q 3963 3931 3569 4081 
Q 3175 4231 2741 4231 
Q 1884 4231 1454 3753 
Q 1025 3275 1025 2328 
Q 1025 1384 1454 906 
Q 1884 428 2741 428 
Q 3075 428 3337 486 
Q 3600 544 3809 666 
z
" transform="scale(0.015625)"/>
     </defs>
     <use xlink:href="#DejaVuSans-50"/>
     <use xlink:href="#DejaVuSans-4c" x="60.302734"/>
     <use xlink:href="#DejaVuSans-41" x="118.265625"/>
     <use xlink:href="#DejaVuSans-32" x="186.673828"/>
     <use xlink:href="#DejaVuSans-47" x="250.296875"/>
     <use xlink:href="#DejaVuSans-31" x="327.787109"/>
     <use xlink:href="#DejaVuSans-32" x="391.410156"/>
     <use xlink:href="#DejaVuSans-42" x="455.033203"/>
    </g>
   </g>
   <g id="text_9">
    <!-- DUSP9 -->
    <g transform="translate(586.074762 497.518451) scale(0.08 -0.08)">
     <defs>
      <path id="DejaVuSans-44" d="M 1259 4147 
L 1259 519 
L 2022 519 
Q 2988 519 3436 956 
Q 3884 1394 3884 2338 
Q 3884 3275 3436 3711 
Q 2988 4147 2022 4147 
L 1259 4147 
z
M 628 4666 
L 1925 4666 
Q 3281 4666 3915 4102 
Q 4550 3538 4550 2338 
Q 4550 1131 3912 565 
Q 3275 0 1925 0 
L 628 0 
L 628 4666 
z
" transform="scale(0.015625)"/>
      <path id="DejaVuSans-55" d="M 556 4666 
L 1191 4666 
L 1191 1831 
Q 1191 1081 1462 751 
Q 1734 422 2344 422 
Q 2950 422 3222 751 
Q 3494 1081 3494 1831 
L 3494 4666 
L 4128 4666 
L 4128 1753 
Q 4128 841 3676 375 
Q 3225 -91 2344 -91 
Q 1459 -91 1007 375 
Q 556 841 556 1753 
L 556 4666 
z
" transform="scale(0.015625)"/>
     </defs>
     <use xlink:href="#DejaVuSans-44"/>
     <use xlink:href="#DejaVuSans-55" x="77.001953"/>
     <use xlink:href="#DejaVuSans-53" x="150.195312"/>
     <use xlink:href="#DejaVuSans-50" x="213.671875"/>
     <use xlink:href="#DejaVuSans-39" x="273.974609"/>
    </g>
   </g>
   <g id="text_10">
    <!-- Coregulation network -->
    <g transform="translate(304.395 80.4) scale(0.12 -0.12)">
     <defs>
      <path id="DejaVuSans-6f" d="M 1959 3097 
Q 1497 3097 1228 2736 
Q 959 2375 959 1747 
Q 959 1119 1226 758 
Q 1494 397 1959 397 
Q 2419 397 2687 759 
Q 2956 1122 2956 1747 
Q 2956 2369 2687 2733 
Q 2419 3097 1959 3097 
z
M 1959 3584 
Q 2709 3584 3137 3096 
Q 3566 2609 3566 1747 
Q 3566 888 3137 398 
Q 2709 -91 1959 -91 
Q 1206 -91 779 398 
Q 353 888 353 1747 
Q 353 2609 779 3096 
Q 1206 3584 1959 3584 
z
" transform="scale(0.015625)"/>
      <path id="DejaVuSans-65" d="M 3597 1894 
L 3597 1613 
L 953 1613 
Q 991 1019 1311 708 
Q 1631 397 2203 397 
Q 2534 397 2845 478 
Q 3156 559 3463 722 
L 3463 178 
Q 3153 47 2828 -22 
Q 2503 -91 2169 -91 
Q 1331 -91 842 396 
Q 353 884 353 1716 
Q 353 2575 817 3079 
Q 1281 3584 2069 3584 
Q 2775 3584 3186 3129 
Q 3597 2675 3597 1894 
z
M 3022 2063 
Q 3016 2534 2758 2815 
Q 2500 3097 2075 3097 
Q 1594 3097 1305 2825 
Q 1016 2553 972 2059 
L 3022 2063 
z
" transform="scale(0.015625)"/>
      <path id="DejaVuSans-67" d="M 2906 1791 
Q 2906 2416 2648 2759 
Q 2391 3103 1925 3103 
Q 1463 3103 1205 2759 
Q 947 2416 947 1791 
Q 947 1169 1205 825 
Q 1463 481 1925 481 
Q 2391 481 2648 825 
Q 2906 1169 2906 1791 
z
M 3481 434 
Q 3481 -459 3084 -895 
Q 2688 -1331 1869 -1331 
Q 1566 -1331 1297 -1286 
Q 1028 -1241 775 -1147 
L 775 -588 
Q 1028 -725 1275 -790 
Q 1522 -856 1778 -856 
Q 2344 -856 2625 -561 
Q 2906 -266 2906 331 
L 2906 616 
Q 2728 306 2450 153 
Q 2172 0 1784 0 
Q 1141 0 747 490 
Q 353 981 353 1791 
Q 353 2603 747 3093 
Q 1141 3584 1784 3584 
Q 2172 3584 2450 3431 
Q 2728 3278 2906 2969 
L 2906 3500 
L 3481 3500 
L 3481 434 
z
" transform="scale(0.015625)"/>
      <path id="DejaVuSans-75" d="M 544 1381 
L 544 3500 
L 1119 3500 
L 1119 1403 
Q 1119 906 1312 657 
Q 1506 409 1894 409 
Q 2359 409 2629 706 
Q 2900 1003 2900 1516 
L 2900 3500 
L 3475 3500 
L 3475 0 
L 2900 0 
L 2900 538 
Q 2691 219 2414 64 
Q 2138 -91 1772 -91 
Q 1169 -91 856 284 
Q 544 659 544 1381 
z
M 1991 3584 
L 1991 3584 
z
" transform="scale(0.015625)"/>
      <path id="DejaVuSans-6c" d="M 603 4863 
L 1178 4863 
L 1178 0 
L 603 0 
L 603 4863 
z
" transform="scale(0.015625)"/>
      <path id="DejaVuSans-74" d="M 1172 4494 
L 1172 3500 
L 2356 3500 
L 2356 3053 
L 1172 3053 
L 1172 1153 
Q 1172 725 1289 603 
Q 1406 481 1766 481 
L 2356 481 
L 2356 0 
L 1766 0 
Q 1100 0 847 248 
Q 594 497 594 1153 
L 594 3053 
L 172 3053 
L 172 3500 
L 594 3500 
L 594 4494 
L 1172 4494 
z
" transform="scale(0.015625)"/>
      <path id="DejaVuSans-6e" d="M 3513 2113 
L 3513 0 
L 2938 0 
L 2938 2094 
Q 2938 2591 2744 2837 
Q 2550 3084 2163 3084 
Q 1697 3084 1428 2787 
Q 1159 2491 1159 1978 
L 1159 0 
L 581 0 
L 581 3500 
L 1159 3500 
L 1159 2956 
Q 1366 3272 1645 3428 
Q 1925 3584 2291 3584 
Q 2894 3584 3203 3211 
Q 3513 2838 3513 2113 
z
" transform="scale(0.015625)"/>
      <path id="DejaVuSans-20" transform="scale(0.015625)"/>
      <path id="DejaVuSans-77" d="M 269 3500 
L 844 3500 
L 1563 769 
L 2278 3500 
L 2956 3500 
L 3675 769 
L 4391 3500 
L 4966 3500 
L 4050 0 
L 3372 0 
L 2619 2869 
L 1863 0 
L 1184 0 
L 269 3500 
z
" transform="scale(0.015625)"/>
      <path id="DejaVuSans-6b" d="M 581 4863 
L 1159 4863 
L 1159 1991 
L 2875 3500 
L 3609 3500 
L 1753 1863 
L 3688 0 
L 2938 0 
L 1159 1709 
L 1159 0 
L 581 0 
L 581 4863 
z
" transform="scale(0.015625)"/>
     </defs>
     <use xlink:href="#DejaVuSans-43"/>
     <use xlink:href="#DejaVuSans-6f" x="69.824219"/>
     <use xlink:href="#DejaVuSans-72" x="131.005859"/>
     <use xlink:href="#DejaVuSans-65" x="169.869141"/>
     <use xlink:href="#DejaVuSans-67" x="231.392578"/>
     <use xlink:href="#DejaVuSans-75" x="294.869141"/>
     <use xlink:href="#DejaVuSans-6c" x="358.248047"/>
     <use xlink:href="#DejaVuSans-61" x="386.03125"/>
     <use xlink:href="#DejaVuSans-74" x="447.310547"/>
     <use xlink:href="#DejaVuSans-69" x="486.519531"/>
     <use xlink:href="#DejaVuSans-6f" x="514.302734"/>
     <use xlink:href="#DejaVuSans-6e" x="575.484375"/>
     <use xlink:href="#DejaVuSans-20" x="638.863281"/>
     <use xlink:href="#DejaVuSans-6e" x="670.650391"/>
     <use xlink:href="#DejaVuSans-65" x="734.029297"/>
     <use xlink:href="#DejaVuSans-74" x="795.552734"/>
     <use xlink:href="#DejaVuSans-77" x="834.761719"/>
     <use xlink:href="#DejaVuSans-6f" x="916.548828"/>
     <use xlink:href="#DejaVuSans-72" x="977.730469"/>
     <use xlink:href="#DejaVuSans-6b" x="1018.84375"/>
    </g>
   </g>
   <g id="legend_1">
    <g id="patch_16">
     <path d="M 496.5 153.1125 
L 641 153.1125 
Q 643 153.1125 643 151.1125 
L 643 93.4 
Q 643 91.4 641 91.4 
L 496.5 91.4 
Q 494.5 91.4 494.5 93.4 
L 494.5 151.1125 
Q 494.5 153.1125 496.5 153.1125 
z
" style="fill: #ffffff; opacity: 0.8; stroke: #cccccc; stroke-linejoin: miter"/>
    </g>
    <g id="line2d_1">
     <path d="M 498.5 99.498437 
L 508.5 99.498437 
L 518.5 99.498437 
" style="fill: none; stroke: #800080; stroke-width: 2; stroke-linecap: square"/>
    </g>
    <g id="text_11">
     <!-- Structural Information -->
     <g transform="translate(526.5 102.998437) scale(0.1 -0.1)">
      <defs>
       <path id="DejaVuSans-49" d="M 628 4666 
L 1259 4666 
L 1259 0 
L 628 0 
L 628 4666 
z
" transform="scale(0.015625)"/>
       <path id="DejaVuSans-66" d="M 2375 4863 
L 2375 4384 
L 1825 4384 
Q 1516 4384 1395 4259 
Q 1275 4134 1275 3809 
L 1275 3500 
L 2222 3500 
L 2222 3053 
L 1275 3053 
L 1275 0 
L 697 0 
L 697 3053 
L 147 3053 
L 147 3500 
L 697 3500 
L 697 3744 
Q 697 4328 969 4595 
Q 1241 4863 1831 4863 
L 2375 4863 
z
" transform="scale(0.015625)"/>
      </defs>
      <use xlink:href="#DejaVuSans-53"/>
      <use xlink:href="#DejaVuSans-74" x="63.476562"/>
      <use xlink:href="#DejaVuSans-72" x="102.685547"/>
      <use xlink:href="#DejaVuSans-75" x="143.798828"/>
      <use xlink:href="#DejaVuSans-63" x="207.177734"/>
      <use xlink:href="#DejaVuSans-74" x="262.158203"/>
      <use xlink:href="#DejaVuSans-75" x="301.367188"/>
      <use xlink:href="#DejaVuSans-72" x="364.746094"/>
      <use xlink:href="#DejaVuSans-61" x="405.859375"/>
      <use xlink:href="#DejaVuSans-6c" x="467.138672"/>
      <use xlink:href="#DejaVuSans-20" x="494.921875"/>
      <use xlink:href="#DejaVuSans-49" x="526.708984"/>
      <use xlink:href="#DejaVuSans-6e" x="556.201172"/>
      <use xlink:href="#DejaVuSans-66" x="619.580078"/>
      <use xlink:href="#DejaVuSans-6f" x="654.785156"/>
      <use xlink:href="#DejaVuSans-72" x="715.966797"/>
      <use xlink:href="#DejaVuSans-6d" x="755.330078"/>
      <use xlink:href="#DejaVuSans-61" x="852.742188"/>
      <use xlink:href="#DejaVuSans-74" x="914.021484"/>
      <use xlink:href="#DejaVuSans-69" x="953.230469"/>
      <use xlink:href="#DejaVuSans-6f" x="981.013672"/>
      <use xlink:href="#DejaVuSans-6e" x="1042.195312"/>
     </g>
    </g>
    <g id="line2d_2">
     <path d="M 498.5 114.176562 
L 508.5 114.176562 
L 518.5 114.176562 
" style="fill: none; stroke: #ff0000; stroke-width: 2; stroke-linecap: square"/>
    </g>
    <g id="text_12">
     <!-- Functional Information -->
     <g transform="translate(526.5 117.676562) scale(0.1 -0.1)">
      <defs>
       <path id="DejaVuSans-46" d="M 628 4666 
L 3309 4666 
L 3309 4134 
L 1259 4134 
L 1259 2759 
L 3109 2759 
L 3109 2228 
L 1259 2228 
L 1259 0 
L 628 0 
L 628 4666 
z
" transform="scale(0.015625)"/>
      </defs>
      <use xlink:href="#DejaVuSans-46"/>
      <use xlink:href="#DejaVuSans-75" x="52.019531"/>
      <use xlink:href="#DejaVuSans-6e" x="115.398438"/>
      <use xlink:href="#DejaVuSans-63" x="178.777344"/>
      <use xlink:href="#DejaVuSans-74" x="233.757812"/>
      <use xlink:href="#DejaVuSans-69" x="272.966797"/>
      <use xlink:href="#DejaVuSans-6f" x="300.75"/>
      <use xlink:href="#DejaVuSans-6e" x="361.931641"/>
      <use xlink:href="#DejaVuSans-61" x="425.310547"/>
      <use xlink:href="#DejaVuSans-6c" x="486.589844"/>
      <use xlink:href="#DejaVuSans-20" x="514.373047"/>
      <use xlink:href="#DejaVuSans-49" x="546.160156"/>
      <use xlink:href="#DejaVuSans-6e" x="575.652344"/>
      <use xlink:href="#DejaVuSans-66" x="639.03125"/>
      <use xlink:href="#DejaVuSans-6f" x="674.236328"/>
      <use xlink:href="#DejaVuSans-72" x="735.417969"/>
      <use xlink:href="#DejaVuSans-6d" x="774.78125"/>
      <use xlink:href="#DejaVuSans-61" x="872.193359"/>
      <use xlink:href="#DejaVuSans-74" x="933.472656"/>
      <use xlink:href="#DejaVuSans-69" x="972.681641"/>
      <use xlink:href="#DejaVuSans-6f" x="1000.464844"/>
      <use xlink:href="#DejaVuSans-6e" x="1061.646484"/>
     </g>
    </g>
    <g id="patch_17">
     <path d="M 498.5 132.354687 
L 518.5 132.354687 
L 518.5 125.354687 
L 498.5 125.354687 
z
" style="fill: #90ee90; stroke: #90ee90; stroke-linejoin: miter"/>
    </g>
    <g id="text_13">
     <!-- miRNA -->
     <g transform="translate(526.5 132.354687) scale(0.1 -0.1)">
      <defs>
       <path id="DejaVuSans-4e" d="M 628 4666 
L 1478 4666 
L 3547 763 
L 3547 4666 
L 4159 4666 
L 4159 0 
L 3309 0 
L 1241 3903 
L 1241 0 
L 628 0 
L 628 4666 
z
" transform="scale(0.015625)"/>
      </defs>
      <use xlink:href="#DejaVuSans-6d"/>
      <use xlink:href="#DejaVuSans-69" x="97.412109"/>
      <use xlink:href="#DejaVuSans-52" x="125.195312"/>
      <use xlink:href="#DejaVuSans-4e" x="194.677734"/>
      <use xlink:href="#DejaVuSans-41" x="269.482422"/>
     </g>
    </g>
    <g id="patch_18">
     <path d="M 498.5 147.032812 
L 518.5 147.032812 
L 518.5 140.032812 
L 498.5 140.032812 
z
" style="fill: #add8e6; stroke: #add8e6; stroke-linejoin: miter"/>
    </g>
    <g id="text_14">
     <!-- mRNA -->
     <g transform="translate(526.5 147.032812) scale(0.1 -0.1)">
      <use xlink:href="#DejaVuSans-6d"/>
      <use xlink:href="#DejaVuSans-52" x="97.412109"/>
      <use xlink:href="#DejaVuSans-4e" x="166.894531"/>
      <use xlink:href="#DejaVuSans-41" x="241.699219"/>
     </g>
    </g>
   </g>
  </g>
 </g>
 <defs>
  <clipPath id="p15a8fdd3c3">
   <rect x="90" y="86.4" width="558" height="554.4"/>
  </clipPath>
 </defs>
</svg>
